<?xml version="1.0" encoding="UTF-8" standalone="no"?><svg xmlns="http://www.w3.org/2000/svg" xmlns:xlink="http://www.w3.org/1999/xlink" contentScriptType="application/ecmascript" contentStyleType="text/css" height="896px" preserveAspectRatio="none" style="width:1093px;height:896px;background:#FFFFFF;" version="1.1" viewBox="0 0 1093 896" width="1093px" zoomAndPan="magnify"><defs><filter height="300%" id="f1jzq1swz6y3ss" width="300%" x="-1" y="-1"><feGaussianBlur result="blurOut" stdDeviation="2.0"/><feColorMatrix in="blurOut" result="blurOut2" type="matrix" values="0 0 0 0 0 0 0 0 0 0 0 0 0 0 0 0 0 0 .4 0"/><feOffset dx="4.0" dy="4.0" in="blurOut2" result="blurOut3"/><feBlend in="SourceGraphic" in2="blurOut3" mode="normal"/></filter></defs><g><!--MD5=[ad64a082a5719e7ab7338a9645b9e7b2]
class measSeries--><rect codeLine="7" fill="#FEFECE" filter="url(#f1jzq1swz6y3ss)" height="90.6016" id="measSeries" style="stroke:#A80036;stroke-width:1.5;" width="122" x="685.5" y="655"/><text fill="#000000" font-family="sans-serif" font-size="12" lengthAdjust="spacing" textLength="112" x="690.5" y="672.457">MeasurementSeries</text><line style="stroke:#A80036;stroke-width:1.5;" x1="686.5" x2="806.5" y1="680.0938" y2="680.0938"/><path d="M698,686.9297 C696.62,686.9297 695.5,688.0497 695.5,689.4297 C695.5,689.5897 695.5,689.7497 695.53,689.8997 L692.5,692.9297 L692.5,694.9297 L695.5,694.9297 L695.5,692.9297 L697.5,692.9297 L697.5,691.9297 L697.53,691.8997 C697.68,691.9297 697.84,691.9297 698,691.9297 C699.38,691.9297 700.5,690.8097 700.5,689.4297 C700.5,688.0497 699.38,686.9297 698,686.9297 M698.5,687.9297 C699.05,687.9297 699.5,688.3797 699.5,688.9297 C699.5,689.4797 699.05,689.9297 698.5,689.9297 C697.95,689.9297 697.5,689.4797 697.5,688.9297 C697.5,688.3797 697.95,687.9297 698.5,687.9297 " fill="#000000" style="stroke:;stroke-width:0.0;stroke-dasharray:;"/><text fill="#000000" font-family="sans-serif" font-size="11" font-weight="bold" lengthAdjust="spacing" textLength="10" x="704.5" y="695.5127">ID</text><line style="stroke:#A80036;stroke-width:1.0;" x1="686.5" x2="806.5" y1="701.9297" y2="701.9297"/><path d="M698.38,708.7956 C698.2,708.8056 698.02,708.8256 697.85,708.8856 C697.58,708.9856 697.32,709.1356 697.1,709.3556 A0.5,0.5 0 1 0 697.79,710.0456 C697.9,709.9356 698.03,709.8756 698.17,709.8256 C698.52,709.7056 698.95,709.7556 699.23,710.0456 C699.62,710.4356 699.62,711.0856 699.23,711.4856 L697.73,712.9856 C697.29,713.4256 696.93,713.4656 696.67,713.4556 C696.41,713.4456 696.26,713.3256 696.26,713.3256 A0.5,0.5 0 1 0 695.76,714.2056 C696.1,714.4256 696.1,714.4256 696.6,714.4556 C697.1,714.4856 697.8,714.2956 698.41,713.6756 L699.91,712.1756 C700.69,711.3956 700.69,710.1356 699.91,709.3656 C699.63,709.0856 699.3,708.9156 698.94,708.8356 C698.76,708.7956 698.56,708.7956 698.38,708.8056 M696.38,711.1056 C695.88,711.0856 695.19,711.2556 694.6,711.8556 L693.1,713.3556 C692.32,714.1356 692.32,715.3956 693.1,716.1656 C693.66,716.7256 694.46,716.8856 695.16,716.6356 C695.43,716.5356 695.69,716.3856 695.91,716.1656 A0.5,0.5 0 1 0 695.22,715.4756 C695.11,715.5856 694.98,715.6456 694.84,715.6956 C694.49,715.8156 694.06,715.7656 693.78,715.4756 C693.39,715.0856 693.39,714.4356 693.78,714.0356 L695.28,712.5356 C695.68,712.1356 696.03,712.0856 696.31,712.0956 C696.59,712.1056 696.78,712.1856 696.78,712.1856 A0.5,0.5 0 1 0 697.22,711.3056 C696.88,711.1056 696.88,711.1056 696.38,711.0856 " fill="#000000" style="stroke:;stroke-width:0.0;stroke-dasharray:;"/><text fill="#000000" font-family="sans-serif" font-size="11" font-style="italic" lengthAdjust="spacing" textLength="97" x="704.5" y="717.3486">measurements_id []</text><line style="stroke:#A80036;stroke-width:1.0;" x1="686.5" x2="806.5" y1="723.7656" y2="723.7656"/><ellipse cx="696.5" cy="734.7656" fill="#000000" rx="3" ry="3" style="stroke:#000000;stroke-width:1.0;"/><text fill="#000000" font-family="sans-serif" font-size="11" lengthAdjust="spacing" textLength="48" x="705.5" y="739.1846">name : str</text><!--MD5=[0cd9019e0ce44bea294eb214f5a5ddce]
class meas--><rect codeLine="15" fill="#FEFECE" filter="url(#f1jzq1swz6y3ss)" height="242.7969" id="meas" style="stroke:#A80036;stroke-width:1.5;" width="155" x="344" y="327.5"/><text fill="#000000" font-family="sans-serif" font-size="12" lengthAdjust="spacing" textLength="76" x="383.5" y="344.957">Measurement</text><line style="stroke:#A80036;stroke-width:1.5;" x1="345" x2="498" y1="352.5938" y2="352.5938"/><path d="M356.5,359.4297 C355.12,359.4297 354,360.5497 354,361.9297 C354,362.0897 354,362.2497 354.03,362.3997 L351,365.4297 L351,367.4297 L354,367.4297 L354,365.4297 L356,365.4297 L356,364.4297 L356.03,364.3997 C356.18,364.4297 356.34,364.4297 356.5,364.4297 C357.88,364.4297 359,363.3097 359,361.9297 C359,360.5497 357.88,359.4297 356.5,359.4297 M357,360.4297 C357.55,360.4297 358,360.8797 358,361.4297 C358,361.9797 357.55,362.4297 357,362.4297 C356.45,362.4297 356,361.9797 356,361.4297 C356,360.8797 356.45,360.4297 357,360.4297 " fill="#000000" style="stroke:;stroke-width:0.0;stroke-dasharray:;"/><text fill="#000000" font-family="sans-serif" font-size="11" font-weight="bold" lengthAdjust="spacing" textLength="10" x="363" y="368.0127">ID</text><line style="stroke:#A80036;stroke-width:1.0;" x1="345" x2="498" y1="374.4297" y2="374.4297"/><path d="M356.88,381.2956 C356.7,381.3056 356.52,381.3256 356.35,381.3856 C356.08,381.4856 355.82,381.6356 355.6,381.8556 A0.5,0.5 0 1 0 356.29,382.5456 C356.4,382.4356 356.53,382.3756 356.67,382.3256 C357.02,382.2056 357.45,382.2556 357.73,382.5456 C358.12,382.9356 358.12,383.5856 357.73,383.9856 L356.23,385.4856 C355.79,385.9256 355.43,385.9656 355.17,385.9556 C354.91,385.9456 354.76,385.8256 354.76,385.8256 A0.5,0.5 0 1 0 354.26,386.7056 C354.6,386.9256 354.6,386.9256 355.1,386.9556 C355.6,386.9856 356.3,386.7956 356.91,386.1756 L358.41,384.6756 C359.19,383.8956 359.19,382.6356 358.41,381.8656 C358.13,381.5856 357.8,381.4156 357.44,381.3356 C357.26,381.2956 357.06,381.2956 356.88,381.3056 M354.88,383.6056 C354.38,383.5856 353.69,383.7556 353.1,384.3556 L351.6,385.8556 C350.82,386.6356 350.82,387.8956 351.6,388.6656 C352.16,389.2256 352.96,389.3856 353.66,389.1356 C353.93,389.0356 354.19,388.8856 354.41,388.6656 A0.5,0.5 0 1 0 353.72,387.9756 C353.61,388.0856 353.48,388.1456 353.34,388.1956 C352.99,388.3156 352.56,388.2656 352.28,387.9756 C351.89,387.5856 351.89,386.9356 352.28,386.5356 L353.78,385.0356 C354.18,384.6356 354.53,384.5856 354.81,384.5956 C355.09,384.6056 355.28,384.6856 355.28,384.6856 A0.5,0.5 0 1 0 355.72,383.8056 C355.38,383.6056 355.38,383.6056 354.88,383.5856 " fill="#000000" style="stroke:;stroke-width:0.0;stroke-dasharray:;"/><text fill="#000000" font-family="sans-serif" font-size="11" font-style="italic" lengthAdjust="spacing" textLength="47" x="363" y="389.8486">device_id</text><path d="M356.88,395.1316 C356.7,395.1416 356.52,395.1616 356.35,395.2216 C356.08,395.3216 355.82,395.4716 355.6,395.6916 A0.5,0.5 0 1 0 356.29,396.3816 C356.4,396.2716 356.53,396.2116 356.67,396.1616 C357.02,396.0416 357.45,396.0916 357.73,396.3816 C358.12,396.7716 358.12,397.4216 357.73,397.8216 L356.23,399.3216 C355.79,399.7616 355.43,399.8016 355.17,399.7916 C354.91,399.7816 354.76,399.6616 354.76,399.6616 A0.5,0.5 0 1 0 354.26,400.5416 C354.6,400.7616 354.6,400.7616 355.1,400.7916 C355.6,400.8216 356.3,400.6316 356.91,400.0116 L358.41,398.5116 C359.19,397.7316 359.19,396.4716 358.41,395.7016 C358.13,395.4216 357.8,395.2516 357.44,395.1716 C357.26,395.1316 357.06,395.1316 356.88,395.1416 M354.88,397.4416 C354.38,397.4216 353.69,397.5916 353.1,398.1916 L351.6,399.6916 C350.82,400.4716 350.82,401.7316 351.6,402.5016 C352.16,403.0616 352.96,403.2216 353.66,402.9716 C353.93,402.8716 354.19,402.7216 354.41,402.5016 A0.5,0.5 0 1 0 353.72,401.8116 C353.61,401.9216 353.48,401.9816 353.34,402.0316 C352.99,402.1516 352.56,402.1016 352.28,401.8116 C351.89,401.4216 351.89,400.7716 352.28,400.3716 L353.78,398.8716 C354.18,398.4716 354.53,398.4216 354.81,398.4316 C355.09,398.4416 355.28,398.5216 355.28,398.5216 A0.5,0.5 0 1 0 355.72,397.6416 C355.38,397.4416 355.38,397.4416 354.88,397.4216 " fill="#000000" style="stroke:;stroke-width:0.0;stroke-dasharray:;"/><text fill="#000000" font-family="sans-serif" font-size="11" font-style="italic" lengthAdjust="spacing" textLength="108" x="363" y="403.6846">measurement_type_id</text><path d="M356.88,408.9675 C356.7,408.9775 356.52,408.9975 356.35,409.0575 C356.08,409.1575 355.82,409.3075 355.6,409.5275 A0.5,0.5 0 1 0 356.29,410.2175 C356.4,410.1075 356.53,410.0475 356.67,409.9975 C357.02,409.8775 357.45,409.9275 357.73,410.2175 C358.12,410.6075 358.12,411.2575 357.73,411.6575 L356.23,413.1575 C355.79,413.5975 355.43,413.6375 355.17,413.6275 C354.91,413.6175 354.76,413.4975 354.76,413.4975 A0.5,0.5 0 1 0 354.26,414.3775 C354.6,414.5975 354.6,414.5975 355.1,414.6275 C355.6,414.6575 356.3,414.4675 356.91,413.8475 L358.41,412.3475 C359.19,411.5675 359.19,410.3075 358.41,409.5375 C358.13,409.2575 357.8,409.0875 357.44,409.0075 C357.26,408.9675 357.06,408.9675 356.88,408.9775 M354.88,411.2775 C354.38,411.2575 353.69,411.4275 353.1,412.0275 L351.6,413.5275 C350.82,414.3075 350.82,415.5675 351.6,416.3375 C352.16,416.8975 352.96,417.0575 353.66,416.8075 C353.93,416.7075 354.19,416.5575 354.41,416.3375 A0.5,0.5 0 1 0 353.72,415.6475 C353.61,415.7575 353.48,415.8175 353.34,415.8675 C352.99,415.9875 352.56,415.9375 352.28,415.6475 C351.89,415.2575 351.89,414.6075 352.28,414.2075 L353.78,412.7075 C354.18,412.3075 354.53,412.2575 354.81,412.2675 C355.09,412.2775 355.28,412.3575 355.28,412.3575 A0.5,0.5 0 1 0 355.72,411.4775 C355.38,411.2775 355.38,411.2775 354.88,411.2575 " fill="#000000" style="stroke:;stroke-width:0.0;stroke-dasharray:;"/><text fill="#000000" font-family="sans-serif" font-size="11" font-style="italic" lengthAdjust="spacing" textLength="127" x="363" y="417.5205">measurement_settings_id</text><path d="M356.88,422.8034 C356.7,422.8134 356.52,422.8334 356.35,422.8934 C356.08,422.9934 355.82,423.1434 355.6,423.3634 A0.5,0.5 0 1 0 356.29,424.0534 C356.4,423.9434 356.53,423.8834 356.67,423.8334 C357.02,423.7134 357.45,423.7634 357.73,424.0534 C358.12,424.4434 358.12,425.0934 357.73,425.4934 L356.23,426.9934 C355.79,427.4334 355.43,427.4734 355.17,427.4634 C354.91,427.4534 354.76,427.3334 354.76,427.3334 A0.5,0.5 0 1 0 354.26,428.2134 C354.6,428.4334 354.6,428.4334 355.1,428.4634 C355.6,428.4934 356.3,428.3034 356.91,427.6834 L358.41,426.1834 C359.19,425.4034 359.19,424.1434 358.41,423.3734 C358.13,423.0934 357.8,422.9234 357.44,422.8434 C357.26,422.8034 357.06,422.8034 356.88,422.8134 M354.88,425.1134 C354.38,425.0934 353.69,425.2634 353.1,425.8634 L351.6,427.3634 C350.82,428.1434 350.82,429.4034 351.6,430.1734 C352.16,430.7334 352.96,430.8934 353.66,430.6434 C353.93,430.5434 354.19,430.3934 354.41,430.1734 A0.5,0.5 0 1 0 353.72,429.4834 C353.61,429.5934 353.48,429.6534 353.34,429.7034 C352.99,429.8234 352.56,429.7734 352.28,429.4834 C351.89,429.0934 351.89,428.4434 352.28,428.0434 L353.78,426.5434 C354.18,426.1434 354.53,426.0934 354.81,426.1034 C355.09,426.1134 355.28,426.1934 355.28,426.1934 A0.5,0.5 0 1 0 355.72,425.3134 C355.38,425.1134 355.38,425.1134 354.88,425.0934 " fill="#000000" style="stroke:;stroke-width:0.0;stroke-dasharray:;"/><text fill="#000000" font-family="sans-serif" font-size="11" font-style="italic" lengthAdjust="spacing" textLength="130" x="363" y="431.3564">measurement_mapping_id</text><path d="M356.88,436.6394 C356.7,436.6494 356.52,436.6694 356.35,436.7294 C356.08,436.8294 355.82,436.9794 355.6,437.1994 A0.5,0.5 0 1 0 356.29,437.8894 C356.4,437.7794 356.53,437.7194 356.67,437.6694 C357.02,437.5494 357.45,437.5994 357.73,437.8894 C358.12,438.2794 358.12,438.9294 357.73,439.3294 L356.23,440.8294 C355.79,441.2694 355.43,441.3094 355.17,441.2994 C354.91,441.2894 354.76,441.1694 354.76,441.1694 A0.5,0.5 0 1 0 354.26,442.0494 C354.6,442.2694 354.6,442.2694 355.1,442.2994 C355.6,442.3294 356.3,442.1394 356.91,441.5194 L358.41,440.0194 C359.19,439.2394 359.19,437.9794 358.41,437.2094 C358.13,436.9294 357.8,436.7594 357.44,436.6794 C357.26,436.6394 357.06,436.6394 356.88,436.6494 M354.88,438.9494 C354.38,438.9294 353.69,439.0994 353.1,439.6994 L351.6,441.1994 C350.82,441.9794 350.82,443.2394 351.6,444.0094 C352.16,444.5694 352.96,444.7294 353.66,444.4794 C353.93,444.3794 354.19,444.2294 354.41,444.0094 A0.5,0.5 0 1 0 353.72,443.3194 C353.61,443.4294 353.48,443.4894 353.34,443.5394 C352.99,443.6594 352.56,443.6094 352.28,443.3194 C351.89,442.9294 351.89,442.2794 352.28,441.8794 L353.78,440.3794 C354.18,439.9794 354.53,439.9294 354.81,439.9394 C355.09,439.9494 355.28,440.0294 355.28,440.0294 A0.5,0.5 0 1 0 355.72,439.1494 C355.38,438.9494 355.38,438.9494 354.88,438.9294 " fill="#000000" style="stroke:;stroke-width:0.0;stroke-dasharray:;"/><text fill="#000000" font-family="sans-serif" font-size="11" font-style="italic" lengthAdjust="spacing" textLength="103" x="363" y="445.1924">experiment_setup_id</text><path d="M356.88,450.4753 C356.7,450.4853 356.52,450.5053 356.35,450.5653 C356.08,450.6653 355.82,450.8153 355.6,451.0353 A0.5,0.5 0 1 0 356.29,451.7253 C356.4,451.6153 356.53,451.5553 356.67,451.5053 C357.02,451.3853 357.45,451.4353 357.73,451.7253 C358.12,452.1153 358.12,452.7653 357.73,453.1653 L356.23,454.6653 C355.79,455.1053 355.43,455.1453 355.17,455.1353 C354.91,455.1253 354.76,455.0053 354.76,455.0053 A0.5,0.5 0 1 0 354.26,455.8853 C354.6,456.1053 354.6,456.1053 355.1,456.1353 C355.6,456.1653 356.3,455.9753 356.91,455.3553 L358.41,453.8553 C359.19,453.0753 359.19,451.8153 358.41,451.0453 C358.13,450.7653 357.8,450.5953 357.44,450.5153 C357.26,450.4753 357.06,450.4753 356.88,450.4853 M354.88,452.7853 C354.38,452.7653 353.69,452.9353 353.1,453.5353 L351.6,455.0353 C350.82,455.8153 350.82,457.0753 351.6,457.8453 C352.16,458.4053 352.96,458.5653 353.66,458.3153 C353.93,458.2153 354.19,458.0653 354.41,457.8453 A0.5,0.5 0 1 0 353.72,457.1553 C353.61,457.2653 353.48,457.3253 353.34,457.3753 C352.99,457.4953 352.56,457.4453 352.28,457.1553 C351.89,456.7653 351.89,456.1153 352.28,455.7153 L353.78,454.2153 C354.18,453.8153 354.53,453.7653 354.81,453.7753 C355.09,453.7853 355.28,453.8653 355.28,453.8653 A0.5,0.5 0 1 0 355.72,452.9853 C355.38,452.7853 355.38,452.7853 354.88,452.7653 " fill="#000000" style="stroke:;stroke-width:0.0;stroke-dasharray:;"/><text fill="#000000" font-family="sans-serif" font-size="11" font-style="italic" lengthAdjust="spacing" textLength="116" x="363" y="459.0283">measurement_script_id</text><path d="M356.88,464.3113 C356.7,464.3213 356.52,464.3413 356.35,464.4013 C356.08,464.5013 355.82,464.6513 355.6,464.8713 A0.5,0.5 0 1 0 356.29,465.5613 C356.4,465.4513 356.53,465.3913 356.67,465.3413 C357.02,465.2213 357.45,465.2713 357.73,465.5613 C358.12,465.9513 358.12,466.6013 357.73,467.0013 L356.23,468.5013 C355.79,468.9413 355.43,468.9813 355.17,468.9713 C354.91,468.9613 354.76,468.8413 354.76,468.8413 A0.5,0.5 0 1 0 354.26,469.7213 C354.6,469.9413 354.6,469.9413 355.1,469.9713 C355.6,470.0013 356.3,469.8113 356.91,469.1913 L358.41,467.6913 C359.19,466.9113 359.19,465.6513 358.41,464.8813 C358.13,464.6013 357.8,464.4313 357.44,464.3513 C357.26,464.3113 357.06,464.3113 356.88,464.3213 M354.88,466.6213 C354.38,466.6013 353.69,466.7713 353.1,467.3713 L351.6,468.8713 C350.82,469.6513 350.82,470.9113 351.6,471.6813 C352.16,472.2413 352.96,472.4013 353.66,472.1513 C353.93,472.0513 354.19,471.9013 354.41,471.6813 A0.5,0.5 0 1 0 353.72,470.9913 C353.61,471.1013 353.48,471.1613 353.34,471.2113 C352.99,471.3313 352.56,471.2813 352.28,470.9913 C351.89,470.6013 351.89,469.9513 352.28,469.5513 L353.78,468.0513 C354.18,467.6513 354.53,467.6013 354.81,467.6113 C355.09,467.6213 355.28,467.7013 355.28,467.7013 A0.5,0.5 0 1 0 355.72,466.8213 C355.38,466.6213 355.38,466.6213 354.88,466.6013 " fill="#000000" style="stroke:;stroke-width:0.0;stroke-dasharray:;"/><text fill="#000000" font-family="sans-serif" font-size="11" font-style="italic" lengthAdjust="spacing" textLength="119" x="363" y="472.8643">measurement_series_id</text><path d="M356.88,478.1472 C356.7,478.1572 356.52,478.1772 356.35,478.2372 C356.08,478.3372 355.82,478.4872 355.6,478.7072 A0.5,0.5 0 1 0 356.29,479.3972 C356.4,479.2872 356.53,479.2272 356.67,479.1772 C357.02,479.0572 357.45,479.1072 357.73,479.3972 C358.12,479.7872 358.12,480.4372 357.73,480.8372 L356.23,482.3372 C355.79,482.7772 355.43,482.8172 355.17,482.8072 C354.91,482.7972 354.76,482.6772 354.76,482.6772 A0.5,0.5 0 1 0 354.26,483.5572 C354.6,483.7772 354.6,483.7772 355.1,483.8072 C355.6,483.8372 356.3,483.6472 356.91,483.0272 L358.41,481.5272 C359.19,480.7472 359.19,479.4872 358.41,478.7172 C358.13,478.4372 357.8,478.2672 357.44,478.1872 C357.26,478.1472 357.06,478.1472 356.88,478.1572 M354.88,480.4572 C354.38,480.4372 353.69,480.6072 353.1,481.2072 L351.6,482.7072 C350.82,483.4872 350.82,484.7472 351.6,485.5172 C352.16,486.0772 352.96,486.2372 353.66,485.9872 C353.93,485.8872 354.19,485.7372 354.41,485.5172 A0.5,0.5 0 1 0 353.72,484.8272 C353.61,484.9372 353.48,484.9972 353.34,485.0472 C352.99,485.1672 352.56,485.1172 352.28,484.8272 C351.89,484.4372 351.89,483.7872 352.28,483.3872 L353.78,481.8872 C354.18,481.4872 354.53,481.4372 354.81,481.4472 C355.09,481.4572 355.28,481.5372 355.28,481.5372 A0.5,0.5 0 1 0 355.72,480.6572 C355.38,480.4572 355.38,480.4572 354.88,480.4372 " fill="#000000" style="stroke:;stroke-width:0.0;stroke-dasharray:;"/><text fill="#000000" font-family="sans-serif" font-size="11" font-style="italic" lengthAdjust="spacing" textLength="118" x="363" y="486.7002">measurement_data_id []</text><line style="stroke:#A80036;stroke-width:1.0;" x1="345" x2="498" y1="493.1172" y2="493.1172"/><ellipse cx="355" cy="504.1172" fill="#000000" rx="3" ry="3" style="stroke:#000000;stroke-width:1.0;"/><text fill="#000000" font-family="sans-serif" font-size="11" lengthAdjust="spacing" textLength="48" x="364" y="508.5361">name : str</text><ellipse cx="355" cy="517.9531" fill="#000000" rx="3" ry="3" style="stroke:#000000;stroke-width:1.0;"/><text fill="#000000" font-family="sans-serif" font-size="11" lengthAdjust="spacing" textLength="70" x="364" y="522.3721">datetime : date</text><ellipse cx="355" cy="531.7891" fill="#000000" rx="3" ry="3" style="stroke:#000000;stroke-width:1.0;"/><text fill="#000000" font-family="sans-serif" font-size="11" lengthAdjust="spacing" textLength="44" x="364" y="536.208">user : str</text><ellipse cx="355" cy="545.625" fill="#000000" rx="3" ry="3" style="stroke:#000000;stroke-width:1.0;"/><text fill="#000000" font-family="sans-serif" font-size="11" lengthAdjust="spacing" textLength="51" x="364" y="550.0439">valid : bool</text><text fill="#000000" font-family="sans-serif" font-size="11" lengthAdjust="spacing" textLength="71" x="364" y="563.8799">comments : str</text><!--MD5=[c6c9b16a60a47eaa2e3e6090ea53670c]
class measData--><rect codeLine="34" fill="#FEFECE" filter="url(#f1jzq1swz6y3ss)" height="96.4375" id="measData" style="stroke:#A80036;stroke-width:1.5;" width="113" x="690" y="786.5"/><text fill="#000000" font-family="sans-serif" font-size="12" lengthAdjust="spacing" textLength="102" x="695.5" y="803.957">MeasurementData</text><line style="stroke:#A80036;stroke-width:1.5;" x1="691" x2="802" y1="811.5938" y2="811.5938"/><path d="M702.5,818.4297 C701.12,818.4297 700,819.5497 700,820.9297 C700,821.0897 700,821.2497 700.03,821.3997 L697,824.4297 L697,826.4297 L700,826.4297 L700,824.4297 L702,824.4297 L702,823.4297 L702.03,823.3997 C702.18,823.4297 702.34,823.4297 702.5,823.4297 C703.88,823.4297 705,822.3097 705,820.9297 C705,819.5497 703.88,818.4297 702.5,818.4297 M703,819.4297 C703.55,819.4297 704,819.8797 704,820.4297 C704,820.9797 703.55,821.4297 703,821.4297 C702.45,821.4297 702,820.9797 702,820.4297 C702,819.8797 702.45,819.4297 703,819.4297 " fill="#000000" style="stroke:;stroke-width:0.0;stroke-dasharray:;"/><text fill="#000000" font-family="sans-serif" font-size="11" font-weight="bold" lengthAdjust="spacing" textLength="10" x="709" y="827.0127">ID</text><line style="stroke:#A80036;stroke-width:1.0;" x1="691" x2="802" y1="833.4297" y2="833.4297"/><ellipse cx="701" cy="844.4297" fill="#000000" rx="3" ry="3" style="stroke:#000000;stroke-width:1.0;"/><text fill="#000000" font-family="sans-serif" font-size="11" lengthAdjust="spacing" textLength="48" x="710" y="848.8486">name : str</text><ellipse cx="701" cy="858.2656" fill="#000000" rx="3" ry="3" style="stroke:#000000;stroke-width:1.0;"/><text fill="#000000" font-family="sans-serif" font-size="11" lengthAdjust="spacing" textLength="70" x="710" y="862.6846">data_type : str</text><ellipse cx="701" cy="872.1016" fill="#000000" rx="3" ry="3" style="stroke:#000000;stroke-width:1.0;"/><text fill="#000000" font-family="sans-serif" font-size="11" lengthAdjust="spacing" textLength="87" x="710" y="876.5205">path_to_data : link</text><!--MD5=[9948edb7036b751a68bc7bbe2554e6ae]
class exp--><rect codeLine="42" fill="#FEFECE" filter="url(#f1jzq1swz6y3ss)" height="124.1094" id="exp" style="stroke:#A80036;stroke-width:1.5;" width="140" x="676.5" y="400.5"/><text fill="#000000" font-family="sans-serif" font-size="12" lengthAdjust="spacing" textLength="94" x="699.5" y="417.957">ExperimentSetup</text><line style="stroke:#A80036;stroke-width:1.5;" x1="677.5" x2="815.5" y1="425.5938" y2="425.5938"/><path d="M689,432.4297 C687.62,432.4297 686.5,433.5497 686.5,434.9297 C686.5,435.0897 686.5,435.2497 686.53,435.3997 L683.5,438.4297 L683.5,440.4297 L686.5,440.4297 L686.5,438.4297 L688.5,438.4297 L688.5,437.4297 L688.53,437.3997 C688.68,437.4297 688.84,437.4297 689,437.4297 C690.38,437.4297 691.5,436.3097 691.5,434.9297 C691.5,433.5497 690.38,432.4297 689,432.4297 M689.5,433.4297 C690.05,433.4297 690.5,433.8797 690.5,434.4297 C690.5,434.9797 690.05,435.4297 689.5,435.4297 C688.95,435.4297 688.5,434.9797 688.5,434.4297 C688.5,433.8797 688.95,433.4297 689.5,433.4297 " fill="#000000" style="stroke:;stroke-width:0.0;stroke-dasharray:;"/><text fill="#000000" font-family="sans-serif" font-size="11" font-weight="bold" lengthAdjust="spacing" textLength="10" x="695.5" y="441.0127">ID</text><line style="stroke:#A80036;stroke-width:1.0;" x1="677.5" x2="815.5" y1="447.4297" y2="447.4297"/><ellipse cx="687.5" cy="458.4297" fill="#000000" rx="3" ry="3" style="stroke:#000000;stroke-width:1.0;"/><text fill="#000000" font-family="sans-serif" font-size="11" lengthAdjust="spacing" textLength="48" x="696.5" y="462.8486">name : str</text><text fill="#000000" font-family="sans-serif" font-size="11" lengthAdjust="spacing" textLength="114" x="696.5" y="476.6846">temperature of cryostat</text><text fill="#000000" font-family="sans-serif" font-size="11" lengthAdjust="spacing" textLength="109" x="696.5" y="490.5205">instruments / channels</text><text fill="#000000" font-family="sans-serif" font-size="11" lengthAdjust="spacing" textLength="87" x="696.5" y="504.3564">standard_settings</text><text fill="#000000" font-family="sans-serif" font-size="11" lengthAdjust="spacing" textLength="27" x="696.5" y="518.1924">filters</text><!--MD5=[ce2dbb44b864ce744af2bc77dc8a129f]
class measScript--><rect codeLine="52" fill="#FEFECE" filter="url(#f1jzq1swz6y3ss)" height="96.4375" id="measScript" style="stroke:#A80036;stroke-width:1.5;" width="113" x="966" y="516.5"/><text fill="#000000" font-family="sans-serif" font-size="12" lengthAdjust="spacing" textLength="107" x="969" y="533.957">MeasurementScript</text><line style="stroke:#A80036;stroke-width:1.5;" x1="967" x2="1078" y1="541.5938" y2="541.5938"/><path d="M978.5,548.4297 C977.12,548.4297 976,549.5497 976,550.9297 C976,551.0897 976,551.2497 976.03,551.3997 L973,554.4297 L973,556.4297 L976,556.4297 L976,554.4297 L978,554.4297 L978,553.4297 L978.03,553.3997 C978.18,553.4297 978.34,553.4297 978.5,553.4297 C979.88,553.4297 981,552.3097 981,550.9297 C981,549.5497 979.88,548.4297 978.5,548.4297 M979,549.4297 C979.55,549.4297 980,549.8797 980,550.4297 C980,550.9797 979.55,551.4297 979,551.4297 C978.45,551.4297 978,550.9797 978,550.4297 C978,549.8797 978.45,549.4297 979,549.4297 " fill="#000000" style="stroke:;stroke-width:0.0;stroke-dasharray:;"/><text fill="#000000" font-family="sans-serif" font-size="11" font-weight="bold" lengthAdjust="spacing" textLength="10" x="985" y="557.0127">ID</text><line style="stroke:#A80036;stroke-width:1.0;" x1="967" x2="1078" y1="563.4297" y2="563.4297"/><ellipse cx="977" cy="574.4297" fill="#000000" rx="3" ry="3" style="stroke:#000000;stroke-width:1.0;"/><text fill="#000000" font-family="sans-serif" font-size="11" lengthAdjust="spacing" textLength="48" x="986" y="578.8486">name : str</text><text fill="#000000" font-family="sans-serif" font-size="11" lengthAdjust="spacing" textLength="66" x="986" y="592.6846">language : str</text><text fill="#000000" font-family="sans-serif" font-size="11" lengthAdjust="spacing" textLength="49" x="986" y="606.5205">script : str</text><!--MD5=[24d3c90cae9fb7f3a483f3d3fb7c994c]
class measSettings--><rect codeLine="60" fill="#FEFECE" filter="url(#f1jzq1swz6y3ss)" height="82.6016" id="measSettings" style="stroke:#A80036;stroke-width:1.5;" width="127" x="683" y="152.5"/><text fill="#000000" font-family="sans-serif" font-size="12" lengthAdjust="spacing" textLength="121" x="686" y="169.957">MeasurementSettings</text><line style="stroke:#A80036;stroke-width:1.5;" x1="684" x2="809" y1="177.5938" y2="177.5938"/><path d="M695.5,184.4297 C694.12,184.4297 693,185.5497 693,186.9297 C693,187.0897 693,187.2497 693.03,187.3997 L690,190.4297 L690,192.4297 L693,192.4297 L693,190.4297 L695,190.4297 L695,189.4297 L695.03,189.3997 C695.18,189.4297 695.34,189.4297 695.5,189.4297 C696.88,189.4297 698,188.3097 698,186.9297 C698,185.5497 696.88,184.4297 695.5,184.4297 M696,185.4297 C696.55,185.4297 697,185.8797 697,186.4297 C697,186.9797 696.55,187.4297 696,187.4297 C695.45,187.4297 695,186.9797 695,186.4297 C695,185.8797 695.45,185.4297 696,185.4297 " fill="#000000" style="stroke:;stroke-width:0.0;stroke-dasharray:;"/><text fill="#000000" font-family="sans-serif" font-size="11" font-weight="bold" lengthAdjust="spacing" textLength="10" x="702" y="193.0127">ID</text><line style="stroke:#A80036;stroke-width:1.0;" x1="684" x2="809" y1="199.4297" y2="199.4297"/><ellipse cx="694" cy="210.4297" fill="#000000" rx="3" ry="3" style="stroke:#000000;stroke-width:1.0;"/><text fill="#000000" font-family="sans-serif" font-size="11" lengthAdjust="spacing" textLength="48" x="703" y="214.8486">name : str</text><text fill="#000000" font-family="sans-serif" font-size="11" lengthAdjust="spacing" textLength="60" x="703" y="228.6846">settings : str</text><!--MD5=[d6a71860e4937011f1c5e0bbdf2e72b9]
class measMapping--><rect codeLine="67" fill="#FEFECE" filter="url(#f1jzq1swz6y3ss)" height="82.6016" id="measMapping" style="stroke:#A80036;stroke-width:1.5;" width="129" x="682" y="276.5"/><text fill="#000000" font-family="sans-serif" font-size="12" lengthAdjust="spacing" textLength="123" x="685" y="293.957">MeasurementMapping</text><line style="stroke:#A80036;stroke-width:1.5;" x1="683" x2="810" y1="301.5938" y2="301.5938"/><path d="M694.5,308.4297 C693.12,308.4297 692,309.5497 692,310.9297 C692,311.0897 692,311.2497 692.03,311.3997 L689,314.4297 L689,316.4297 L692,316.4297 L692,314.4297 L694,314.4297 L694,313.4297 L694.03,313.3997 C694.18,313.4297 694.34,313.4297 694.5,313.4297 C695.88,313.4297 697,312.3097 697,310.9297 C697,309.5497 695.88,308.4297 694.5,308.4297 M695,309.4297 C695.55,309.4297 696,309.8797 696,310.4297 C696,310.9797 695.55,311.4297 695,311.4297 C694.45,311.4297 694,310.9797 694,310.4297 C694,309.8797 694.45,309.4297 695,309.4297 " fill="#000000" style="stroke:;stroke-width:0.0;stroke-dasharray:;"/><text fill="#000000" font-family="sans-serif" font-size="11" font-weight="bold" lengthAdjust="spacing" textLength="10" x="701" y="317.0127">ID</text><line style="stroke:#A80036;stroke-width:1.0;" x1="683" x2="810" y1="323.4297" y2="323.4297"/><ellipse cx="693" cy="334.4297" fill="#000000" rx="3" ry="3" style="stroke:#000000;stroke-width:1.0;"/><text fill="#000000" font-family="sans-serif" font-size="11" lengthAdjust="spacing" textLength="48" x="702" y="338.8486">name : str</text><text fill="#000000" font-family="sans-serif" font-size="11" lengthAdjust="spacing" textLength="62" x="702" y="352.6846">mapping : str</text><!--MD5=[ea480f5b18a3fc6ed6268dcacbfb016a]
class measType--><rect codeLine="74" fill="#FEFECE" filter="url(#f1jzq1swz6y3ss)" height="104.4375" id="measType" style="stroke:#A80036;stroke-width:1.5;" width="163" x="665" y="7"/><text fill="#000000" font-family="sans-serif" font-size="12" lengthAdjust="spacing" textLength="102" x="695.5" y="24.457">MeasurementType</text><line style="stroke:#A80036;stroke-width:1.5;" x1="666" x2="827" y1="32.0938" y2="32.0938"/><path d="M677.5,38.9297 C676.12,38.9297 675,40.0497 675,41.4297 C675,41.5897 675,41.7497 675.03,41.8997 L672,44.9297 L672,46.9297 L675,46.9297 L675,44.9297 L677,44.9297 L677,43.9297 L677.03,43.8997 C677.18,43.9297 677.34,43.9297 677.5,43.9297 C678.88,43.9297 680,42.8097 680,41.4297 C680,40.0497 678.88,38.9297 677.5,38.9297 M678,39.9297 C678.55,39.9297 679,40.3797 679,40.9297 C679,41.4797 678.55,41.9297 678,41.9297 C677.45,41.9297 677,41.4797 677,40.9297 C677,40.3797 677.45,39.9297 678,39.9297 " fill="#000000" style="stroke:;stroke-width:0.0;stroke-dasharray:;"/><text fill="#000000" font-family="sans-serif" font-size="11" font-weight="bold" lengthAdjust="spacing" textLength="10" x="684" y="47.5127">ID</text><line style="stroke:#A80036;stroke-width:1.0;" x1="666" x2="827" y1="53.9297" y2="53.9297"/><path d="M677.88,60.7956 C677.7,60.8056 677.52,60.8256 677.35,60.8856 C677.08,60.9856 676.82,61.1356 676.6,61.3556 A0.5,0.5 0 1 0 677.29,62.0456 C677.4,61.9356 677.53,61.8756 677.67,61.8256 C678.02,61.7056 678.45,61.7556 678.73,62.0456 C679.12,62.4356 679.12,63.0856 678.73,63.4856 L677.23,64.9856 C676.79,65.4256 676.43,65.4656 676.17,65.4556 C675.91,65.4456 675.76,65.3256 675.76,65.3256 A0.5,0.5 0 1 0 675.26,66.2056 C675.6,66.4256 675.6,66.4256 676.1,66.4556 C676.6,66.4856 677.3,66.2956 677.91,65.6756 L679.41,64.1756 C680.19,63.3956 680.19,62.1356 679.41,61.3656 C679.13,61.0856 678.8,60.9156 678.44,60.8356 C678.26,60.7956 678.06,60.7956 677.88,60.8056 M675.88,63.1056 C675.38,63.0856 674.69,63.2556 674.1,63.8556 L672.6,65.3556 C671.82,66.1356 671.82,67.3956 672.6,68.1656 C673.16,68.7256 673.96,68.8856 674.66,68.6356 C674.93,68.5356 675.19,68.3856 675.41,68.1656 A0.5,0.5 0 1 0 674.72,67.4756 C674.61,67.5856 674.48,67.6456 674.34,67.6956 C673.99,67.8156 673.56,67.7656 673.28,67.4756 C672.89,67.0856 672.89,66.4356 673.28,66.0356 L674.78,64.5356 C675.18,64.1356 675.53,64.0856 675.81,64.0956 C676.09,64.1056 676.28,64.1856 676.28,64.1856 A0.5,0.5 0 1 0 676.72,63.3056 C676.38,63.1056 676.38,63.1056 675.88,63.0856 " fill="#000000" style="stroke:;stroke-width:0.0;stroke-dasharray:;"/><text fill="#000000" font-family="sans-serif" font-size="11" font-style="italic" lengthAdjust="spacing" textLength="106" x="684" y="69.3486">script_templates_id []</text><line style="stroke:#A80036;stroke-width:1.0;" x1="666" x2="827" y1="75.7656" y2="75.7656"/><ellipse cx="676" cy="86.7656" fill="#000000" rx="3" ry="3" style="stroke:#000000;stroke-width:1.0;"/><text fill="#000000" font-family="sans-serif" font-size="11" lengthAdjust="spacing" textLength="48" x="685" y="91.1846">name : str</text><text fill="#000000" font-family="sans-serif" font-size="11" lengthAdjust="spacing" textLength="137" x="685" y="105.0205">extractable_parameters : str</text><!--MD5=[9b73542b8fc41fff718487f4af8b17c6]
class analysis--><rect codeLine="97" fill="#FEFECE" filter="url(#f1jzq1swz6y3ss)" height="124.1094" id="analysis" style="stroke:#A80036;stroke-width:1.5;" width="98" x="372.5" y="605.5"/><text fill="#000000" font-family="sans-serif" font-size="12" lengthAdjust="spacing" textLength="46" x="398.5" y="622.957">Analysis</text><line style="stroke:#A80036;stroke-width:1.5;" x1="373.5" x2="469.5" y1="630.5938" y2="630.5938"/><path d="M385,637.4297 C383.62,637.4297 382.5,638.5497 382.5,639.9297 C382.5,640.0897 382.5,640.2497 382.53,640.3997 L379.5,643.4297 L379.5,645.4297 L382.5,645.4297 L382.5,643.4297 L384.5,643.4297 L384.5,642.4297 L384.53,642.3997 C384.68,642.4297 384.84,642.4297 385,642.4297 C386.38,642.4297 387.5,641.3097 387.5,639.9297 C387.5,638.5497 386.38,637.4297 385,637.4297 M385.5,638.4297 C386.05,638.4297 386.5,638.8797 386.5,639.4297 C386.5,639.9797 386.05,640.4297 385.5,640.4297 C384.95,640.4297 384.5,639.9797 384.5,639.4297 C384.5,638.8797 384.95,638.4297 385.5,638.4297 " fill="#000000" style="stroke:;stroke-width:0.0;stroke-dasharray:;"/><text fill="#000000" font-family="sans-serif" font-size="11" font-weight="bold" lengthAdjust="spacing" textLength="10" x="391.5" y="646.0127">ID</text><line style="stroke:#A80036;stroke-width:1.0;" x1="373.5" x2="469.5" y1="652.4297" y2="652.4297"/><ellipse cx="383.5" cy="663.4297" fill="#000000" rx="3" ry="3" style="stroke:#000000;stroke-width:1.0;"/><text fill="#000000" font-family="sans-serif" font-size="11" lengthAdjust="spacing" textLength="48" x="392.5" y="667.8486">name : str</text><text fill="#000000" font-family="sans-serif" font-size="11" lengthAdjust="spacing" textLength="35" x="392.5" y="681.6846">method</text><text fill="#000000" font-family="sans-serif" font-size="11" lengthAdjust="spacing" textLength="33" x="392.5" y="695.5205">results</text><text fill="#000000" font-family="sans-serif" font-size="11" lengthAdjust="spacing" textLength="27" x="392.5" y="709.3564">script</text><text fill="#000000" font-family="sans-serif" font-size="11" lengthAdjust="spacing" textLength="72" x="392.5" y="723.1924">software_filter</text><!--MD5=[95bc43d0acf383e27c96f5243c70d663]
class analysisResults--><rect codeLine="107" fill="#FEFECE" filter="url(#f1jzq1swz6y3ss)" height="118.2734" id="analysisResults" style="stroke:#A80036;stroke-width:1.5;" width="210" x="7" y="493.5"/><text fill="#000000" font-family="sans-serif" font-size="12" lengthAdjust="spacing" textLength="82" x="71" y="510.957">AnalysisResult</text><line style="stroke:#A80036;stroke-width:1.5;" x1="8" x2="216" y1="518.5938" y2="518.5938"/><path d="M19.5,525.4297 C18.12,525.4297 17,526.5497 17,527.9297 C17,528.0897 17,528.2497 17.03,528.3997 L14,531.4297 L14,533.4297 L17,533.4297 L17,531.4297 L19,531.4297 L19,530.4297 L19.03,530.3997 C19.18,530.4297 19.34,530.4297 19.5,530.4297 C20.88,530.4297 22,529.3097 22,527.9297 C22,526.5497 20.88,525.4297 19.5,525.4297 M20,526.4297 C20.55,526.4297 21,526.8797 21,527.4297 C21,527.9797 20.55,528.4297 20,528.4297 C19.45,528.4297 19,527.9797 19,527.4297 C19,526.8797 19.45,526.4297 20,526.4297 " fill="#000000" style="stroke:;stroke-width:0.0;stroke-dasharray:;"/><text fill="#000000" font-family="sans-serif" font-size="11" font-weight="bold" lengthAdjust="spacing" textLength="10" x="26" y="534.0127">ID</text><line style="stroke:#A80036;stroke-width:1.0;" x1="8" x2="216" y1="540.4297" y2="540.4297"/><path d="M19.88,547.2956 C19.7,547.3056 19.52,547.3256 19.35,547.3856 C19.08,547.4856 18.82,547.6356 18.6,547.8556 A0.5,0.5 0 1 0 19.29,548.5456 C19.4,548.4356 19.53,548.3756 19.67,548.3256 C20.02,548.2056 20.45,548.2556 20.73,548.5456 C21.12,548.9356 21.12,549.5856 20.73,549.9856 L19.23,551.4856 C18.79,551.9256 18.43,551.9656 18.17,551.9556 C17.91,551.9456 17.76,551.8256 17.76,551.8256 A0.5,0.5 0 1 0 17.26,552.7056 C17.6,552.9256 17.6,552.9256 18.1,552.9556 C18.6,552.9856 19.3,552.7956 19.91,552.1756 L21.41,550.6756 C22.19,549.8956 22.19,548.6356 21.41,547.8656 C21.13,547.5856 20.8,547.4156 20.44,547.3356 C20.26,547.2956 20.06,547.2956 19.88,547.3056 M17.88,549.6056 C17.38,549.5856 16.69,549.7556 16.1,550.3556 L14.6,551.8556 C13.82,552.6356 13.82,553.8956 14.6,554.6656 C15.16,555.2256 15.96,555.3856 16.66,555.1356 C16.93,555.0356 17.19,554.8856 17.41,554.6656 A0.5,0.5 0 1 0 16.72,553.9756 C16.61,554.0856 16.48,554.1456 16.34,554.1956 C15.99,554.3156 15.56,554.2656 15.28,553.9756 C14.89,553.5856 14.89,552.9356 15.28,552.5356 L16.78,551.0356 C17.18,550.6356 17.53,550.5856 17.81,550.5956 C18.09,550.6056 18.28,550.6856 18.28,550.6856 A0.5,0.5 0 1 0 18.72,549.8056 C18.38,549.6056 18.38,549.6056 17.88,549.5856 " fill="#000000" style="stroke:;stroke-width:0.0;stroke-dasharray:;"/><text fill="#000000" font-family="sans-serif" font-size="11" font-style="italic" lengthAdjust="spacing" textLength="82" x="26" y="555.8486">measurement_id</text><path d="M19.88,561.1316 C19.7,561.1416 19.52,561.1616 19.35,561.2216 C19.08,561.3216 18.82,561.4716 18.6,561.6916 A0.5,0.5 0 1 0 19.29,562.3816 C19.4,562.2716 19.53,562.2116 19.67,562.1616 C20.02,562.0416 20.45,562.0916 20.73,562.3816 C21.12,562.7716 21.12,563.4216 20.73,563.8216 L19.23,565.3216 C18.79,565.7616 18.43,565.8016 18.17,565.7916 C17.91,565.7816 17.76,565.6616 17.76,565.6616 A0.5,0.5 0 1 0 17.26,566.5416 C17.6,566.7616 17.6,566.7616 18.1,566.7916 C18.6,566.8216 19.3,566.6316 19.91,566.0116 L21.41,564.5116 C22.19,563.7316 22.19,562.4716 21.41,561.7016 C21.13,561.4216 20.8,561.2516 20.44,561.1716 C20.26,561.1316 20.06,561.1316 19.88,561.1416 M17.88,563.4416 C17.38,563.4216 16.69,563.5916 16.1,564.1916 L14.6,565.6916 C13.82,566.4716 13.82,567.7316 14.6,568.5016 C15.16,569.0616 15.96,569.2216 16.66,568.9716 C16.93,568.8716 17.19,568.7216 17.41,568.5016 A0.5,0.5 0 1 0 16.72,567.8116 C16.61,567.9216 16.48,567.9816 16.34,568.0316 C15.99,568.1516 15.56,568.1016 15.28,567.8116 C14.89,567.4216 14.89,566.7716 15.28,566.3716 L16.78,564.8716 C17.18,564.4716 17.53,564.4216 17.81,564.4316 C18.09,564.4416 18.28,564.5216 18.28,564.5216 A0.5,0.5 0 1 0 18.72,563.6416 C18.38,563.4416 18.38,563.4416 17.88,563.4216 " fill="#000000" style="stroke:;stroke-width:0.0;stroke-dasharray:;"/><text fill="#000000" font-family="sans-serif" font-size="11" font-style="italic" lengthAdjust="spacing" textLength="56" x="26" y="569.6846">analysis_id</text><line style="stroke:#A80036;stroke-width:1.0;" x1="8" x2="216" y1="576.1016" y2="576.1016"/><ellipse cx="18" cy="587.1016" fill="#000000" rx="3" ry="3" style="stroke:#000000;stroke-width:1.0;"/><text fill="#000000" font-family="sans-serif" font-size="11" lengthAdjust="spacing" textLength="48" x="27" y="591.5205">name : str</text><text fill="#000000" font-family="sans-serif" font-size="11" lengthAdjust="spacing" textLength="184" x="27" y="605.3564">extracted parameters and their values</text><!--MD5=[3b0bd8827ac148edd5c60e292573e3d7]
link measType to measScript--><path codeLine="83" d="M837.51,64.22 C1044.4,75.69 750.73,539.98 957.28,551.77 " fill="none" id="measType-measScript" style="stroke:#A80036;stroke-width:1.0;"/><line style="stroke:#A80036;stroke-width:1.0;" x1="957.5029" x2="965.6607" y1="551.7858" y2="546.0022"/><line style="stroke:#A80036;stroke-width:1.0;" x1="957.5029" x2="965.3393" y1="551.7858" y2="557.9978"/><line style="stroke:#A80036;stroke-width:1.0;" x1="957.5029" x2="965.5" y1="551.7858" y2="552"/><line style="stroke:#A80036;stroke-width:1.0;" x1="955.6107" x2="955.3965" y1="547.7337" y2="555.7308"/><line style="stroke:#A80036;stroke-width:1.0;" x1="837.4971" x2="829.3393" y1="64.2142" y2="69.9978"/><line style="stroke:#A80036;stroke-width:1.0;" x1="837.4971" x2="829.6607" y1="64.2142" y2="58.0022"/><line style="stroke:#A80036;stroke-width:1.0;" x1="837.4971" x2="829.5" y1="64.2142" y2="64"/><line style="stroke:#A80036;stroke-width:1.0;" x1="839.3893" x2="839.6035" y1="68.2663" y2="60.2692"/><polygon fill="#000000" points="872.1928,69.0314,872.8891,59.5464,867.1809,60.9486,872.1928,69.0314" style="stroke:#000000;stroke-width:1.0;"/><text fill="#000000" font-family="sans-serif" font-size="13" lengthAdjust="spacing" textLength="47" x="880" y="69.4951">provides</text><!--MD5=[c976b3d6580f64cbe8e4b7470a373fd0]
link meas to measSeries--><path codeLine="84" d="M508.62,463.53 C560.73,470.97 501.38,554.96 537,607 C580.85,671.07 602.48,709.25 676.23,711.86 " fill="none" id="meas-measSeries" style="stroke:#A80036;stroke-width:1.0;"/><line style="stroke:#A80036;stroke-width:1.0;" x1="680.5721" x2="680.4292" y1="707.9292" y2="715.9279"/><line style="stroke:#A80036;stroke-width:1.0;" x1="677.5725" x2="677.4297" y1="707.8757" y2="715.8744"/><line style="stroke:#A80036;stroke-width:1.0;" x1="676.5013" x2="684.5" y1="711.8572" y2="712"/><line style="stroke:#A80036;stroke-width:1.0;" x1="508.4825" x2="500.1037" y1="463.5284" y2="468.9869"/><line style="stroke:#A80036;stroke-width:1.0;" x1="508.4825" x2="500.8963" y1="463.5284" y2="457.0131"/><line style="stroke:#A80036;stroke-width:1.0;" x1="508.4825" x2="500.5" y1="463.5284" y2="463"/><line style="stroke:#A80036;stroke-width:1.0;" x1="510.214" x2="510.7423" y1="467.6517" y2="459.6692"/><!--MD5=[96141276677249c7ff3a54b75091e807]
link meas to measScript--><path codeLine="85" d="M508.73,450.28 C585.67,455.69 578.08,537.49 657,563 C784.87,604.34 826.59,554.14 957.18,552.07 " fill="none" id="meas-measScript" style="stroke:#A80036;stroke-width:1.0;"/><line style="stroke:#A80036;stroke-width:1.0;" x1="961.4715" x2="961.5287" y1="548.0287" y2="556.0285"/><line style="stroke:#A80036;stroke-width:1.0;" x1="958.4716" x2="958.5287" y1="548.0501" y2="556.0499"/><line style="stroke:#A80036;stroke-width:1.0;" x1="957.5002" x2="965.5" y1="552.0571" y2="552"/><line style="stroke:#A80036;stroke-width:1.0;" x1="508.4954" x2="500.2965" y1="450.2713" y2="455.9965"/><line style="stroke:#A80036;stroke-width:1.0;" x1="508.4954" x2="500.7035" y1="450.2713" y2="444.0035"/><line style="stroke:#A80036;stroke-width:1.0;" x1="508.4954" x2="500.5" y1="450.2713" y2="450"/><line style="stroke:#A80036;stroke-width:1.0;" x1="510.3586" x2="510.6299" y1="454.3368" y2="446.3414"/><polygon fill="#000000" points="734.876,555.2825,726.7058,550.4144,725.4047,556.1464,734.876,555.2825" style="stroke:#000000;stroke-width:1.0;"/><text fill="#000000" font-family="sans-serif" font-size="13" lengthAdjust="spacing" textLength="28" x="739" y="559.4951">uses</text><!--MD5=[55a2656e195254e10fab619bebf7af2e]
link meas to measType--><path codeLine="86" d="M508.34,395.26 C545.97,376.97 516.42,219.64 537,178 C572.5,106.19 581.09,46.11 656.49,42.2 " fill="none" id="meas-measType" style="stroke:#A80036;stroke-width:1.0;"/><line style="stroke:#A80036;stroke-width:1.0;" x1="660.4013" x2="660.6012" y1="38.1012" y2="46.0987"/><line style="stroke:#A80036;stroke-width:1.0;" x1="657.4022" x2="657.6022" y1="38.1762" y2="46.1737"/><line style="stroke:#A80036;stroke-width:1.0;" x1="656.5025" x2="664.5" y1="42.1999" y2="42"/><line style="stroke:#A80036;stroke-width:1.0;" x1="508.3082" x2="501.8061" y1="395.2585" y2="402.8561"/><line style="stroke:#A80036;stroke-width:1.0;" x1="508.3082" x2="499.1939" y1="395.2585" y2="391.1439"/><line style="stroke:#A80036;stroke-width:1.0;" x1="508.3082" x2="500.5" y1="395.2585" y2="397"/><line style="stroke:#A80036;stroke-width:1.0;" x1="511.1309" x2="509.3894" y1="398.7272" y2="390.9191"/><polygon fill="#000000" points="545.9347,34.5652,539.7248,41.7686,545.1448,44.043,545.9347,34.5652" style="stroke:#000000;stroke-width:1.0;"/><text fill="#000000" font-family="sans-serif" font-size="13" lengthAdjust="spacing" textLength="71" x="553" y="44.4951">according to</text><!--MD5=[cf4b2ba40924ee4ced4564d77d019192]
link meas to measSettings--><path codeLine="87" d="M508.7,408.99 C530.25,402.89 519.72,370.54 537,347 C592.01,272.04 587.06,192.79 674.34,188.21 " fill="none" id="meas-measSettings" style="stroke:#A80036;stroke-width:1.0;"/><line style="stroke:#A80036;stroke-width:1.0;" x1="678.4011" x2="678.6014" y1="184.1014" y2="192.0989"/><line style="stroke:#A80036;stroke-width:1.0;" x1="675.402" x2="675.6023" y1="184.1765" y2="192.174"/><line style="stroke:#A80036;stroke-width:1.0;" x1="674.5025" x2="682.5" y1="188.2003" y2="188"/><line style="stroke:#A80036;stroke-width:1.0;" x1="508.4408" x2="501.2284" y1="409.0288" y2="415.9556"/><line style="stroke:#A80036;stroke-width:1.0;" x1="508.4408" x2="499.7716" y1="409.0288" y2="404.0444"/><line style="stroke:#A80036;stroke-width:1.0;" x1="508.4408" x2="500.5" y1="409.0288" y2="410"/><line style="stroke:#A80036;stroke-width:1.0;" x1="510.9116" x2="509.9404" y1="412.7564" y2="404.8156"/><polygon fill="#000000" points="566.0006,191.1763,558.2216,196.6477,562.9233,200.1752,566.0006,191.1763" style="stroke:#000000;stroke-width:1.0;"/><text fill="#000000" font-family="sans-serif" font-size="13" lengthAdjust="spacing" textLength="33" x="572" y="200.4951">set to</text><!--MD5=[addf345781939c9daca8188cc0df2d38]
link meas to measMapping--><path codeLine="88" d="M508.58,422.04 C554.2,411.83 627.65,323.32 673.31,312.98 " fill="none" id="meas-measMapping" style="stroke:#A80036;stroke-width:1.0;"/><line style="stroke:#A80036;stroke-width:1.0;" x1="677.0502" x2="678.0073" y1="308.5073" y2="316.4498"/><line style="stroke:#A80036;stroke-width:1.0;" x1="674.0717" x2="675.0288" y1="308.8662" y2="316.8087"/><line style="stroke:#A80036;stroke-width:1.0;" x1="673.5575" x2="681.5" y1="312.9571" y2="312"/><line style="stroke:#A80036;stroke-width:1.0;" x1="508.4442" x2="501.2073" y1="422.057" y2="428.9582"/><line style="stroke:#A80036;stroke-width:1.0;" x1="508.4442" x2="499.7927" y1="422.057" y2="417.0418"/><line style="stroke:#A80036;stroke-width:1.0;" x1="508.4442" x2="500.5" y1="422.057" y2="423"/><line style="stroke:#A80036;stroke-width:1.0;" x1="510.9018" x2="509.9588" y1="425.7933" y2="417.8491"/><!--MD5=[3aef4c3917a061174ec392e07f8e054b]
link meas to exp--><path codeLine="89" d="M508.92,436 C577.17,436 599,436 667.38,436 " fill="none" id="meas-exp" style="stroke:#A80036;stroke-width:1.0;"/><line style="stroke:#A80036;stroke-width:1.0;" x1="671.5" x2="671.5" y1="432" y2="440"/><line style="stroke:#A80036;stroke-width:1.0;" x1="668.5" x2="668.5" y1="432" y2="440"/><line style="stroke:#A80036;stroke-width:1.0;" x1="667.5" x2="675.5" y1="436" y2="436"/><line style="stroke:#A80036;stroke-width:1.0;" x1="508.5" x2="500.5" y1="436" y2="442"/><line style="stroke:#A80036;stroke-width:1.0;" x1="508.5" x2="500.5" y1="436" y2="430"/><line style="stroke:#A80036;stroke-width:1.0;" x1="508.5" x2="500.5" y1="436" y2="436"/><line style="stroke:#A80036;stroke-width:1.0;" x1="510.5" x2="510.5" y1="440" y2="432"/><polygon fill="#000000" points="547,427.1758,537.9549,424.2369,537.9549,430.1147,547,427.1758" style="stroke:#000000;stroke-width:1.0;"/><text fill="#000000" font-family="sans-serif" font-size="13" lengthAdjust="spacing" textLength="75" x="551" y="432.4951">performed on</text><!--MD5=[ddc9b3f9ae88fc7479545fbe6af44769]
link meas to measData--><path codeLine="90" d="M508.55,477.65 C551.74,497.06 507.78,682.31 537,727 C579.16,791.49 607.59,819.97 681.26,821.9 " fill="none" id="meas-measData" style="stroke:#A80036;stroke-width:1.0;"/><line style="stroke:#A80036;stroke-width:1.0;" x1="681.5008" x2="689.5857" y1="821.8857" y2="816.0006"/><line style="stroke:#A80036;stroke-width:1.0;" x1="681.5008" x2="689.4143" y1="821.8857" y2="827.9994"/><line style="stroke:#A80036;stroke-width:1.0;" x1="681.5008" x2="689.5" y1="821.8857" y2="822"/><line style="stroke:#A80036;stroke-width:1.0;" x1="679.5582" x2="679.4439" y1="817.8576" y2="825.8567"/><line style="stroke:#A80036;stroke-width:1.0;" x1="503.6197" x2="505.2188" y1="480.7188" y2="472.8803"/><line style="stroke:#A80036;stroke-width:1.0;" x1="506.5592" x2="508.1583" y1="481.3185" y2="473.48"/><line style="stroke:#A80036;stroke-width:1.0;" x1="508.3385" x2="500.5" y1="477.5991" y2="476"/><polygon fill="#000000" points="553.2421,722.6449,551.8129,713.2423,546.5592,715.8781,553.2421,722.6449" style="stroke:#000000;stroke-width:1.0;"/><text fill="#000000" font-family="sans-serif" font-size="13" lengthAdjust="spacing" textLength="57" x="560" y="723.4951">measured</text><!--MD5=[958959ddfe58ac0eef772561c8ec1cf3]
link analysisResults to analysis--><path codeLine="118" d="M226.19,564.31 C291.82,569.4 297.63,635.52 363.2,640.68 " fill="none" id="analysisResults-analysis" style="stroke:#A80036;stroke-width:1.0;"/><line style="stroke:#A80036;stroke-width:1.0;" x1="367.653" x2="367.3527" y1="636.8527" y2="644.847"/><line style="stroke:#A80036;stroke-width:1.0;" x1="364.6551" x2="364.3548" y1="636.74" y2="644.7344"/><line style="stroke:#A80036;stroke-width:1.0;" x1="363.5056" x2="371.5" y1="640.6997" y2="641"/><line style="stroke:#A80036;stroke-width:1.0;" x1="225.9944" x2="217.7752" y1="564.2998" y2="569.9958"/><line style="stroke:#A80036;stroke-width:1.0;" x1="225.9944" x2="218.2248" y1="564.2998" y2="558.0042"/><line style="stroke:#A80036;stroke-width:1.0;" x1="225.9944" x2="218" y1="564.2998" y2="564"/><line style="stroke:#A80036;stroke-width:1.0;" x1="227.8431" x2="228.1429" y1="568.3719" y2="560.3775"/><polygon fill="#000000" points="264.3674,566.6102,257.8976,559.6393,255.0358,564.7734,264.3674,566.6102" style="stroke:#000000;stroke-width:1.0;"/><text fill="#000000" font-family="sans-serif" font-size="13" lengthAdjust="spacing" textLength="36" x="269" y="569.4951">due to</text><!--MD5=[3b7ee4b53f6c81168fac1e898d66a031]
link analysisResults to meas--><path codeLine="119" d="M226.09,549.56 C311.43,539.85 250.08,373.2 335.37,363.45 " fill="none" id="analysisResults-meas" style="stroke:#A80036;stroke-width:1.0;"/><line style="stroke:#A80036;stroke-width:1.0;" x1="339.2847" x2="339.7276" y1="359.2276" y2="367.2153"/><line style="stroke:#A80036;stroke-width:1.0;" x1="336.2893" x2="336.7322" y1="359.3937" y2="367.3815"/><line style="stroke:#A80036;stroke-width:1.0;" x1="335.5123" x2="343.5" y1="363.443" y2="363"/><line style="stroke:#A80036;stroke-width:1.0;" x1="225.9885" x2="218.3215" y1="549.5713" y2="555.9914"/><line style="stroke:#A80036;stroke-width:1.0;" x1="225.9885" x2="217.6785" y1="549.5713" y2="544.0086"/><line style="stroke:#A80036;stroke-width:1.0;" x1="225.9885" x2="218" y1="549.5713" y2="550"/><line style="stroke:#A80036;stroke-width:1.0;" x1="228.2" x2="227.7713" y1="553.4584" y2="545.4698"/><polygon fill="#000000" points="262.5317,365.8641,255.4175,372.1759,260.4861,375.1521,262.5317,365.8641" style="stroke:#000000;stroke-width:1.0;"/><text fill="#000000" font-family="sans-serif" font-size="13" lengthAdjust="spacing" textLength="36" x="269" y="375.4951">due to</text><!--MD5=[5d0a28214f93b0e2b02c5c66dbf6111a]
@startuml

!includesub ERD_head.puml!HEAD
!includesub ERD_head.puml!KEYS

!startsub MEASUREMENT

entity "MeasurementSeries" as measSeries {
    PK ID
    - -
    FK measurements_id []
    - -
    * name : str
}

entity "Measurement" as meas {
    PK ID
    - -
    FK device_id
    FK measurement_type_id
    FK measurement_settings_id
    FK measurement_mapping_id
    FK experiment_setup_id
    FK measurement_script_id
    FK measurement_series_id
    FK measurement_data_id []
    - -
    * name : str
    * datetime : date
    * user : str
    * valid : bool
    comments : str
}

entity "MeasurementData" as measData {
    PK ID
    - -
    * name : str
    * data_type : str
    * path_to_data : link
}

entity "ExperimentSetup" as exp {
    PK ID
    - -
    * name : str
    temperature of cryostat
    instruments / channels
    standard_settings
    filters
}

entity "MeasurementScript" as measScript {
    PK ID
    - -
    * name : str
    language : str
    script : str
}

entity "MeasurementSettings" as measSettings {
    PK ID
    - -
    * name : str
    settings : str
}

entity "MeasurementMapping" as measMapping {
    PK ID
    - -
    * name : str
    mapping : str
}

entity "MeasurementType" as measType {
    PK ID
    - -
    FK script_templates_id []
    - -
    * name : str
    extractable_parameters : str
}

measType::script_template }|- -|{ measScript::ID : provides >
meas::measurement_series_id }|- -|| measSeries::measurements_id
meas::script_id }|- -|| measScript::ID : uses >
meas::measurement_type_id }|- -|| measType::ID : according to >
meas::measurement_settings_id }|- -|| measSettings::ID : set to >
meas::measurement_mapping_id }|- -|| measMapping::ID
meas::experiment_setup_id }|- -|| exp::ID : performed on >
meas::measurement_data_id ||- -|{ measData::ID : measured >

!endsub MEASUREMENT


!startsub ANALYSIS

entity "Analysis" as analysis {
    PK ID
    - -
    * name : str
    method
    results
    script
    software_filter
}

entity "AnalysisResult" as analysisResults {
    ' ID resulting from analysis method and measurement ID?
    PK ID
    - -
    FK measurement_id
    FK analysis_id
    - -
    * name : str
    extracted parameters and their values
}

analysisResults::analysis_id }|- -|| analysis::ID : due to >
analysisResults::measurement_id }|- -|| meas::ID : due to >

!endsub ANALYSIS


@enduml

@startuml


left to right direction
hide circle





entity "MeasurementSeries" as measSeries {
    <size:12><&key></size><b> ID
    - -
    <size:12><&link-intact></size><i> measurements_id []
    - -
    * name : str
}

entity "Measurement" as meas {
    <size:12><&key></size><b> ID
    - -
    <size:12><&link-intact></size><i> device_id
    <size:12><&link-intact></size><i> measurement_type_id
    <size:12><&link-intact></size><i> measurement_settings_id
    <size:12><&link-intact></size><i> measurement_mapping_id
    <size:12><&link-intact></size><i> experiment_setup_id
    <size:12><&link-intact></size><i> measurement_script_id
    <size:12><&link-intact></size><i> measurement_series_id
    <size:12><&link-intact></size><i> measurement_data_id []
    - -
    * name : str
    * datetime : date
    * user : str
    * valid : bool
    comments : str
}

entity "MeasurementData" as measData {
    <size:12><&key></size><b> ID
    - -
    * name : str
    * data_type : str
    * path_to_data : link
}

entity "ExperimentSetup" as exp {
    <size:12><&key></size><b> ID
    - -
    * name : str
    temperature of cryostat
    instruments / channels
    standard_settings
    filters
}

entity "MeasurementScript" as measScript {
    <size:12><&key></size><b> ID
    - -
    * name : str
    language : str
    script : str
}

entity "MeasurementSettings" as measSettings {
    <size:12><&key></size><b> ID
    - -
    * name : str
    settings : str
}

entity "MeasurementMapping" as measMapping {
    <size:12><&key></size><b> ID
    - -
    * name : str
    mapping : str
}

entity "MeasurementType" as measType {
    <size:12><&key></size><b> ID
    - -
    <size:12><&link-intact></size><i> script_templates_id []
    - -
    * name : str
    extractable_parameters : str
}

measType::script_template }|- -|{ measScript::ID : provides >
meas::measurement_series_id }|- -|| measSeries::measurements_id
meas::script_id }|- -|| measScript::ID : uses >
meas::measurement_type_id }|- -|| measType::ID : according to >
meas::measurement_settings_id }|- -|| measSettings::ID : set to >
meas::measurement_mapping_id }|- -|| measMapping::ID
meas::experiment_setup_id }|- -|| exp::ID : performed on >
meas::measurement_data_id ||- -|{ measData::ID : measured >




entity "Analysis" as analysis {
    <size:12><&key></size><b> ID
    - -
    * name : str
    method
    results
    script
    software_filter
}

entity "AnalysisResult" as analysisResults {
    <size:12><&key></size><b> ID
    - -
    <size:12><&link-intact></size><i> measurement_id
    <size:12><&link-intact></size><i> analysis_id
    - -
    * name : str
    extracted parameters and their values
}

analysisResults::analysis_id }|- -|| analysis::ID : due to >
analysisResults::measurement_id }|- -|| meas::ID : due to >



@enduml

PlantUML version 1.2022.0(Tue Jan 11 17:16:42 CET 2022)
(GPL source distribution)
Java Runtime: OpenJDK Runtime Environment
JVM: OpenJDK 64-Bit Server VM
Default Encoding: Cp1252
Language: de
Country: DE
--></g></svg>
