<?xml version="1.0" encoding="UTF-8" standalone="no"?><svg xmlns="http://www.w3.org/2000/svg" xmlns:xlink="http://www.w3.org/1999/xlink" contentScriptType="application/ecmascript" contentStyleType="text/css" height="1549px" preserveAspectRatio="none" style="width:1091px;height:1549px;background:#FFFFFF;" version="1.1" viewBox="0 0 1091 1549" width="1091px" zoomAndPan="magnify"><defs><filter height="300%" id="frefunyed4sbe" width="300%" x="-1" y="-1"><feGaussianBlur result="blurOut" stdDeviation="2.0"/><feColorMatrix in="blurOut" result="blurOut2" type="matrix" values="0 0 0 0 0 0 0 0 0 0 0 0 0 0 0 0 0 0 .4 0"/><feOffset dx="4.0" dy="4.0" in="blurOut2" result="blurOut3"/><feBlend in="SourceGraphic" in2="blurOut3" mode="normal"/></filter></defs><g><!--MD5=[f7585ca0b1fb9716c5d2e99beede627f]
class wafer--><rect codeLine="9" fill="#FEFECE" filter="url(#frefunyed4sbe)" height="132.1094" id="wafer" style="stroke:#A80036;stroke-width:1.5;" width="104" x="60" y="7"/><text fill="#000000" font-family="sans-serif" font-size="12" lengthAdjust="spacing" textLength="32" x="96" y="24.457">Wafer</text><line style="stroke:#A80036;stroke-width:1.5;" x1="61" x2="163" y1="32.0938" y2="32.0938"/><path d="M72.5,38.9297 C71.12,38.9297 70,40.0497 70,41.4297 C70,41.5897 70,41.7497 70.03,41.8997 L67,44.9297 L67,46.9297 L70,46.9297 L70,44.9297 L72,44.9297 L72,43.9297 L72.03,43.8997 C72.18,43.9297 72.34,43.9297 72.5,43.9297 C73.88,43.9297 75,42.8097 75,41.4297 C75,40.0497 73.88,38.9297 72.5,38.9297 M73,39.9297 C73.55,39.9297 74,40.3797 74,40.9297 C74,41.4797 73.55,41.9297 73,41.9297 C72.45,41.9297 72,41.4797 72,40.9297 C72,40.3797 72.45,39.9297 73,39.9297 " fill="#000000" style="stroke:;stroke-width:0.0;stroke-dasharray:;"/><text fill="#000000" font-family="sans-serif" font-size="11" font-weight="bold" lengthAdjust="spacing" textLength="10" x="79" y="47.5127">ID</text><line style="stroke:#A80036;stroke-width:1.0;" x1="61" x2="163" y1="53.9297" y2="53.9297"/><path d="M72.88,60.7956 C72.7,60.8056 72.52,60.8256 72.35,60.8856 C72.08,60.9856 71.82,61.1356 71.6,61.3556 A0.5,0.5 0 1 0 72.29,62.0456 C72.4,61.9356 72.53,61.8756 72.67,61.8256 C73.02,61.7056 73.45,61.7556 73.73,62.0456 C74.12,62.4356 74.12,63.0856 73.73,63.4856 L72.23,64.9856 C71.79,65.4256 71.43,65.4656 71.17,65.4556 C70.91,65.4456 70.76,65.3256 70.76,65.3256 A0.5,0.5 0 1 0 70.26,66.2056 C70.6,66.4256 70.6,66.4256 71.1,66.4556 C71.6,66.4856 72.3,66.2956 72.91,65.6756 L74.41,64.1756 C75.19,63.3956 75.19,62.1356 74.41,61.3656 C74.13,61.0856 73.8,60.9156 73.44,60.8356 C73.26,60.7956 73.06,60.7956 72.88,60.8056 M70.88,63.1056 C70.38,63.0856 69.69,63.2556 69.1,63.8556 L67.6,65.3556 C66.82,66.1356 66.82,67.3956 67.6,68.1656 C68.16,68.7256 68.96,68.8856 69.66,68.6356 C69.93,68.5356 70.19,68.3856 70.41,68.1656 A0.5,0.5 0 1 0 69.72,67.4756 C69.61,67.5856 69.48,67.6456 69.34,67.6956 C68.99,67.8156 68.56,67.7656 68.28,67.4756 C67.89,67.0856 67.89,66.4356 68.28,66.0356 L69.78,64.5356 C70.18,64.1356 70.53,64.0856 70.81,64.0956 C71.09,64.1056 71.28,64.1856 71.28,64.1856 A0.5,0.5 0 1 0 71.72,63.3056 C71.38,63.1056 71.38,63.1056 70.88,63.0856 " fill="#000000" style="stroke:;stroke-width:0.0;stroke-dasharray:;"/><text fill="#000000" font-family="sans-serif" font-size="11" font-style="italic" lengthAdjust="spacing" textLength="48" x="79" y="69.3486">factory_id</text><line style="stroke:#A80036;stroke-width:1.0;" x1="61" x2="163" y1="75.7656" y2="75.7656"/><ellipse cx="71" cy="86.7656" fill="#000000" rx="3" ry="3" style="stroke:#000000;stroke-width:1.0;"/><text fill="#000000" font-family="sans-serif" font-size="11" lengthAdjust="spacing" textLength="26" x="80" y="91.1846">name</text><ellipse cx="71" cy="100.6016" fill="#000000" rx="3" ry="3" style="stroke:#000000;stroke-width:1.0;"/><text fill="#000000" font-family="sans-serif" font-size="11" lengthAdjust="spacing" textLength="78" x="80" y="105.0205">production_date</text><text fill="#000000" font-family="sans-serif" font-size="11" lengthAdjust="spacing" textLength="53" x="80" y="118.8564">description</text><text fill="#000000" font-family="sans-serif" font-size="11" lengthAdjust="spacing" textLength="29" x="80" y="132.6924">layout</text><!--MD5=[4ff43964c430846c98e016b63ddfc361]
class factory--><rect codeLine="20" fill="#FEFECE" filter="url(#frefunyed4sbe)" height="82.6016" id="factory" style="stroke:#A80036;stroke-width:1.5;" width="52" x="729.5" y="73.5"/><text fill="#000000" font-family="sans-serif" font-size="12" lengthAdjust="spacing" textLength="39" x="736" y="90.957">Factory</text><line style="stroke:#A80036;stroke-width:1.5;" x1="730.5" x2="780.5" y1="98.5938" y2="98.5938"/><path d="M742,105.4297 C740.62,105.4297 739.5,106.5497 739.5,107.9297 C739.5,108.0897 739.5,108.2497 739.53,108.3997 L736.5,111.4297 L736.5,113.4297 L739.5,113.4297 L739.5,111.4297 L741.5,111.4297 L741.5,110.4297 L741.53,110.3997 C741.68,110.4297 741.84,110.4297 742,110.4297 C743.38,110.4297 744.5,109.3097 744.5,107.9297 C744.5,106.5497 743.38,105.4297 742,105.4297 M742.5,106.4297 C743.05,106.4297 743.5,106.8797 743.5,107.4297 C743.5,107.9797 743.05,108.4297 742.5,108.4297 C741.95,108.4297 741.5,107.9797 741.5,107.4297 C741.5,106.8797 741.95,106.4297 742.5,106.4297 " fill="#000000" style="stroke:;stroke-width:0.0;stroke-dasharray:;"/><text fill="#000000" font-family="sans-serif" font-size="11" font-weight="bold" lengthAdjust="spacing" textLength="10" x="748.5" y="114.0127">ID</text><line style="stroke:#A80036;stroke-width:1.0;" x1="730.5" x2="780.5" y1="120.4297" y2="120.4297"/><ellipse cx="740.5" cy="131.4297" fill="#000000" rx="3" ry="3" style="stroke:#000000;stroke-width:1.0;"/><text fill="#000000" font-family="sans-serif" font-size="11" lengthAdjust="spacing" textLength="26" x="749.5" y="135.8486">name</text><text fill="#000000" font-family="sans-serif" font-size="11" lengthAdjust="spacing" textLength="0" x="752.5" y="149.6846"/><!--MD5=[feae7f6826fe1bf241773ea10c1cf353]
class sample--><rect codeLine="27" fill="#FEFECE" filter="url(#frefunyed4sbe)" height="145.9453" id="sample" style="stroke:#A80036;stroke-width:1.5;" width="79" x="392" y="156"/><text fill="#000000" font-family="sans-serif" font-size="12" lengthAdjust="spacing" textLength="43" x="410" y="173.457">Sample</text><line style="stroke:#A80036;stroke-width:1.5;" x1="393" x2="470" y1="181.0938" y2="181.0938"/><path d="M404.5,187.9297 C403.12,187.9297 402,189.0497 402,190.4297 C402,190.5897 402,190.7497 402.03,190.8997 L399,193.9297 L399,195.9297 L402,195.9297 L402,193.9297 L404,193.9297 L404,192.9297 L404.03,192.8997 C404.18,192.9297 404.34,192.9297 404.5,192.9297 C405.88,192.9297 407,191.8097 407,190.4297 C407,189.0497 405.88,187.9297 404.5,187.9297 M405,188.9297 C405.55,188.9297 406,189.3797 406,189.9297 C406,190.4797 405.55,190.9297 405,190.9297 C404.45,190.9297 404,190.4797 404,189.9297 C404,189.3797 404.45,188.9297 405,188.9297 " fill="#000000" style="stroke:;stroke-width:0.0;stroke-dasharray:;"/><text fill="#000000" font-family="sans-serif" font-size="11" font-weight="bold" lengthAdjust="spacing" textLength="10" x="411" y="196.5127">ID</text><line style="stroke:#A80036;stroke-width:1.0;" x1="393" x2="470" y1="202.9297" y2="202.9297"/><path d="M404.88,209.7956 C404.7,209.8056 404.52,209.8256 404.35,209.8856 C404.08,209.9856 403.82,210.1356 403.6,210.3556 A0.5,0.5 0 1 0 404.29,211.0456 C404.4,210.9356 404.53,210.8756 404.67,210.8256 C405.02,210.7056 405.45,210.7556 405.73,211.0456 C406.12,211.4356 406.12,212.0856 405.73,212.4856 L404.23,213.9856 C403.79,214.4256 403.43,214.4656 403.17,214.4556 C402.91,214.4456 402.76,214.3256 402.76,214.3256 A0.5,0.5 0 1 0 402.26,215.2056 C402.6,215.4256 402.6,215.4256 403.1,215.4556 C403.6,215.4856 404.3,215.2956 404.91,214.6756 L406.41,213.1756 C407.19,212.3956 407.19,211.1356 406.41,210.3656 C406.13,210.0856 405.8,209.9156 405.44,209.8356 C405.26,209.7956 405.06,209.7956 404.88,209.8056 M402.88,212.1056 C402.38,212.0856 401.69,212.2556 401.1,212.8556 L399.6,214.3556 C398.82,215.1356 398.82,216.3956 399.6,217.1656 C400.16,217.7256 400.96,217.8856 401.66,217.6356 C401.93,217.5356 402.19,217.3856 402.41,217.1656 A0.5,0.5 0 1 0 401.72,216.4756 C401.61,216.5856 401.48,216.6456 401.34,216.6956 C400.99,216.8156 400.56,216.7656 400.28,216.4756 C399.89,216.0856 399.89,215.4356 400.28,215.0356 L401.78,213.5356 C402.18,213.1356 402.53,213.0856 402.81,213.0956 C403.09,213.1056 403.28,213.1856 403.28,213.1856 A0.5,0.5 0 1 0 403.72,212.3056 C403.38,212.1056 403.38,212.1056 402.88,212.0856 " fill="#000000" style="stroke:;stroke-width:0.0;stroke-dasharray:;"/><text fill="#000000" font-family="sans-serif" font-size="11" font-style="italic" lengthAdjust="spacing" textLength="41" x="411" y="218.3486">wafer_id</text><path d="M404.88,223.6316 C404.7,223.6416 404.52,223.6616 404.35,223.7216 C404.08,223.8216 403.82,223.9716 403.6,224.1916 A0.5,0.5 0 1 0 404.29,224.8816 C404.4,224.7716 404.53,224.7116 404.67,224.6616 C405.02,224.5416 405.45,224.5916 405.73,224.8816 C406.12,225.2716 406.12,225.9216 405.73,226.3216 L404.23,227.8216 C403.79,228.2616 403.43,228.3016 403.17,228.2916 C402.91,228.2816 402.76,228.1616 402.76,228.1616 A0.5,0.5 0 1 0 402.26,229.0416 C402.6,229.2616 402.6,229.2616 403.1,229.2916 C403.6,229.3216 404.3,229.1316 404.91,228.5116 L406.41,227.0116 C407.19,226.2316 407.19,224.9716 406.41,224.2016 C406.13,223.9216 405.8,223.7516 405.44,223.6716 C405.26,223.6316 405.06,223.6316 404.88,223.6416 M402.88,225.9416 C402.38,225.9216 401.69,226.0916 401.1,226.6916 L399.6,228.1916 C398.82,228.9716 398.82,230.2316 399.6,231.0016 C400.16,231.5616 400.96,231.7216 401.66,231.4716 C401.93,231.3716 402.19,231.2216 402.41,231.0016 A0.5,0.5 0 1 0 401.72,230.3116 C401.61,230.4216 401.48,230.4816 401.34,230.5316 C400.99,230.6516 400.56,230.6016 400.28,230.3116 C399.89,229.9216 399.89,229.2716 400.28,228.8716 L401.78,227.3716 C402.18,226.9716 402.53,226.9216 402.81,226.9316 C403.09,226.9416 403.28,227.0216 403.28,227.0216 A0.5,0.5 0 1 0 403.72,226.1416 C403.38,225.9416 403.38,225.9416 402.88,225.9216 " fill="#000000" style="stroke:;stroke-width:0.0;stroke-dasharray:;"/><text fill="#000000" font-family="sans-serif" font-size="11" font-style="italic" lengthAdjust="spacing" textLength="48" x="411" y="232.1846">factory_id</text><path d="M404.88,237.4675 C404.7,237.4775 404.52,237.4975 404.35,237.5575 C404.08,237.6575 403.82,237.8075 403.6,238.0275 A0.5,0.5 0 1 0 404.29,238.7175 C404.4,238.6075 404.53,238.5475 404.67,238.4975 C405.02,238.3775 405.45,238.4275 405.73,238.7175 C406.12,239.1075 406.12,239.7575 405.73,240.1575 L404.23,241.6575 C403.79,242.0975 403.43,242.1375 403.17,242.1275 C402.91,242.1175 402.76,241.9975 402.76,241.9975 A0.5,0.5 0 1 0 402.26,242.8775 C402.6,243.0975 402.6,243.0975 403.1,243.1275 C403.6,243.1575 404.3,242.9675 404.91,242.3475 L406.41,240.8475 C407.19,240.0675 407.19,238.8075 406.41,238.0375 C406.13,237.7575 405.8,237.5875 405.44,237.5075 C405.26,237.4675 405.06,237.4675 404.88,237.4775 M402.88,239.7775 C402.38,239.7575 401.69,239.9275 401.1,240.5275 L399.6,242.0275 C398.82,242.8075 398.82,244.0675 399.6,244.8375 C400.16,245.3975 400.96,245.5575 401.66,245.3075 C401.93,245.2075 402.19,245.0575 402.41,244.8375 A0.5,0.5 0 1 0 401.72,244.1475 C401.61,244.2575 401.48,244.3175 401.34,244.3675 C400.99,244.4875 400.56,244.4375 400.28,244.1475 C399.89,243.7575 399.89,243.1075 400.28,242.7075 L401.78,241.2075 C402.18,240.8075 402.53,240.7575 402.81,240.7675 C403.09,240.7775 403.28,240.8575 403.28,240.8575 A0.5,0.5 0 1 0 403.72,239.9775 C403.38,239.7775 403.38,239.7775 402.88,239.7575 " fill="#000000" style="stroke:;stroke-width:0.0;stroke-dasharray:;"/><text fill="#000000" font-family="sans-serif" font-size="11" font-style="italic" lengthAdjust="spacing" textLength="44" x="411" y="246.0205">layout_id</text><line style="stroke:#A80036;stroke-width:1.0;" x1="393" x2="470" y1="252.4375" y2="252.4375"/><ellipse cx="403" cy="263.4375" fill="#000000" rx="3" ry="3" style="stroke:#000000;stroke-width:1.0;"/><text fill="#000000" font-family="sans-serif" font-size="11" lengthAdjust="spacing" textLength="26" x="412" y="267.8564">name</text><text fill="#000000" font-family="sans-serif" font-size="11" lengthAdjust="spacing" textLength="53" x="412" y="281.6924">description</text><text fill="#000000" font-family="sans-serif" font-size="11" lengthAdjust="spacing" textLength="35" x="412" y="295.5283">creator</text><!--MD5=[5eefcca8879b614446c793004d144c77]
class sampleLayout--><rect codeLine="39" fill="#FEFECE" filter="url(#frefunyed4sbe)" height="82.6016" id="sampleLayout" style="stroke:#A80036;stroke-width:1.5;" width="85" x="713" y="225.5"/><text fill="#000000" font-family="sans-serif" font-size="12" lengthAdjust="spacing" textLength="79" x="716" y="242.957">SampleLayout</text><line style="stroke:#A80036;stroke-width:1.5;" x1="714" x2="797" y1="250.5938" y2="250.5938"/><path d="M725.5,257.4297 C724.12,257.4297 723,258.5497 723,259.9297 C723,260.0897 723,260.2497 723.03,260.3997 L720,263.4297 L720,265.4297 L723,265.4297 L723,263.4297 L725,263.4297 L725,262.4297 L725.03,262.3997 C725.18,262.4297 725.34,262.4297 725.5,262.4297 C726.88,262.4297 728,261.3097 728,259.9297 C728,258.5497 726.88,257.4297 725.5,257.4297 M726,258.4297 C726.55,258.4297 727,258.8797 727,259.4297 C727,259.9797 726.55,260.4297 726,260.4297 C725.45,260.4297 725,259.9797 725,259.4297 C725,258.8797 725.45,258.4297 726,258.4297 " fill="#000000" style="stroke:;stroke-width:0.0;stroke-dasharray:;"/><text fill="#000000" font-family="sans-serif" font-size="11" font-weight="bold" lengthAdjust="spacing" textLength="10" x="732" y="266.0127">ID</text><line style="stroke:#A80036;stroke-width:1.0;" x1="714" x2="797" y1="272.4297" y2="272.4297"/><ellipse cx="724" cy="283.4297" fill="#000000" rx="3" ry="3" style="stroke:#000000;stroke-width:1.0;"/><text fill="#000000" font-family="sans-serif" font-size="11" lengthAdjust="spacing" textLength="26" x="733" y="287.8486">name</text><text fill="#000000" font-family="sans-serif" font-size="11" lengthAdjust="spacing" textLength="25" x="733" y="301.6846">mask</text><!--MD5=[83a79df82c2dbbe82307647156e04bb1]
class device--><rect codeLine="46" fill="#FEFECE" filter="url(#frefunyed4sbe)" height="132.1094" id="device" style="stroke:#A80036;stroke-width:1.5;" width="116" x="697.5" y="349.5"/><text fill="#000000" font-family="sans-serif" font-size="12" lengthAdjust="spacing" textLength="37" x="737" y="366.957">Device</text><line style="stroke:#A80036;stroke-width:1.5;" x1="698.5" x2="812.5" y1="374.5938" y2="374.5938"/><path d="M710,381.4297 C708.62,381.4297 707.5,382.5497 707.5,383.9297 C707.5,384.0897 707.5,384.2497 707.53,384.3997 L704.5,387.4297 L704.5,389.4297 L707.5,389.4297 L707.5,387.4297 L709.5,387.4297 L709.5,386.4297 L709.53,386.3997 C709.68,386.4297 709.84,386.4297 710,386.4297 C711.38,386.4297 712.5,385.3097 712.5,383.9297 C712.5,382.5497 711.38,381.4297 710,381.4297 M710.5,382.4297 C711.05,382.4297 711.5,382.8797 711.5,383.4297 C711.5,383.9797 711.05,384.4297 710.5,384.4297 C709.95,384.4297 709.5,383.9797 709.5,383.4297 C709.5,382.8797 709.95,382.4297 710.5,382.4297 " fill="#000000" style="stroke:;stroke-width:0.0;stroke-dasharray:;"/><text fill="#000000" font-family="sans-serif" font-size="11" font-weight="bold" lengthAdjust="spacing" textLength="10" x="716.5" y="390.0127">ID</text><line style="stroke:#A80036;stroke-width:1.0;" x1="698.5" x2="812.5" y1="396.4297" y2="396.4297"/><path d="M710.38,403.2956 C710.2,403.3056 710.02,403.3256 709.85,403.3856 C709.58,403.4856 709.32,403.6356 709.1,403.8556 A0.5,0.5 0 1 0 709.79,404.5456 C709.9,404.4356 710.03,404.3756 710.17,404.3256 C710.52,404.2056 710.95,404.2556 711.23,404.5456 C711.62,404.9356 711.62,405.5856 711.23,405.9856 L709.73,407.4856 C709.29,407.9256 708.93,407.9656 708.67,407.9556 C708.41,407.9456 708.26,407.8256 708.26,407.8256 A0.5,0.5 0 1 0 707.76,408.7056 C708.1,408.9256 708.1,408.9256 708.6,408.9556 C709.1,408.9856 709.8,408.7956 710.41,408.1756 L711.91,406.6756 C712.69,405.8956 712.69,404.6356 711.91,403.8656 C711.63,403.5856 711.3,403.4156 710.94,403.3356 C710.76,403.2956 710.56,403.2956 710.38,403.3056 M708.38,405.6056 C707.88,405.5856 707.19,405.7556 706.6,406.3556 L705.1,407.8556 C704.32,408.6356 704.32,409.8956 705.1,410.6656 C705.66,411.2256 706.46,411.3856 707.16,411.1356 C707.43,411.0356 707.69,410.8856 707.91,410.6656 A0.5,0.5 0 1 0 707.22,409.9756 C707.11,410.0856 706.98,410.1456 706.84,410.1956 C706.49,410.3156 706.06,410.2656 705.78,409.9756 C705.39,409.5856 705.39,408.9356 705.78,408.5356 L707.28,407.0356 C707.68,406.6356 708.03,406.5856 708.31,406.5956 C708.59,406.6056 708.78,406.6856 708.78,406.6856 A0.5,0.5 0 1 0 709.22,405.8056 C708.88,405.6056 708.88,405.6056 708.38,405.5856 " fill="#000000" style="stroke:;stroke-width:0.0;stroke-dasharray:;"/><text fill="#000000" font-family="sans-serif" font-size="11" font-style="italic" lengthAdjust="spacing" textLength="51" x="716.5" y="411.8486">sample_id</text><path d="M710.38,417.1316 C710.2,417.1416 710.02,417.1616 709.85,417.2216 C709.58,417.3216 709.32,417.4716 709.1,417.6916 A0.5,0.5 0 1 0 709.79,418.3816 C709.9,418.2716 710.03,418.2116 710.17,418.1616 C710.52,418.0416 710.95,418.0916 711.23,418.3816 C711.62,418.7716 711.62,419.4216 711.23,419.8216 L709.73,421.3216 C709.29,421.7616 708.93,421.8016 708.67,421.7916 C708.41,421.7816 708.26,421.6616 708.26,421.6616 A0.5,0.5 0 1 0 707.76,422.5416 C708.1,422.7616 708.1,422.7616 708.6,422.7916 C709.1,422.8216 709.8,422.6316 710.41,422.0116 L711.91,420.5116 C712.69,419.7316 712.69,418.4716 711.91,417.7016 C711.63,417.4216 711.3,417.2516 710.94,417.1716 C710.76,417.1316 710.56,417.1316 710.38,417.1416 M708.38,419.4416 C707.88,419.4216 707.19,419.5916 706.6,420.1916 L705.1,421.6916 C704.32,422.4716 704.32,423.7316 705.1,424.5016 C705.66,425.0616 706.46,425.2216 707.16,424.9716 C707.43,424.8716 707.69,424.7216 707.91,424.5016 A0.5,0.5 0 1 0 707.22,423.8116 C707.11,423.9216 706.98,423.9816 706.84,424.0316 C706.49,424.1516 706.06,424.1016 705.78,423.8116 C705.39,423.4216 705.39,422.7716 705.78,422.3716 L707.28,420.8716 C707.68,420.4716 708.03,420.4216 708.31,420.4316 C708.59,420.4416 708.78,420.5216 708.78,420.5216 A0.5,0.5 0 1 0 709.22,419.6416 C708.88,419.4416 708.88,419.4416 708.38,419.4216 " fill="#000000" style="stroke:;stroke-width:0.0;stroke-dasharray:;"/><text fill="#000000" font-family="sans-serif" font-size="11" font-style="italic" lengthAdjust="spacing" textLength="44" x="716.5" y="425.6846">layout_id</text><line style="stroke:#A80036;stroke-width:1.0;" x1="698.5" x2="812.5" y1="432.1016" y2="432.1016"/><ellipse cx="708.5" cy="443.1016" fill="#000000" rx="3" ry="3" style="stroke:#000000;stroke-width:1.0;"/><text fill="#000000" font-family="sans-serif" font-size="11" lengthAdjust="spacing" textLength="26" x="717.5" y="447.5205">name</text><text fill="#000000" font-family="sans-serif" font-size="11" lengthAdjust="spacing" textLength="53" x="717.5" y="461.3564">description</text><text fill="#000000" font-family="sans-serif" font-size="11" lengthAdjust="spacing" textLength="90" x="717.5" y="475.1924">layout_parameters</text><!--MD5=[96da207b98d527e8b4c96f6a2328d41d]
class deviceLayout--><rect codeLine="59" fill="#FEFECE" filter="url(#frefunyed4sbe)" height="132.1094" id="deviceLayout" style="stroke:#A80036;stroke-width:1.5;" width="79" x="392" y="438"/><text fill="#000000" font-family="sans-serif" font-size="12" lengthAdjust="spacing" textLength="73" x="395" y="455.457">DeviceLayout</text><line style="stroke:#A80036;stroke-width:1.5;" x1="393" x2="470" y1="463.0938" y2="463.0938"/><path d="M404.5,469.9297 C403.12,469.9297 402,471.0497 402,472.4297 C402,472.5897 402,472.7497 402.03,472.8997 L399,475.9297 L399,477.9297 L402,477.9297 L402,475.9297 L404,475.9297 L404,474.9297 L404.03,474.8997 C404.18,474.9297 404.34,474.9297 404.5,474.9297 C405.88,474.9297 407,473.8097 407,472.4297 C407,471.0497 405.88,469.9297 404.5,469.9297 M405,470.9297 C405.55,470.9297 406,471.3797 406,471.9297 C406,472.4797 405.55,472.9297 405,472.9297 C404.45,472.9297 404,472.4797 404,471.9297 C404,471.3797 404.45,470.9297 405,470.9297 " fill="#000000" style="stroke:;stroke-width:0.0;stroke-dasharray:;"/><text fill="#000000" font-family="sans-serif" font-size="11" font-weight="bold" lengthAdjust="spacing" textLength="10" x="411" y="478.5127">ID</text><line style="stroke:#A80036;stroke-width:1.0;" x1="393" x2="470" y1="484.9297" y2="484.9297"/><path d="M404.88,491.7956 C404.7,491.8056 404.52,491.8256 404.35,491.8856 C404.08,491.9856 403.82,492.1356 403.6,492.3556 A0.5,0.5 0 1 0 404.29,493.0456 C404.4,492.9356 404.53,492.8756 404.67,492.8256 C405.02,492.7056 405.45,492.7556 405.73,493.0456 C406.12,493.4356 406.12,494.0856 405.73,494.4856 L404.23,495.9856 C403.79,496.4256 403.43,496.4656 403.17,496.4556 C402.91,496.4456 402.76,496.3256 402.76,496.3256 A0.5,0.5 0 1 0 402.26,497.2056 C402.6,497.4256 402.6,497.4256 403.1,497.4556 C403.6,497.4856 404.3,497.2956 404.91,496.6756 L406.41,495.1756 C407.19,494.3956 407.19,493.1356 406.41,492.3656 C406.13,492.0856 405.8,491.9156 405.44,491.8356 C405.26,491.7956 405.06,491.7956 404.88,491.8056 M402.88,494.1056 C402.38,494.0856 401.69,494.2556 401.1,494.8556 L399.6,496.3556 C398.82,497.1356 398.82,498.3956 399.6,499.1656 C400.16,499.7256 400.96,499.8856 401.66,499.6356 C401.93,499.5356 402.19,499.3856 402.41,499.1656 A0.5,0.5 0 1 0 401.72,498.4756 C401.61,498.5856 401.48,498.6456 401.34,498.6956 C400.99,498.8156 400.56,498.7656 400.28,498.4756 C399.89,498.0856 399.89,497.4356 400.28,497.0356 L401.78,495.5356 C402.18,495.1356 402.53,495.0856 402.81,495.0956 C403.09,495.1056 403.28,495.1856 403.28,495.1856 A0.5,0.5 0 1 0 403.72,494.3056 C403.38,494.1056 403.38,494.1056 402.88,494.0856 " fill="#000000" style="stroke:;stroke-width:0.0;stroke-dasharray:;"/><text fill="#000000" font-family="sans-serif" font-size="11" font-style="italic" lengthAdjust="spacing" textLength="51" x="411" y="500.3486">gates_id []</text><line style="stroke:#A80036;stroke-width:1.0;" x1="393" x2="470" y1="506.7656" y2="506.7656"/><ellipse cx="403" cy="517.7656" fill="#000000" rx="3" ry="3" style="stroke:#000000;stroke-width:1.0;"/><text fill="#000000" font-family="sans-serif" font-size="11" lengthAdjust="spacing" textLength="26" x="412" y="522.1846">name</text><text fill="#000000" font-family="sans-serif" font-size="11" lengthAdjust="spacing" textLength="25" x="412" y="536.0205">mask</text><text fill="#000000" font-family="sans-serif" font-size="11" lengthAdjust="spacing" textLength="28" x="412" y="549.8564">image</text><text fill="#000000" font-family="sans-serif" font-size="11" lengthAdjust="spacing" textLength="35" x="412" y="563.6924">creator</text><!--MD5=[293d0db706edc5d6022f6996f047351c]
class gate--><rect codeLine="70" fill="#FEFECE" filter="url(#frefunyed4sbe)" height="96.4375" id="gate" style="stroke:#A80036;stroke-width:1.5;" width="65" x="723" y="521.5"/><text fill="#000000" font-family="sans-serif" font-size="12" lengthAdjust="spacing" textLength="26" x="742.5" y="538.957">Gate</text><line style="stroke:#A80036;stroke-width:1.5;" x1="724" x2="787" y1="546.5938" y2="546.5938"/><path d="M735.5,553.4297 C734.12,553.4297 733,554.5497 733,555.9297 C733,556.0897 733,556.2497 733.03,556.3997 L730,559.4297 L730,561.4297 L733,561.4297 L733,559.4297 L735,559.4297 L735,558.4297 L735.03,558.3997 C735.18,558.4297 735.34,558.4297 735.5,558.4297 C736.88,558.4297 738,557.3097 738,555.9297 C738,554.5497 736.88,553.4297 735.5,553.4297 M736,554.4297 C736.55,554.4297 737,554.8797 737,555.4297 C737,555.9797 736.55,556.4297 736,556.4297 C735.45,556.4297 735,555.9797 735,555.4297 C735,554.8797 735.45,554.4297 736,554.4297 " fill="#000000" style="stroke:;stroke-width:0.0;stroke-dasharray:;"/><text fill="#000000" font-family="sans-serif" font-size="11" font-weight="bold" lengthAdjust="spacing" textLength="10" x="742" y="562.0127">ID</text><line style="stroke:#A80036;stroke-width:1.0;" x1="724" x2="787" y1="568.4297" y2="568.4297"/><ellipse cx="734" cy="579.4297" fill="#000000" rx="3" ry="3" style="stroke:#000000;stroke-width:1.0;"/><text fill="#000000" font-family="sans-serif" font-size="11" lengthAdjust="spacing" textLength="26" x="743" y="583.8486">name</text><ellipse cx="734" cy="593.2656" fill="#000000" rx="3" ry="3" style="stroke:#000000;stroke-width:1.0;"/><text fill="#000000" font-family="sans-serif" font-size="11" lengthAdjust="spacing" textLength="39" x="743" y="597.6846">function</text><text fill="#000000" font-family="sans-serif" font-size="11" lengthAdjust="spacing" textLength="36" x="743" y="611.5205">number</text><!--MD5=[ad64a082a5719e7ab7338a9645b9e7b2]
class measSeries--><rect codeLine="78" fill="#FEFECE" filter="url(#frefunyed4sbe)" height="90.6016" id="measSeries" style="stroke:#A80036;stroke-width:1.5;" width="122" x="694.5" y="1308"/><text fill="#000000" font-family="sans-serif" font-size="12" lengthAdjust="spacing" textLength="112" x="699.5" y="1325.457">MeasurementSeries</text><line style="stroke:#A80036;stroke-width:1.5;" x1="695.5" x2="815.5" y1="1333.0938" y2="1333.0938"/><path d="M707,1339.9297 C705.62,1339.9297 704.5,1341.0497 704.5,1342.4297 C704.5,1342.5897 704.5,1342.7497 704.53,1342.8997 L701.5,1345.9297 L701.5,1347.9297 L704.5,1347.9297 L704.5,1345.9297 L706.5,1345.9297 L706.5,1344.9297 L706.53,1344.8997 C706.68,1344.9297 706.84,1344.9297 707,1344.9297 C708.38,1344.9297 709.5,1343.8097 709.5,1342.4297 C709.5,1341.0497 708.38,1339.9297 707,1339.9297 M707.5,1340.9297 C708.05,1340.9297 708.5,1341.3797 708.5,1341.9297 C708.5,1342.4797 708.05,1342.9297 707.5,1342.9297 C706.95,1342.9297 706.5,1342.4797 706.5,1341.9297 C706.5,1341.3797 706.95,1340.9297 707.5,1340.9297 " fill="#000000" style="stroke:;stroke-width:0.0;stroke-dasharray:;"/><text fill="#000000" font-family="sans-serif" font-size="11" font-weight="bold" lengthAdjust="spacing" textLength="10" x="713.5" y="1348.5127">ID</text><line style="stroke:#A80036;stroke-width:1.0;" x1="695.5" x2="815.5" y1="1354.9297" y2="1354.9297"/><path d="M707.38,1361.7956 C707.2,1361.8056 707.02,1361.8256 706.85,1361.8856 C706.58,1361.9856 706.32,1362.1356 706.1,1362.3556 A0.5,0.5 0 1 0 706.79,1363.0456 C706.9,1362.9356 707.03,1362.8756 707.17,1362.8256 C707.52,1362.7056 707.95,1362.7556 708.23,1363.0456 C708.62,1363.4356 708.62,1364.0856 708.23,1364.4856 L706.73,1365.9856 C706.29,1366.4256 705.93,1366.4656 705.67,1366.4556 C705.41,1366.4456 705.26,1366.3256 705.26,1366.3256 A0.5,0.5 0 1 0 704.76,1367.2056 C705.1,1367.4256 705.1,1367.4256 705.6,1367.4556 C706.1,1367.4856 706.8,1367.2956 707.41,1366.6756 L708.91,1365.1756 C709.69,1364.3956 709.69,1363.1356 708.91,1362.3656 C708.63,1362.0856 708.3,1361.9156 707.94,1361.8356 C707.76,1361.7956 707.56,1361.7956 707.38,1361.8056 M705.38,1364.1056 C704.88,1364.0856 704.19,1364.2556 703.6,1364.8556 L702.1,1366.3556 C701.32,1367.1356 701.32,1368.3956 702.1,1369.1656 C702.66,1369.7256 703.46,1369.8856 704.16,1369.6356 C704.43,1369.5356 704.69,1369.3856 704.91,1369.1656 A0.5,0.5 0 1 0 704.22,1368.4756 C704.11,1368.5856 703.98,1368.6456 703.84,1368.6956 C703.49,1368.8156 703.06,1368.7656 702.78,1368.4756 C702.39,1368.0856 702.39,1367.4356 702.78,1367.0356 L704.28,1365.5356 C704.68,1365.1356 705.03,1365.0856 705.31,1365.0956 C705.59,1365.1056 705.78,1365.1856 705.78,1365.1856 A0.5,0.5 0 1 0 706.22,1364.3056 C705.88,1364.1056 705.88,1364.1056 705.38,1364.0856 " fill="#000000" style="stroke:;stroke-width:0.0;stroke-dasharray:;"/><text fill="#000000" font-family="sans-serif" font-size="11" font-style="italic" lengthAdjust="spacing" textLength="97" x="713.5" y="1370.3486">measurements_id []</text><line style="stroke:#A80036;stroke-width:1.0;" x1="695.5" x2="815.5" y1="1376.7656" y2="1376.7656"/><ellipse cx="705.5" cy="1387.7656" fill="#000000" rx="3" ry="3" style="stroke:#000000;stroke-width:1.0;"/><text fill="#000000" font-family="sans-serif" font-size="11" lengthAdjust="spacing" textLength="26" x="714.5" y="1392.1846">name</text><!--MD5=[0cd9019e0ce44bea294eb214f5a5ddce]
class meas--><rect codeLine="86" fill="#FEFECE" filter="url(#frefunyed4sbe)" height="242.7969" id="meas" style="stroke:#A80036;stroke-width:1.5;" width="155" x="354" y="924.5"/><text fill="#000000" font-family="sans-serif" font-size="12" lengthAdjust="spacing" textLength="76" x="393.5" y="941.957">Measurement</text><line style="stroke:#A80036;stroke-width:1.5;" x1="355" x2="508" y1="949.5938" y2="949.5938"/><path d="M366.5,956.4297 C365.12,956.4297 364,957.5497 364,958.9297 C364,959.0897 364,959.2497 364.03,959.3997 L361,962.4297 L361,964.4297 L364,964.4297 L364,962.4297 L366,962.4297 L366,961.4297 L366.03,961.3997 C366.18,961.4297 366.34,961.4297 366.5,961.4297 C367.88,961.4297 369,960.3097 369,958.9297 C369,957.5497 367.88,956.4297 366.5,956.4297 M367,957.4297 C367.55,957.4297 368,957.8797 368,958.4297 C368,958.9797 367.55,959.4297 367,959.4297 C366.45,959.4297 366,958.9797 366,958.4297 C366,957.8797 366.45,957.4297 367,957.4297 " fill="#000000" style="stroke:;stroke-width:0.0;stroke-dasharray:;"/><text fill="#000000" font-family="sans-serif" font-size="11" font-weight="bold" lengthAdjust="spacing" textLength="10" x="373" y="965.0127">ID</text><line style="stroke:#A80036;stroke-width:1.0;" x1="355" x2="508" y1="971.4297" y2="971.4297"/><path d="M366.88,978.2956 C366.7,978.3056 366.52,978.3256 366.35,978.3856 C366.08,978.4856 365.82,978.6356 365.6,978.8556 A0.5,0.5 0 1 0 366.29,979.5456 C366.4,979.4356 366.53,979.3756 366.67,979.3256 C367.02,979.2056 367.45,979.2556 367.73,979.5456 C368.12,979.9356 368.12,980.5856 367.73,980.9856 L366.23,982.4856 C365.79,982.9256 365.43,982.9656 365.17,982.9556 C364.91,982.9456 364.76,982.8256 364.76,982.8256 A0.5,0.5 0 1 0 364.26,983.7056 C364.6,983.9256 364.6,983.9256 365.1,983.9556 C365.6,983.9856 366.3,983.7956 366.91,983.1756 L368.41,981.6756 C369.19,980.8956 369.19,979.6356 368.41,978.8656 C368.13,978.5856 367.8,978.4156 367.44,978.3356 C367.26,978.2956 367.06,978.2956 366.88,978.3056 M364.88,980.6056 C364.38,980.5856 363.69,980.7556 363.1,981.3556 L361.6,982.8556 C360.82,983.6356 360.82,984.8956 361.6,985.6656 C362.16,986.2256 362.96,986.3856 363.66,986.1356 C363.93,986.0356 364.19,985.8856 364.41,985.6656 A0.5,0.5 0 1 0 363.72,984.9756 C363.61,985.0856 363.48,985.1456 363.34,985.1956 C362.99,985.3156 362.56,985.2656 362.28,984.9756 C361.89,984.5856 361.89,983.9356 362.28,983.5356 L363.78,982.0356 C364.18,981.6356 364.53,981.5856 364.81,981.5956 C365.09,981.6056 365.28,981.6856 365.28,981.6856 A0.5,0.5 0 1 0 365.72,980.8056 C365.38,980.6056 365.38,980.6056 364.88,980.5856 " fill="#000000" style="stroke:;stroke-width:0.0;stroke-dasharray:;"/><text fill="#000000" font-family="sans-serif" font-size="11" font-style="italic" lengthAdjust="spacing" textLength="47" x="373" y="986.8486">device_id</text><path d="M366.88,992.1316 C366.7,992.1416 366.52,992.1616 366.35,992.2216 C366.08,992.3216 365.82,992.4716 365.6,992.6916 A0.5,0.5 0 1 0 366.29,993.3816 C366.4,993.2716 366.53,993.2116 366.67,993.1616 C367.02,993.0416 367.45,993.0916 367.73,993.3816 C368.12,993.7716 368.12,994.4216 367.73,994.8216 L366.23,996.3216 C365.79,996.7616 365.43,996.8016 365.17,996.7916 C364.91,996.7816 364.76,996.6616 364.76,996.6616 A0.5,0.5 0 1 0 364.26,997.5416 C364.6,997.7616 364.6,997.7616 365.1,997.7916 C365.6,997.8216 366.3,997.6316 366.91,997.0116 L368.41,995.5116 C369.19,994.7316 369.19,993.4716 368.41,992.7016 C368.13,992.4216 367.8,992.2516 367.44,992.1716 C367.26,992.1316 367.06,992.1316 366.88,992.1416 M364.88,994.4416 C364.38,994.4216 363.69,994.5916 363.1,995.1916 L361.6,996.6916 C360.82,997.4716 360.82,998.7316 361.6,999.5016 C362.16,1000.0616 362.96,1000.2216 363.66,999.9716 C363.93,999.8716 364.19,999.7216 364.41,999.5016 A0.5,0.5 0 1 0 363.72,998.8116 C363.61,998.9216 363.48,998.9816 363.34,999.0316 C362.99,999.1516 362.56,999.1016 362.28,998.8116 C361.89,998.4216 361.89,997.7716 362.28,997.3716 L363.78,995.8716 C364.18,995.4716 364.53,995.4216 364.81,995.4316 C365.09,995.4416 365.28,995.5216 365.28,995.5216 A0.5,0.5 0 1 0 365.72,994.6416 C365.38,994.4416 365.38,994.4416 364.88,994.4216 " fill="#000000" style="stroke:;stroke-width:0.0;stroke-dasharray:;"/><text fill="#000000" font-family="sans-serif" font-size="11" font-style="italic" lengthAdjust="spacing" textLength="108" x="373" y="1000.6846">measurement_type_id</text><path d="M366.88,1005.9675 C366.7,1005.9775 366.52,1005.9975 366.35,1006.0575 C366.08,1006.1575 365.82,1006.3075 365.6,1006.5275 A0.5,0.5 0 1 0 366.29,1007.2175 C366.4,1007.1075 366.53,1007.0475 366.67,1006.9975 C367.02,1006.8775 367.45,1006.9275 367.73,1007.2175 C368.12,1007.6075 368.12,1008.2575 367.73,1008.6575 L366.23,1010.1575 C365.79,1010.5975 365.43,1010.6375 365.17,1010.6275 C364.91,1010.6175 364.76,1010.4975 364.76,1010.4975 A0.5,0.5 0 1 0 364.26,1011.3775 C364.6,1011.5975 364.6,1011.5975 365.1,1011.6275 C365.6,1011.6575 366.3,1011.4675 366.91,1010.8475 L368.41,1009.3475 C369.19,1008.5675 369.19,1007.3075 368.41,1006.5375 C368.13,1006.2575 367.8,1006.0875 367.44,1006.0075 C367.26,1005.9675 367.06,1005.9675 366.88,1005.9775 M364.88,1008.2775 C364.38,1008.2575 363.69,1008.4275 363.1,1009.0275 L361.6,1010.5275 C360.82,1011.3075 360.82,1012.5675 361.6,1013.3375 C362.16,1013.8975 362.96,1014.0575 363.66,1013.8075 C363.93,1013.7075 364.19,1013.5575 364.41,1013.3375 A0.5,0.5 0 1 0 363.72,1012.6475 C363.61,1012.7575 363.48,1012.8175 363.34,1012.8675 C362.99,1012.9875 362.56,1012.9375 362.28,1012.6475 C361.89,1012.2575 361.89,1011.6075 362.28,1011.2075 L363.78,1009.7075 C364.18,1009.3075 364.53,1009.2575 364.81,1009.2675 C365.09,1009.2775 365.28,1009.3575 365.28,1009.3575 A0.5,0.5 0 1 0 365.72,1008.4775 C365.38,1008.2775 365.38,1008.2775 364.88,1008.2575 " fill="#000000" style="stroke:;stroke-width:0.0;stroke-dasharray:;"/><text fill="#000000" font-family="sans-serif" font-size="11" font-style="italic" lengthAdjust="spacing" textLength="127" x="373" y="1014.5205">measurement_settings_id</text><path d="M366.88,1019.8034 C366.7,1019.8134 366.52,1019.8334 366.35,1019.8934 C366.08,1019.9934 365.82,1020.1434 365.6,1020.3634 A0.5,0.5 0 1 0 366.29,1021.0534 C366.4,1020.9434 366.53,1020.8834 366.67,1020.8334 C367.02,1020.7134 367.45,1020.7634 367.73,1021.0534 C368.12,1021.4434 368.12,1022.0934 367.73,1022.4934 L366.23,1023.9934 C365.79,1024.4334 365.43,1024.4734 365.17,1024.4634 C364.91,1024.4534 364.76,1024.3334 364.76,1024.3334 A0.5,0.5 0 1 0 364.26,1025.2134 C364.6,1025.4334 364.6,1025.4334 365.1,1025.4634 C365.6,1025.4934 366.3,1025.3034 366.91,1024.6834 L368.41,1023.1834 C369.19,1022.4034 369.19,1021.1434 368.41,1020.3734 C368.13,1020.0934 367.8,1019.9234 367.44,1019.8434 C367.26,1019.8034 367.06,1019.8034 366.88,1019.8134 M364.88,1022.1134 C364.38,1022.0934 363.69,1022.2634 363.1,1022.8634 L361.6,1024.3634 C360.82,1025.1434 360.82,1026.4034 361.6,1027.1734 C362.16,1027.7334 362.96,1027.8934 363.66,1027.6434 C363.93,1027.5434 364.19,1027.3934 364.41,1027.1734 A0.5,0.5 0 1 0 363.72,1026.4834 C363.61,1026.5934 363.48,1026.6534 363.34,1026.7034 C362.99,1026.8234 362.56,1026.7734 362.28,1026.4834 C361.89,1026.0934 361.89,1025.4434 362.28,1025.0434 L363.78,1023.5434 C364.18,1023.1434 364.53,1023.0934 364.81,1023.1034 C365.09,1023.1134 365.28,1023.1934 365.28,1023.1934 A0.5,0.5 0 1 0 365.72,1022.3134 C365.38,1022.1134 365.38,1022.1134 364.88,1022.0934 " fill="#000000" style="stroke:;stroke-width:0.0;stroke-dasharray:;"/><text fill="#000000" font-family="sans-serif" font-size="11" font-style="italic" lengthAdjust="spacing" textLength="130" x="373" y="1028.3564">measurement_mapping_id</text><path d="M366.88,1033.6394 C366.7,1033.6494 366.52,1033.6694 366.35,1033.7294 C366.08,1033.8294 365.82,1033.9794 365.6,1034.1994 A0.5,0.5 0 1 0 366.29,1034.8894 C366.4,1034.7794 366.53,1034.7194 366.67,1034.6694 C367.02,1034.5494 367.45,1034.5994 367.73,1034.8894 C368.12,1035.2794 368.12,1035.9294 367.73,1036.3294 L366.23,1037.8294 C365.79,1038.2694 365.43,1038.3094 365.17,1038.2994 C364.91,1038.2894 364.76,1038.1694 364.76,1038.1694 A0.5,0.5 0 1 0 364.26,1039.0494 C364.6,1039.2694 364.6,1039.2694 365.1,1039.2994 C365.6,1039.3294 366.3,1039.1394 366.91,1038.5194 L368.41,1037.0194 C369.19,1036.2394 369.19,1034.9794 368.41,1034.2094 C368.13,1033.9294 367.8,1033.7594 367.44,1033.6794 C367.26,1033.6394 367.06,1033.6394 366.88,1033.6494 M364.88,1035.9494 C364.38,1035.9294 363.69,1036.0994 363.1,1036.6994 L361.6,1038.1994 C360.82,1038.9794 360.82,1040.2394 361.6,1041.0094 C362.16,1041.5694 362.96,1041.7294 363.66,1041.4794 C363.93,1041.3794 364.19,1041.2294 364.41,1041.0094 A0.5,0.5 0 1 0 363.72,1040.3194 C363.61,1040.4294 363.48,1040.4894 363.34,1040.5394 C362.99,1040.6594 362.56,1040.6094 362.28,1040.3194 C361.89,1039.9294 361.89,1039.2794 362.28,1038.8794 L363.78,1037.3794 C364.18,1036.9794 364.53,1036.9294 364.81,1036.9394 C365.09,1036.9494 365.28,1037.0294 365.28,1037.0294 A0.5,0.5 0 1 0 365.72,1036.1494 C365.38,1035.9494 365.38,1035.9494 364.88,1035.9294 " fill="#000000" style="stroke:;stroke-width:0.0;stroke-dasharray:;"/><text fill="#000000" font-family="sans-serif" font-size="11" font-style="italic" lengthAdjust="spacing" textLength="103" x="373" y="1042.1924">experiment_setup_id</text><path d="M366.88,1047.4753 C366.7,1047.4853 366.52,1047.5053 366.35,1047.5653 C366.08,1047.6653 365.82,1047.8153 365.6,1048.0353 A0.5,0.5 0 1 0 366.29,1048.7253 C366.4,1048.6153 366.53,1048.5553 366.67,1048.5053 C367.02,1048.3853 367.45,1048.4353 367.73,1048.7253 C368.12,1049.1153 368.12,1049.7653 367.73,1050.1653 L366.23,1051.6653 C365.79,1052.1053 365.43,1052.1453 365.17,1052.1353 C364.91,1052.1253 364.76,1052.0053 364.76,1052.0053 A0.5,0.5 0 1 0 364.26,1052.8853 C364.6,1053.1053 364.6,1053.1053 365.1,1053.1353 C365.6,1053.1653 366.3,1052.9753 366.91,1052.3553 L368.41,1050.8553 C369.19,1050.0753 369.19,1048.8153 368.41,1048.0453 C368.13,1047.7653 367.8,1047.5953 367.44,1047.5153 C367.26,1047.4753 367.06,1047.4753 366.88,1047.4853 M364.88,1049.7853 C364.38,1049.7653 363.69,1049.9353 363.1,1050.5353 L361.6,1052.0353 C360.82,1052.8153 360.82,1054.0753 361.6,1054.8453 C362.16,1055.4053 362.96,1055.5653 363.66,1055.3153 C363.93,1055.2153 364.19,1055.0653 364.41,1054.8453 A0.5,0.5 0 1 0 363.72,1054.1553 C363.61,1054.2653 363.48,1054.3253 363.34,1054.3753 C362.99,1054.4953 362.56,1054.4453 362.28,1054.1553 C361.89,1053.7653 361.89,1053.1153 362.28,1052.7153 L363.78,1051.2153 C364.18,1050.8153 364.53,1050.7653 364.81,1050.7753 C365.09,1050.7853 365.28,1050.8653 365.28,1050.8653 A0.5,0.5 0 1 0 365.72,1049.9853 C365.38,1049.7853 365.38,1049.7853 364.88,1049.7653 " fill="#000000" style="stroke:;stroke-width:0.0;stroke-dasharray:;"/><text fill="#000000" font-family="sans-serif" font-size="11" font-style="italic" lengthAdjust="spacing" textLength="43" x="373" y="1056.0283">script_id</text><path d="M366.88,1061.3113 C366.7,1061.3213 366.52,1061.3413 366.35,1061.4013 C366.08,1061.5013 365.82,1061.6513 365.6,1061.8713 A0.5,0.5 0 1 0 366.29,1062.5613 C366.4,1062.4513 366.53,1062.3913 366.67,1062.3413 C367.02,1062.2213 367.45,1062.2713 367.73,1062.5613 C368.12,1062.9513 368.12,1063.6013 367.73,1064.0013 L366.23,1065.5013 C365.79,1065.9413 365.43,1065.9813 365.17,1065.9713 C364.91,1065.9613 364.76,1065.8413 364.76,1065.8413 A0.5,0.5 0 1 0 364.26,1066.7213 C364.6,1066.9413 364.6,1066.9413 365.1,1066.9713 C365.6,1067.0013 366.3,1066.8113 366.91,1066.1913 L368.41,1064.6913 C369.19,1063.9113 369.19,1062.6513 368.41,1061.8813 C368.13,1061.6013 367.8,1061.4313 367.44,1061.3513 C367.26,1061.3113 367.06,1061.3113 366.88,1061.3213 M364.88,1063.6213 C364.38,1063.6013 363.69,1063.7713 363.1,1064.3713 L361.6,1065.8713 C360.82,1066.6513 360.82,1067.9113 361.6,1068.6813 C362.16,1069.2413 362.96,1069.4013 363.66,1069.1513 C363.93,1069.0513 364.19,1068.9013 364.41,1068.6813 A0.5,0.5 0 1 0 363.72,1067.9913 C363.61,1068.1013 363.48,1068.1613 363.34,1068.2113 C362.99,1068.3313 362.56,1068.2813 362.28,1067.9913 C361.89,1067.6013 361.89,1066.9513 362.28,1066.5513 L363.78,1065.0513 C364.18,1064.6513 364.53,1064.6013 364.81,1064.6113 C365.09,1064.6213 365.28,1064.7013 365.28,1064.7013 A0.5,0.5 0 1 0 365.72,1063.8213 C365.38,1063.6213 365.38,1063.6213 364.88,1063.6013 " fill="#000000" style="stroke:;stroke-width:0.0;stroke-dasharray:;"/><text fill="#000000" font-family="sans-serif" font-size="11" font-style="italic" lengthAdjust="spacing" textLength="119" x="373" y="1069.8643">measurement_series_id</text><path d="M366.88,1075.1472 C366.7,1075.1572 366.52,1075.1772 366.35,1075.2372 C366.08,1075.3372 365.82,1075.4872 365.6,1075.7072 A0.5,0.5 0 1 0 366.29,1076.3972 C366.4,1076.2872 366.53,1076.2272 366.67,1076.1772 C367.02,1076.0572 367.45,1076.1072 367.73,1076.3972 C368.12,1076.7872 368.12,1077.4372 367.73,1077.8372 L366.23,1079.3372 C365.79,1079.7772 365.43,1079.8172 365.17,1079.8072 C364.91,1079.7972 364.76,1079.6772 364.76,1079.6772 A0.5,0.5 0 1 0 364.26,1080.5572 C364.6,1080.7772 364.6,1080.7772 365.1,1080.8072 C365.6,1080.8372 366.3,1080.6472 366.91,1080.0272 L368.41,1078.5272 C369.19,1077.7472 369.19,1076.4872 368.41,1075.7172 C368.13,1075.4372 367.8,1075.2672 367.44,1075.1872 C367.26,1075.1472 367.06,1075.1472 366.88,1075.1572 M364.88,1077.4572 C364.38,1077.4372 363.69,1077.6072 363.1,1078.2072 L361.6,1079.7072 C360.82,1080.4872 360.82,1081.7472 361.6,1082.5172 C362.16,1083.0772 362.96,1083.2372 363.66,1082.9872 C363.93,1082.8872 364.19,1082.7372 364.41,1082.5172 A0.5,0.5 0 1 0 363.72,1081.8272 C363.61,1081.9372 363.48,1081.9972 363.34,1082.0472 C362.99,1082.1672 362.56,1082.1172 362.28,1081.8272 C361.89,1081.4372 361.89,1080.7872 362.28,1080.3872 L363.78,1078.8872 C364.18,1078.4872 364.53,1078.4372 364.81,1078.4472 C365.09,1078.4572 365.28,1078.5372 365.28,1078.5372 A0.5,0.5 0 1 0 365.72,1077.6572 C365.38,1077.4572 365.38,1077.4572 364.88,1077.4372 " fill="#000000" style="stroke:;stroke-width:0.0;stroke-dasharray:;"/><text fill="#000000" font-family="sans-serif" font-size="11" font-style="italic" lengthAdjust="spacing" textLength="118" x="373" y="1083.7002">measurement_data_id []</text><line style="stroke:#A80036;stroke-width:1.0;" x1="355" x2="508" y1="1090.1172" y2="1090.1172"/><ellipse cx="365" cy="1101.1172" fill="#000000" rx="3" ry="3" style="stroke:#000000;stroke-width:1.0;"/><text fill="#000000" font-family="sans-serif" font-size="11" lengthAdjust="spacing" textLength="26" x="374" y="1105.5361">name</text><ellipse cx="365" cy="1114.9531" fill="#000000" rx="3" ry="3" style="stroke:#000000;stroke-width:1.0;"/><text fill="#000000" font-family="sans-serif" font-size="11" lengthAdjust="spacing" textLength="40" x="374" y="1119.3721">datetime</text><ellipse cx="365" cy="1128.7891" fill="#000000" rx="3" ry="3" style="stroke:#000000;stroke-width:1.0;"/><text fill="#000000" font-family="sans-serif" font-size="11" lengthAdjust="spacing" textLength="22" x="374" y="1133.208">user</text><ellipse cx="365" cy="1142.625" fill="#000000" rx="3" ry="3" style="stroke:#000000;stroke-width:1.0;"/><text fill="#000000" font-family="sans-serif" font-size="11" lengthAdjust="spacing" textLength="22" x="374" y="1147.0439">valid</text><text fill="#000000" font-family="sans-serif" font-size="11" lengthAdjust="spacing" textLength="49" x="374" y="1160.8799">comments</text><!--MD5=[c6c9b16a60a47eaa2e3e6090ea53670c]
class measData--><rect codeLine="105" fill="#FEFECE" filter="url(#frefunyed4sbe)" height="96.4375" id="measData" style="stroke:#A80036;stroke-width:1.5;" width="108" x="701.5" y="1439.5"/><text fill="#000000" font-family="sans-serif" font-size="12" lengthAdjust="spacing" textLength="102" x="704.5" y="1456.957">MeasurementData</text><line style="stroke:#A80036;stroke-width:1.5;" x1="702.5" x2="808.5" y1="1464.5938" y2="1464.5938"/><path d="M714,1471.4297 C712.62,1471.4297 711.5,1472.5497 711.5,1473.9297 C711.5,1474.0897 711.5,1474.2497 711.53,1474.3997 L708.5,1477.4297 L708.5,1479.4297 L711.5,1479.4297 L711.5,1477.4297 L713.5,1477.4297 L713.5,1476.4297 L713.53,1476.3997 C713.68,1476.4297 713.84,1476.4297 714,1476.4297 C715.38,1476.4297 716.5,1475.3097 716.5,1473.9297 C716.5,1472.5497 715.38,1471.4297 714,1471.4297 M714.5,1472.4297 C715.05,1472.4297 715.5,1472.8797 715.5,1473.4297 C715.5,1473.9797 715.05,1474.4297 714.5,1474.4297 C713.95,1474.4297 713.5,1473.9797 713.5,1473.4297 C713.5,1472.8797 713.95,1472.4297 714.5,1472.4297 " fill="#000000" style="stroke:;stroke-width:0.0;stroke-dasharray:;"/><text fill="#000000" font-family="sans-serif" font-size="11" font-weight="bold" lengthAdjust="spacing" textLength="10" x="720.5" y="1480.0127">ID</text><line style="stroke:#A80036;stroke-width:1.0;" x1="702.5" x2="808.5" y1="1486.4297" y2="1486.4297"/><ellipse cx="712.5" cy="1497.4297" fill="#000000" rx="3" ry="3" style="stroke:#000000;stroke-width:1.0;"/><text fill="#000000" font-family="sans-serif" font-size="11" lengthAdjust="spacing" textLength="26" x="721.5" y="1501.8486">name</text><ellipse cx="712.5" cy="1511.2656" fill="#000000" rx="3" ry="3" style="stroke:#000000;stroke-width:1.0;"/><text fill="#000000" font-family="sans-serif" font-size="11" lengthAdjust="spacing" textLength="48" x="721.5" y="1515.6846">data_type</text><ellipse cx="712.5" cy="1525.1016" fill="#000000" rx="3" ry="3" style="stroke:#000000;stroke-width:1.0;"/><text fill="#000000" font-family="sans-serif" font-size="11" lengthAdjust="spacing" textLength="63" x="721.5" y="1529.5205">path_to_data</text><!--MD5=[9948edb7036b751a68bc7bbe2554e6ae]
class exp--><rect codeLine="113" fill="#FEFECE" filter="url(#frefunyed4sbe)" height="124.1094" id="exp" style="stroke:#A80036;stroke-width:1.5;" width="140" x="685.5" y="1053.5"/><text fill="#000000" font-family="sans-serif" font-size="12" lengthAdjust="spacing" textLength="94" x="708.5" y="1070.957">ExperimentSetup</text><line style="stroke:#A80036;stroke-width:1.5;" x1="686.5" x2="824.5" y1="1078.5938" y2="1078.5938"/><path d="M698,1085.4297 C696.62,1085.4297 695.5,1086.5497 695.5,1087.9297 C695.5,1088.0897 695.5,1088.2497 695.53,1088.3997 L692.5,1091.4297 L692.5,1093.4297 L695.5,1093.4297 L695.5,1091.4297 L697.5,1091.4297 L697.5,1090.4297 L697.53,1090.3997 C697.68,1090.4297 697.84,1090.4297 698,1090.4297 C699.38,1090.4297 700.5,1089.3097 700.5,1087.9297 C700.5,1086.5497 699.38,1085.4297 698,1085.4297 M698.5,1086.4297 C699.05,1086.4297 699.5,1086.8797 699.5,1087.4297 C699.5,1087.9797 699.05,1088.4297 698.5,1088.4297 C697.95,1088.4297 697.5,1087.9797 697.5,1087.4297 C697.5,1086.8797 697.95,1086.4297 698.5,1086.4297 " fill="#000000" style="stroke:;stroke-width:0.0;stroke-dasharray:;"/><text fill="#000000" font-family="sans-serif" font-size="11" font-weight="bold" lengthAdjust="spacing" textLength="10" x="704.5" y="1094.0127">ID</text><line style="stroke:#A80036;stroke-width:1.0;" x1="686.5" x2="824.5" y1="1100.4297" y2="1100.4297"/><ellipse cx="696.5" cy="1111.4297" fill="#000000" rx="3" ry="3" style="stroke:#000000;stroke-width:1.0;"/><text fill="#000000" font-family="sans-serif" font-size="11" lengthAdjust="spacing" textLength="26" x="705.5" y="1115.8486">name</text><text fill="#000000" font-family="sans-serif" font-size="11" lengthAdjust="spacing" textLength="114" x="705.5" y="1129.6846">temperature of cryostat</text><text fill="#000000" font-family="sans-serif" font-size="11" lengthAdjust="spacing" textLength="109" x="705.5" y="1143.5205">instruments / channels</text><text fill="#000000" font-family="sans-serif" font-size="11" lengthAdjust="spacing" textLength="87" x="705.5" y="1157.3564">standard_settings</text><text fill="#000000" font-family="sans-serif" font-size="11" lengthAdjust="spacing" textLength="27" x="705.5" y="1171.1924">filters</text><!--MD5=[ce2dbb44b864ce744af2bc77dc8a129f]
class measScript--><rect codeLine="123" fill="#FEFECE" filter="url(#frefunyed4sbe)" height="96.4375" id="measScript" style="stroke:#A80036;stroke-width:1.5;" width="113" x="964" y="1169.5"/><text fill="#000000" font-family="sans-serif" font-size="12" lengthAdjust="spacing" textLength="107" x="967" y="1186.957">MeasurementScript</text><line style="stroke:#A80036;stroke-width:1.5;" x1="965" x2="1076" y1="1194.5938" y2="1194.5938"/><path d="M976.5,1201.4297 C975.12,1201.4297 974,1202.5497 974,1203.9297 C974,1204.0897 974,1204.2497 974.03,1204.3997 L971,1207.4297 L971,1209.4297 L974,1209.4297 L974,1207.4297 L976,1207.4297 L976,1206.4297 L976.03,1206.3997 C976.18,1206.4297 976.34,1206.4297 976.5,1206.4297 C977.88,1206.4297 979,1205.3097 979,1203.9297 C979,1202.5497 977.88,1201.4297 976.5,1201.4297 M977,1202.4297 C977.55,1202.4297 978,1202.8797 978,1203.4297 C978,1203.9797 977.55,1204.4297 977,1204.4297 C976.45,1204.4297 976,1203.9797 976,1203.4297 C976,1202.8797 976.45,1202.4297 977,1202.4297 " fill="#000000" style="stroke:;stroke-width:0.0;stroke-dasharray:;"/><text fill="#000000" font-family="sans-serif" font-size="11" font-weight="bold" lengthAdjust="spacing" textLength="10" x="983" y="1210.0127">ID</text><line style="stroke:#A80036;stroke-width:1.0;" x1="965" x2="1076" y1="1216.4297" y2="1216.4297"/><ellipse cx="975" cy="1227.4297" fill="#000000" rx="3" ry="3" style="stroke:#000000;stroke-width:1.0;"/><text fill="#000000" font-family="sans-serif" font-size="11" lengthAdjust="spacing" textLength="26" x="984" y="1231.8486">name</text><text fill="#000000" font-family="sans-serif" font-size="11" lengthAdjust="spacing" textLength="44" x="984" y="1245.6846">language</text><text fill="#000000" font-family="sans-serif" font-size="11" lengthAdjust="spacing" textLength="27" x="984" y="1259.5205">script</text><!--MD5=[24d3c90cae9fb7f3a483f3d3fb7c994c]
class measSettings--><rect codeLine="131" fill="#FEFECE" filter="url(#frefunyed4sbe)" height="82.6016" id="measSettings" style="stroke:#A80036;stroke-width:1.5;" width="127" x="692" y="805.5"/><text fill="#000000" font-family="sans-serif" font-size="12" lengthAdjust="spacing" textLength="121" x="695" y="822.957">MeasurementSettings</text><line style="stroke:#A80036;stroke-width:1.5;" x1="693" x2="818" y1="830.5938" y2="830.5938"/><path d="M704.5,837.4297 C703.12,837.4297 702,838.5497 702,839.9297 C702,840.0897 702,840.2497 702.03,840.3997 L699,843.4297 L699,845.4297 L702,845.4297 L702,843.4297 L704,843.4297 L704,842.4297 L704.03,842.3997 C704.18,842.4297 704.34,842.4297 704.5,842.4297 C705.88,842.4297 707,841.3097 707,839.9297 C707,838.5497 705.88,837.4297 704.5,837.4297 M705,838.4297 C705.55,838.4297 706,838.8797 706,839.4297 C706,839.9797 705.55,840.4297 705,840.4297 C704.45,840.4297 704,839.9797 704,839.4297 C704,838.8797 704.45,838.4297 705,838.4297 " fill="#000000" style="stroke:;stroke-width:0.0;stroke-dasharray:;"/><text fill="#000000" font-family="sans-serif" font-size="11" font-weight="bold" lengthAdjust="spacing" textLength="10" x="711" y="846.0127">ID</text><line style="stroke:#A80036;stroke-width:1.0;" x1="693" x2="818" y1="852.4297" y2="852.4297"/><ellipse cx="703" cy="863.4297" fill="#000000" rx="3" ry="3" style="stroke:#000000;stroke-width:1.0;"/><text fill="#000000" font-family="sans-serif" font-size="11" lengthAdjust="spacing" textLength="26" x="712" y="867.8486">name</text><text fill="#000000" font-family="sans-serif" font-size="11" lengthAdjust="spacing" textLength="38" x="712" y="881.6846">settings</text><!--MD5=[d6a71860e4937011f1c5e0bbdf2e72b9]
class measMapping--><rect codeLine="138" fill="#FEFECE" filter="url(#frefunyed4sbe)" height="82.6016" id="measMapping" style="stroke:#A80036;stroke-width:1.5;" width="129" x="691" y="929.5"/><text fill="#000000" font-family="sans-serif" font-size="12" lengthAdjust="spacing" textLength="123" x="694" y="946.957">MeasurementMapping</text><line style="stroke:#A80036;stroke-width:1.5;" x1="692" x2="819" y1="954.5938" y2="954.5938"/><path d="M703.5,961.4297 C702.12,961.4297 701,962.5497 701,963.9297 C701,964.0897 701,964.2497 701.03,964.3997 L698,967.4297 L698,969.4297 L701,969.4297 L701,967.4297 L703,967.4297 L703,966.4297 L703.03,966.3997 C703.18,966.4297 703.34,966.4297 703.5,966.4297 C704.88,966.4297 706,965.3097 706,963.9297 C706,962.5497 704.88,961.4297 703.5,961.4297 M704,962.4297 C704.55,962.4297 705,962.8797 705,963.4297 C705,963.9797 704.55,964.4297 704,964.4297 C703.45,964.4297 703,963.9797 703,963.4297 C703,962.8797 703.45,962.4297 704,962.4297 " fill="#000000" style="stroke:;stroke-width:0.0;stroke-dasharray:;"/><text fill="#000000" font-family="sans-serif" font-size="11" font-weight="bold" lengthAdjust="spacing" textLength="10" x="710" y="970.0127">ID</text><line style="stroke:#A80036;stroke-width:1.0;" x1="692" x2="819" y1="976.4297" y2="976.4297"/><ellipse cx="702" cy="987.4297" fill="#000000" rx="3" ry="3" style="stroke:#000000;stroke-width:1.0;"/><text fill="#000000" font-family="sans-serif" font-size="11" lengthAdjust="spacing" textLength="26" x="711" y="991.8486">name</text><text fill="#000000" font-family="sans-serif" font-size="11" lengthAdjust="spacing" textLength="40" x="711" y="1005.6846">mapping</text><!--MD5=[ea480f5b18a3fc6ed6268dcacbfb016a]
class measType--><rect codeLine="145" fill="#FEFECE" filter="url(#frefunyed4sbe)" height="104.4375" id="measType" style="stroke:#A80036;stroke-width:1.5;" width="141" x="685" y="660"/><text fill="#000000" font-family="sans-serif" font-size="12" lengthAdjust="spacing" textLength="102" x="704.5" y="677.457">MeasurementType</text><line style="stroke:#A80036;stroke-width:1.5;" x1="686" x2="825" y1="685.0938" y2="685.0938"/><path d="M697.5,691.9297 C696.12,691.9297 695,693.0497 695,694.4297 C695,694.5897 695,694.7497 695.03,694.8997 L692,697.9297 L692,699.9297 L695,699.9297 L695,697.9297 L697,697.9297 L697,696.9297 L697.03,696.8997 C697.18,696.9297 697.34,696.9297 697.5,696.9297 C698.88,696.9297 700,695.8097 700,694.4297 C700,693.0497 698.88,691.9297 697.5,691.9297 M698,692.9297 C698.55,692.9297 699,693.3797 699,693.9297 C699,694.4797 698.55,694.9297 698,694.9297 C697.45,694.9297 697,694.4797 697,693.9297 C697,693.3797 697.45,692.9297 698,692.9297 " fill="#000000" style="stroke:;stroke-width:0.0;stroke-dasharray:;"/><text fill="#000000" font-family="sans-serif" font-size="11" font-weight="bold" lengthAdjust="spacing" textLength="10" x="704" y="700.5127">ID</text><line style="stroke:#A80036;stroke-width:1.0;" x1="686" x2="825" y1="706.9297" y2="706.9297"/><path d="M697.88,713.7956 C697.7,713.8056 697.52,713.8256 697.35,713.8856 C697.08,713.9856 696.82,714.1356 696.6,714.3556 A0.5,0.5 0 1 0 697.29,715.0456 C697.4,714.9356 697.53,714.8756 697.67,714.8256 C698.02,714.7056 698.45,714.7556 698.73,715.0456 C699.12,715.4356 699.12,716.0856 698.73,716.4856 L697.23,717.9856 C696.79,718.4256 696.43,718.4656 696.17,718.4556 C695.91,718.4456 695.76,718.3256 695.76,718.3256 A0.5,0.5 0 1 0 695.26,719.2056 C695.6,719.4256 695.6,719.4256 696.1,719.4556 C696.6,719.4856 697.3,719.2956 697.91,718.6756 L699.41,717.1756 C700.19,716.3956 700.19,715.1356 699.41,714.3656 C699.13,714.0856 698.8,713.9156 698.44,713.8356 C698.26,713.7956 698.06,713.7956 697.88,713.8056 M695.88,716.1056 C695.38,716.0856 694.69,716.2556 694.1,716.8556 L692.6,718.3556 C691.82,719.1356 691.82,720.3956 692.6,721.1656 C693.16,721.7256 693.96,721.8856 694.66,721.6356 C694.93,721.5356 695.19,721.3856 695.41,721.1656 A0.5,0.5 0 1 0 694.72,720.4756 C694.61,720.5856 694.48,720.6456 694.34,720.6956 C693.99,720.8156 693.56,720.7656 693.28,720.4756 C692.89,720.0856 692.89,719.4356 693.28,719.0356 L694.78,717.5356 C695.18,717.1356 695.53,717.0856 695.81,717.0956 C696.09,717.1056 696.28,717.1856 696.28,717.1856 A0.5,0.5 0 1 0 696.72,716.3056 C696.38,716.1056 696.38,716.1056 695.88,716.0856 " fill="#000000" style="stroke:;stroke-width:0.0;stroke-dasharray:;"/><text fill="#000000" font-family="sans-serif" font-size="11" font-style="italic" lengthAdjust="spacing" textLength="76" x="704" y="722.3486">script_template</text><line style="stroke:#A80036;stroke-width:1.0;" x1="686" x2="825" y1="728.7656" y2="728.7656"/><ellipse cx="696" cy="739.7656" fill="#000000" rx="3" ry="3" style="stroke:#000000;stroke-width:1.0;"/><text fill="#000000" font-family="sans-serif" font-size="11" lengthAdjust="spacing" textLength="26" x="705" y="744.1846">name</text><text fill="#000000" font-family="sans-serif" font-size="11" lengthAdjust="spacing" textLength="115" x="705" y="758.0205">extractable_parameters</text><!--MD5=[9b73542b8fc41fff718487f4af8b17c6]
class analysis--><rect codeLine="154" fill="#FEFECE" filter="url(#frefunyed4sbe)" height="124.1094" id="analysis" style="stroke:#A80036;stroke-width:1.5;" width="98" x="382.5" y="1202.5"/><text fill="#000000" font-family="sans-serif" font-size="12" lengthAdjust="spacing" textLength="46" x="408.5" y="1219.957">Analysis</text><line style="stroke:#A80036;stroke-width:1.5;" x1="383.5" x2="479.5" y1="1227.5938" y2="1227.5938"/><path d="M395,1234.4297 C393.62,1234.4297 392.5,1235.5497 392.5,1236.9297 C392.5,1237.0897 392.5,1237.2497 392.53,1237.3997 L389.5,1240.4297 L389.5,1242.4297 L392.5,1242.4297 L392.5,1240.4297 L394.5,1240.4297 L394.5,1239.4297 L394.53,1239.3997 C394.68,1239.4297 394.84,1239.4297 395,1239.4297 C396.38,1239.4297 397.5,1238.3097 397.5,1236.9297 C397.5,1235.5497 396.38,1234.4297 395,1234.4297 M395.5,1235.4297 C396.05,1235.4297 396.5,1235.8797 396.5,1236.4297 C396.5,1236.9797 396.05,1237.4297 395.5,1237.4297 C394.95,1237.4297 394.5,1236.9797 394.5,1236.4297 C394.5,1235.8797 394.95,1235.4297 395.5,1235.4297 " fill="#000000" style="stroke:;stroke-width:0.0;stroke-dasharray:;"/><text fill="#000000" font-family="sans-serif" font-size="11" font-weight="bold" lengthAdjust="spacing" textLength="10" x="401.5" y="1243.0127">ID</text><line style="stroke:#A80036;stroke-width:1.0;" x1="383.5" x2="479.5" y1="1249.4297" y2="1249.4297"/><ellipse cx="393.5" cy="1260.4297" fill="#000000" rx="3" ry="3" style="stroke:#000000;stroke-width:1.0;"/><text fill="#000000" font-family="sans-serif" font-size="11" lengthAdjust="spacing" textLength="26" x="402.5" y="1264.8486">name</text><text fill="#000000" font-family="sans-serif" font-size="11" lengthAdjust="spacing" textLength="35" x="402.5" y="1278.6846">method</text><text fill="#000000" font-family="sans-serif" font-size="11" lengthAdjust="spacing" textLength="33" x="402.5" y="1292.5205">results</text><text fill="#000000" font-family="sans-serif" font-size="11" lengthAdjust="spacing" textLength="27" x="402.5" y="1306.3564">script</text><text fill="#000000" font-family="sans-serif" font-size="11" lengthAdjust="spacing" textLength="72" x="402.5" y="1320.1924">software_filter</text><!--MD5=[95bc43d0acf383e27c96f5243c70d663]
class analysisResults--><rect codeLine="164" fill="#FEFECE" filter="url(#frefunyed4sbe)" height="118.2734" id="analysisResults" style="stroke:#A80036;stroke-width:1.5;" width="210" x="7" y="1101.5"/><text fill="#000000" font-family="sans-serif" font-size="12" lengthAdjust="spacing" textLength="89" x="67.5" y="1118.957">AnalysisResults</text><line style="stroke:#A80036;stroke-width:1.5;" x1="8" x2="216" y1="1126.5938" y2="1126.5938"/><path d="M19.5,1133.4297 C18.12,1133.4297 17,1134.5497 17,1135.9297 C17,1136.0897 17,1136.2497 17.03,1136.3997 L14,1139.4297 L14,1141.4297 L17,1141.4297 L17,1139.4297 L19,1139.4297 L19,1138.4297 L19.03,1138.3997 C19.18,1138.4297 19.34,1138.4297 19.5,1138.4297 C20.88,1138.4297 22,1137.3097 22,1135.9297 C22,1134.5497 20.88,1133.4297 19.5,1133.4297 M20,1134.4297 C20.55,1134.4297 21,1134.8797 21,1135.4297 C21,1135.9797 20.55,1136.4297 20,1136.4297 C19.45,1136.4297 19,1135.9797 19,1135.4297 C19,1134.8797 19.45,1134.4297 20,1134.4297 " fill="#000000" style="stroke:;stroke-width:0.0;stroke-dasharray:;"/><text fill="#000000" font-family="sans-serif" font-size="11" font-weight="bold" lengthAdjust="spacing" textLength="107" x="26" y="1142.0127">analysis_results_id</text><line style="stroke:#A80036;stroke-width:1.0;" x1="8" x2="216" y1="1148.4297" y2="1148.4297"/><path d="M19.88,1155.2956 C19.7,1155.3056 19.52,1155.3256 19.35,1155.3856 C19.08,1155.4856 18.82,1155.6356 18.6,1155.8556 A0.5,0.5 0 1 0 19.29,1156.5456 C19.4,1156.4356 19.53,1156.3756 19.67,1156.3256 C20.02,1156.2056 20.45,1156.2556 20.73,1156.5456 C21.12,1156.9356 21.12,1157.5856 20.73,1157.9856 L19.23,1159.4856 C18.79,1159.9256 18.43,1159.9656 18.17,1159.9556 C17.91,1159.9456 17.76,1159.8256 17.76,1159.8256 A0.5,0.5 0 1 0 17.26,1160.7056 C17.6,1160.9256 17.6,1160.9256 18.1,1160.9556 C18.6,1160.9856 19.3,1160.7956 19.91,1160.1756 L21.41,1158.6756 C22.19,1157.8956 22.19,1156.6356 21.41,1155.8656 C21.13,1155.5856 20.8,1155.4156 20.44,1155.3356 C20.26,1155.2956 20.06,1155.2956 19.88,1155.3056 M17.88,1157.6056 C17.38,1157.5856 16.69,1157.7556 16.1,1158.3556 L14.6,1159.8556 C13.82,1160.6356 13.82,1161.8956 14.6,1162.6656 C15.16,1163.2256 15.96,1163.3856 16.66,1163.1356 C16.93,1163.0356 17.19,1162.8856 17.41,1162.6656 A0.5,0.5 0 1 0 16.72,1161.9756 C16.61,1162.0856 16.48,1162.1456 16.34,1162.1956 C15.99,1162.3156 15.56,1162.2656 15.28,1161.9756 C14.89,1161.5856 14.89,1160.9356 15.28,1160.5356 L16.78,1159.0356 C17.18,1158.6356 17.53,1158.5856 17.81,1158.5956 C18.09,1158.6056 18.28,1158.6856 18.28,1158.6856 A0.5,0.5 0 1 0 18.72,1157.8056 C18.38,1157.6056 18.38,1157.6056 17.88,1157.5856 " fill="#000000" style="stroke:;stroke-width:0.0;stroke-dasharray:;"/><text fill="#000000" font-family="sans-serif" font-size="11" font-style="italic" lengthAdjust="spacing" textLength="82" x="26" y="1163.8486">measurement_id</text><path d="M19.88,1169.1316 C19.7,1169.1416 19.52,1169.1616 19.35,1169.2216 C19.08,1169.3216 18.82,1169.4716 18.6,1169.6916 A0.5,0.5 0 1 0 19.29,1170.3816 C19.4,1170.2716 19.53,1170.2116 19.67,1170.1616 C20.02,1170.0416 20.45,1170.0916 20.73,1170.3816 C21.12,1170.7716 21.12,1171.4216 20.73,1171.8216 L19.23,1173.3216 C18.79,1173.7616 18.43,1173.8016 18.17,1173.7916 C17.91,1173.7816 17.76,1173.6616 17.76,1173.6616 A0.5,0.5 0 1 0 17.26,1174.5416 C17.6,1174.7616 17.6,1174.7616 18.1,1174.7916 C18.6,1174.8216 19.3,1174.6316 19.91,1174.0116 L21.41,1172.5116 C22.19,1171.7316 22.19,1170.4716 21.41,1169.7016 C21.13,1169.4216 20.8,1169.2516 20.44,1169.1716 C20.26,1169.1316 20.06,1169.1316 19.88,1169.1416 M17.88,1171.4416 C17.38,1171.4216 16.69,1171.5916 16.1,1172.1916 L14.6,1173.6916 C13.82,1174.4716 13.82,1175.7316 14.6,1176.5016 C15.16,1177.0616 15.96,1177.2216 16.66,1176.9716 C16.93,1176.8716 17.19,1176.7216 17.41,1176.5016 A0.5,0.5 0 1 0 16.72,1175.8116 C16.61,1175.9216 16.48,1175.9816 16.34,1176.0316 C15.99,1176.1516 15.56,1176.1016 15.28,1175.8116 C14.89,1175.4216 14.89,1174.7716 15.28,1174.3716 L16.78,1172.8716 C17.18,1172.4716 17.53,1172.4216 17.81,1172.4316 C18.09,1172.4416 18.28,1172.5216 18.28,1172.5216 A0.5,0.5 0 1 0 18.72,1171.6416 C18.38,1171.4416 18.38,1171.4416 17.88,1171.4216 " fill="#000000" style="stroke:;stroke-width:0.0;stroke-dasharray:;"/><text fill="#000000" font-family="sans-serif" font-size="11" font-style="italic" lengthAdjust="spacing" textLength="56" x="26" y="1177.6846">analysis_id</text><line style="stroke:#A80036;stroke-width:1.0;" x1="8" x2="216" y1="1184.1016" y2="1184.1016"/><ellipse cx="18" cy="1195.1016" fill="#000000" rx="3" ry="3" style="stroke:#000000;stroke-width:1.0;"/><text fill="#000000" font-family="sans-serif" font-size="11" lengthAdjust="spacing" textLength="26" x="27" y="1199.5205">name</text><text fill="#000000" font-family="sans-serif" font-size="11" lengthAdjust="spacing" textLength="184" x="27" y="1213.3564">extracted parameters and their values</text><!--MD5=[15f713d0342201cfcc3c40616b1d12e2]
link wafer to sample--><path codeLine="183" d="M173.26,42.25 C287.19,49.39 269.35,204.78 383.42,211.76 " fill="none" id="wafer-sample" style="stroke:#A80036;stroke-width:1.0;"/><line style="stroke:#A80036;stroke-width:1.0;" x1="383.5037" x2="391.6821" y1="211.7573" y2="206.0028"/><line style="stroke:#A80036;stroke-width:1.0;" x1="383.5037" x2="391.3179" y1="211.7573" y2="217.9972"/><line style="stroke:#A80036;stroke-width:1.0;" x1="383.5037" x2="391.5" y1="211.7573" y2="212"/><line style="stroke:#A80036;stroke-width:1.0;" x1="381.626" x2="381.3832" y1="207.6984" y2="215.6947"/><line style="stroke:#A80036;stroke-width:1.0;" x1="168.8766" x2="169.1197" y1="46.1197" y2="38.1234"/><line style="stroke:#A80036;stroke-width:1.0;" x1="171.8752" x2="172.1184" y1="46.2109" y2="38.2146"/><line style="stroke:#A80036;stroke-width:1.0;" x1="172.9963" x2="165" y1="42.2432" y2="42"/><polygon fill="#000000" points="256.1082,81.0367,261.3035,89.0029,264.9936,84.4278,256.1082,81.0367" style="stroke:#000000;stroke-width:1.0;"/><text fill="#000000" font-family="sans-serif" font-size="13" lengthAdjust="spacing" textLength="46" x="269" y="89.4951">made of</text><!--MD5=[0e59b744b182324f2bffe1c5120d6abc]
link wafer to factory--><path codeLine="184" d="M173.03,63.02 C414.86,63.97 478.5,107.99 720.2,108.98 " fill="none" id="wafer-factory" style="stroke:#A80036;stroke-width:1.0;"/><line style="stroke:#A80036;stroke-width:1.0;" x1="724.5143" x2="724.4857" y1="104.9857" y2="112.9857"/><line style="stroke:#A80036;stroke-width:1.0;" x1="721.5143" x2="721.4858" y1="104.975" y2="112.975"/><line style="stroke:#A80036;stroke-width:1.0;" x1="720.5001" x2="728.5" y1="108.9714" y2="109"/><line style="stroke:#A80036;stroke-width:1.0;" x1="172.9999" x2="164.9786" y1="63.0286" y2="69"/><line style="stroke:#A80036;stroke-width:1.0;" x1="172.9999" x2="165.0214" y1="63.0286" y2="57"/><line style="stroke:#A80036;stroke-width:1.0;" x1="172.9999" x2="165" y1="63.0286" y2="63"/><line style="stroke:#A80036;stroke-width:1.0;" x1="174.9857" x2="175.0142" y1="67.0357" y2="59.0357"/><polygon fill="#000000" points="391.4825,64.5943,382.7151,60.9086,382.2231,66.7658,391.4825,64.5943" style="stroke:#000000;stroke-width:1.0;"/><text fill="#000000" font-family="sans-serif" font-size="13" lengthAdjust="spacing" textLength="85" x="395.5" y="69.4951">is produced by</text><!--MD5=[e2a2ea025c9cbe5e47e743e99f54ab8a]
link sample to device--><path codeLine="185" d="M480.54,190.8 C552.72,187.19 588.9,136.75 647,184 C723.21,245.97 602.61,397.11 688.46,405.63 " fill="none" id="sample-device" style="stroke:#A80036;stroke-width:1.0;"/><line style="stroke:#A80036;stroke-width:1.0;" x1="688.5086" x2="696.7788" y1="405.6283" y2="400.0065"/><line style="stroke:#A80036;stroke-width:1.0;" x1="688.5086" x2="696.2212" y1="405.6283" y2="411.9935"/><line style="stroke:#A80036;stroke-width:1.0;" x1="688.5086" x2="696.5" y1="405.6283" y2="406"/><line style="stroke:#A80036;stroke-width:1.0;" x1="686.6966" x2="686.325" y1="401.5397" y2="409.5311"/><line style="stroke:#A80036;stroke-width:1.0;" x1="476.5987" x2="476.3988" y1="194.8988" y2="186.9013"/><line style="stroke:#A80036;stroke-width:1.0;" x1="479.5978" x2="479.3978" y1="194.8238" y2="186.8263"/><line style="stroke:#A80036;stroke-width:1.0;" x1="480.4975" x2="472.5" y1="190.8001" y2="191"/><polygon fill="#000000" points="577.0227,151.5829,581.2014,160.1263,585.425,156.0386,577.0227,151.5829" style="stroke:#000000;stroke-width:1.0;"/><text fill="#000000" font-family="sans-serif" font-size="13" lengthAdjust="spacing" textLength="28" x="589.5" y="160.4951">is on</text><!--MD5=[20dfa17e4404b9aee9917eb8ca6ebe97]
link sample to factory--><path codeLine="186" d="M480.55,225.06 C552.51,226.18 580.59,241.44 647,206 C694.06,180.89 674.57,116.31 720.24,109.57 " fill="none" id="sample-factory" style="stroke:#A80036;stroke-width:1.0;"/><line style="stroke:#A80036;stroke-width:1.0;" x1="724.2379" x2="724.7805" y1="105.2805" y2="113.2621"/><line style="stroke:#A80036;stroke-width:1.0;" x1="721.2448" x2="721.7874" y1="105.484" y2="113.4655"/><line style="stroke:#A80036;stroke-width:1.0;" x1="720.5184" x2="728.5" y1="109.5426" y2="109"/><line style="stroke:#A80036;stroke-width:1.0;" x1="480.4998" x2="472.4571" y1="225.0571" y2="230.9998"/><line style="stroke:#A80036;stroke-width:1.0;" x1="480.4998" x2="472.5429" y1="225.0571" y2="219.0002"/><line style="stroke:#A80036;stroke-width:1.0;" x1="480.4998" x2="472.5" y1="225.0571" y2="225"/><line style="stroke:#A80036;stroke-width:1.0;" x1="482.4712" x2="482.5283" y1="229.0713" y2="221.0715"/><polygon fill="#000000" points="556.5044,195.0054,547.0802,196.284,549.6316,201.5793,556.5044,195.0054" style="stroke:#000000;stroke-width:1.0;"/><text fill="#000000" font-family="sans-serif" font-size="13" lengthAdjust="spacing" textLength="85" x="561" y="202.4951">is produced by</text><!--MD5=[bfee60eb236904afb5027cfddcbcec64]
link sample to sampleLayout--><path codeLine="187" d="M480.53,239.37 C508.46,242.09 515.36,258.83 547,264 C616.77,275.39 637.34,262.12 704.12,261.07 " fill="none" id="sample-sampleLayout" style="stroke:#A80036;stroke-width:1.0;"/><line style="stroke:#A80036;stroke-width:1.0;" x1="708.4715" x2="708.5287" y1="257.0287" y2="265.0285"/><line style="stroke:#A80036;stroke-width:1.0;" x1="705.4716" x2="705.5287" y1="257.0501" y2="265.0499"/><line style="stroke:#A80036;stroke-width:1.0;" x1="704.5002" x2="712.5" y1="261.0571" y2="261"/><line style="stroke:#A80036;stroke-width:1.0;" x1="480.4914" x2="472.2217" y1="239.371" y2="244.9935"/><line style="stroke:#A80036;stroke-width:1.0;" x1="480.4914" x2="472.7783" y1="239.371" y2="233.0065"/><line style="stroke:#A80036;stroke-width:1.0;" x1="480.4914" x2="472.5" y1="239.371" y2="239"/><line style="stroke:#A80036;stroke-width:1.0;" x1="482.3037" x2="482.6748" y1="243.4595" y2="235.4681"/><polygon fill="#000000" points="588.9766,255.6588,580.2577,251.8598,579.6899,257.7102,588.9766,255.6588" style="stroke:#000000;stroke-width:1.0;"/><text fill="#000000" font-family="sans-serif" font-size="13" lengthAdjust="spacing" textLength="21" x="593" y="260.4951">has</text><!--MD5=[b43127a3444c671885073759722b91aa]
link deviceLayout to device--><path codeLine="188" d="M480.71,472.88 C573.23,470.22 595.74,422.8 688.23,420.12 " fill="none" id="deviceLayout-device" style="stroke:#A80036;stroke-width:1.0;"/><line style="stroke:#A80036;stroke-width:1.0;" x1="688.5008" x2="696.4143" y1="420.1143" y2="414.0006"/><line style="stroke:#A80036;stroke-width:1.0;" x1="688.5008" x2="696.5857" y1="420.1143" y2="425.9994"/><line style="stroke:#A80036;stroke-width:1.0;" x1="688.5008" x2="696.5" y1="420.1143" y2="420"/><line style="stroke:#A80036;stroke-width:1.0;" x1="686.4439" x2="686.5582" y1="416.1433" y2="424.1424"/><line style="stroke:#A80036;stroke-width:1.0;" x1="476.5567" x2="476.4425" y1="476.9425" y2="468.9433"/><line style="stroke:#A80036;stroke-width:1.0;" x1="479.5564" x2="479.4421" y1="476.8996" y2="468.9004"/><line style="stroke:#A80036;stroke-width:1.0;" x1="480.4992" x2="472.5" y1="472.8857" y2="473"/><polygon fill="#000000" points="579.1542,417.4078,588.6445,418.0274,587.1962,412.3308,579.1542,417.4078" style="stroke:#000000;stroke-width:1.0;"/><text fill="#000000" font-family="sans-serif" font-size="13" lengthAdjust="spacing" textLength="21" x="593" y="421.4951">has</text><!--MD5=[453ca4f7ce1dac4d08d2583ba607c04e]
link deviceLayout to gate--><path codeLine="189" d="M480.57,494.6 C513.31,499.78 510.72,537.08 547,550 C617.95,575.28 642.7,558.29 714.46,557.07 " fill="none" id="deviceLayout-gate" style="stroke:#A80036;stroke-width:1.0;"/><line style="stroke:#A80036;stroke-width:1.0;" x1="714.5002" x2="722.4571" y1="557.0571" y2="551.0002"/><line style="stroke:#A80036;stroke-width:1.0;" x1="714.5002" x2="722.5429" y1="557.0571" y2="562.9998"/><line style="stroke:#A80036;stroke-width:1.0;" x1="714.5002" x2="722.5" y1="557.0571" y2="557"/><line style="stroke:#A80036;stroke-width:1.0;" x1="712.4717" x2="712.5288" y1="553.0715" y2="561.0713"/><line style="stroke:#A80036;stroke-width:1.0;" x1="476.1891" x2="476.7884" y1="498.2884" y2="490.3109"/><line style="stroke:#A80036;stroke-width:1.0;" x1="479.1806" x2="479.78" y1="498.5132" y2="490.5357"/><line style="stroke:#A80036;stroke-width:1.0;" x1="480.4775" x2="472.5" y1="494.5994" y2="494"/><polygon fill="#000000" points="588.8307,542.466,580.8503,537.2926,579.3335,542.9714,588.8307,542.466" style="stroke:#000000;stroke-width:1.0;"/><text fill="#000000" font-family="sans-serif" font-size="13" lengthAdjust="spacing" textLength="21" x="593" y="546.4951">has</text><!--MD5=[3b0bd8827ac148edd5c60e292573e3d7]
link measType to measScript--><path codeLine="190" d="M835.51,717.22 C1042.4,728.69 748.73,1192.98 955.28,1204.77 " fill="none" id="measType-measScript" style="stroke:#A80036;stroke-width:1.0;"/><line style="stroke:#A80036;stroke-width:1.0;" x1="955.5029" x2="963.6607" y1="1204.7858" y2="1199.0022"/><line style="stroke:#A80036;stroke-width:1.0;" x1="955.5029" x2="963.3393" y1="1204.7858" y2="1210.9978"/><line style="stroke:#A80036;stroke-width:1.0;" x1="955.5029" x2="963.5" y1="1204.7858" y2="1205"/><line style="stroke:#A80036;stroke-width:1.0;" x1="953.6107" x2="953.3965" y1="1200.7337" y2="1208.7308"/><line style="stroke:#A80036;stroke-width:1.0;" x1="835.4971" x2="827.3393" y1="717.2142" y2="722.9978"/><line style="stroke:#A80036;stroke-width:1.0;" x1="835.4971" x2="827.6607" y1="717.2142" y2="711.0022"/><line style="stroke:#A80036;stroke-width:1.0;" x1="835.4971" x2="827.5" y1="717.2142" y2="717"/><line style="stroke:#A80036;stroke-width:1.0;" x1="837.3893" x2="837.6035" y1="721.2663" y2="713.2692"/><polygon fill="#000000" points="870.1928,721.0314,870.8891,711.5464,865.1809,712.9486,870.1928,721.0314" style="stroke:#000000;stroke-width:1.0;"/><text fill="#000000" font-family="sans-serif" font-size="13" lengthAdjust="spacing" textLength="47" x="878" y="721.4951">provides</text><!--MD5=[c976b3d6580f64cbe8e4b7470a373fd0]
link meas to measSeries--><path codeLine="191" d="M518.51,1062.06 C551.57,1080.95 524.43,1224.37 547,1260 C588.36,1325.29 611.71,1362.34 685.26,1364.86 " fill="none" id="meas-measSeries" style="stroke:#A80036;stroke-width:1.0;"/><line style="stroke:#A80036;stroke-width:1.0;" x1="689.5721" x2="689.4292" y1="1360.9292" y2="1368.9279"/><line style="stroke:#A80036;stroke-width:1.0;" x1="686.5725" x2="686.4297" y1="1360.8757" y2="1368.8744"/><line style="stroke:#A80036;stroke-width:1.0;" x1="685.5013" x2="693.5" y1="1364.8572" y2="1365"/><line style="stroke:#A80036;stroke-width:1.0;" x1="518.2458" x2="508.9994" y1="1062.0008" y2="1065.8093"/><line style="stroke:#A80036;stroke-width:1.0;" x1="518.2458" x2="512.0006" y1="1062.0008" y2="1054.1907"/><line style="stroke:#A80036;stroke-width:1.0;" x1="518.2458" x2="510.5" y1="1062.0008" y2="1060"/><line style="stroke:#A80036;stroke-width:1.0;" x1="519.1818" x2="521.1826" y1="1066.3738" y2="1058.6281"/><!--MD5=[96141276677249c7ff3a54b75091e807]
link meas to measScript--><path codeLine="192" d="M518.71,1048.13 C533.81,1052.92 532.55,1071.94 547,1087 C603.34,1145.75 601.74,1185 677,1216 C792.29,1263.49 834.26,1207.51 955.4,1205.08 " fill="none" id="meas-measScript" style="stroke:#A80036;stroke-width:1.0;"/><line style="stroke:#A80036;stroke-width:1.0;" x1="959.4574" x2="959.5431" y1="1201.0431" y2="1209.0426"/><line style="stroke:#A80036;stroke-width:1.0;" x1="956.4575" x2="956.5433" y1="1201.0752" y2="1209.0748"/><line style="stroke:#A80036;stroke-width:1.0;" x1="955.5005" x2="963.5" y1="1205.0857" y2="1205"/><line style="stroke:#A80036;stroke-width:1.0;" x1="518.4241" x2="509.6755" y1="1048.0994" y2="1052.9431"/><line style="stroke:#A80036;stroke-width:1.0;" x1="518.4241" x2="511.3245" y1="1048.0994" y2="1041.0569"/><line style="stroke:#A80036;stroke-width:1.0;" x1="518.4241" x2="510.5" y1="1048.0994" y2="1047"/><line style="stroke:#A80036;stroke-width:1.0;" x1="519.8554" x2="520.9548" y1="1052.3363" y2="1044.4122"/><polygon fill="#000000" points="743.7053,1208.8669,736.1873,1203.0419,734.1993,1208.5733,743.7053,1208.8669" style="stroke:#000000;stroke-width:1.0;"/><text fill="#000000" font-family="sans-serif" font-size="13" lengthAdjust="spacing" textLength="28" x="748" y="1212.4951">uses</text><!--MD5=[55a2656e195254e10fab619bebf7af2e]
link meas to measType--><path codeLine="193" d="M518.52,993.58 C582.47,986.38 510.1,888.1 547,823 C586.81,752.78 600.12,698.7 676.41,695.18 " fill="none" id="meas-measType" style="stroke:#A80036;stroke-width:1.0;"/><line style="stroke:#A80036;stroke-width:1.0;" x1="680.4152" x2="680.5866" y1="691.0866" y2="699.0848"/><line style="stroke:#A80036;stroke-width:1.0;" x1="677.4159" x2="677.5873" y1="691.1509" y2="699.149"/><line style="stroke:#A80036;stroke-width:1.0;" x1="676.5018" x2="684.5" y1="695.1714" y2="695"/><line style="stroke:#A80036;stroke-width:1.0;" x1="518.4885" x2="510.8215" y1="993.5713" y2="999.9914"/><line style="stroke:#A80036;stroke-width:1.0;" x1="518.4885" x2="510.1785" y1="993.5713" y2="988.0086"/><line style="stroke:#A80036;stroke-width:1.0;" x1="518.4885" x2="510.5" y1="993.5713" y2="994"/><line style="stroke:#A80036;stroke-width:1.0;" x1="520.7" x2="520.2713" y1="997.4584" y2="989.4698"/><polygon fill="#000000" points="561.3384,686.7563,554.5105,693.3767,559.7059,696.1257,561.3384,686.7563" style="stroke:#000000;stroke-width:1.0;"/><text fill="#000000" font-family="sans-serif" font-size="13" lengthAdjust="spacing" textLength="71" x="568" y="696.4951">according to</text><!--MD5=[cf4b2ba40924ee4ced4564d77d019192]
link meas to measSettings--><path codeLine="194" d="M518.68,1005.84 C533.69,1000.96 532.08,981.59 547,967 C605.9,909.41 606.33,845.4 683.29,841.22 " fill="none" id="meas-measSettings" style="stroke:#A80036;stroke-width:1.0;"/><line style="stroke:#A80036;stroke-width:1.0;" x1="687.3943" x2="687.6085" y1="837.1085" y2="845.1057"/><line style="stroke:#A80036;stroke-width:1.0;" x1="684.3954" x2="684.6096" y1="837.1889" y2="845.186"/><line style="stroke:#A80036;stroke-width:1.0;" x1="683.5029" x2="691.5" y1="841.2142" y2="841"/><line style="stroke:#A80036;stroke-width:1.0;" x1="518.4219" x2="511.3365" y1="1005.8846" y2="1012.9414"/><line style="stroke:#A80036;stroke-width:1.0;" x1="518.4219" x2="509.6635" y1="1005.8846" y2="1001.0586"/><line style="stroke:#A80036;stroke-width:1.0;" x1="518.4219" x2="510.5" y1="1005.8846" y2="1007"/><line style="stroke:#A80036;stroke-width:1.0;" x1="520.96" x2="519.8447" y1="1009.5667" y2="1001.6449"/><polygon fill="#000000" points="581.5354,836.6401,573.0616,840.9581,577.218,845.1142,581.5354,836.6401" style="stroke:#000000;stroke-width:1.0;"/><text fill="#000000" font-family="sans-serif" font-size="13" lengthAdjust="spacing" textLength="33" x="587" y="845.4951">set to</text><!--MD5=[addf345781939c9daca8188cc0df2d38]
link meas to measMapping--><path codeLine="195" d="M518.6,1019.82 C592.38,1016.53 608.53,968.56 682.21,965.19 " fill="none" id="meas-measMapping" style="stroke:#A80036;stroke-width:1.0;"/><line style="stroke:#A80036;stroke-width:1.0;" x1="686.4152" x2="686.5866" y1="961.0866" y2="969.0848"/><line style="stroke:#A80036;stroke-width:1.0;" x1="683.4159" x2="683.5873" y1="961.1509" y2="969.149"/><line style="stroke:#A80036;stroke-width:1.0;" x1="682.5018" x2="690.5" y1="965.1714" y2="965"/><line style="stroke:#A80036;stroke-width:1.0;" x1="518.4982" x2="510.6288" y1="1019.8283" y2="1025.9986"/><line style="stroke:#A80036;stroke-width:1.0;" x1="518.4982" x2="510.3712" y1="1019.8283" y2="1014.0014"/><line style="stroke:#A80036;stroke-width:1.0;" x1="518.4982" x2="510.5" y1="1019.8283" y2="1020"/><line style="stroke:#A80036;stroke-width:1.0;" x1="520.5835" x2="520.4118" y1="1023.7845" y2="1015.7863"/><!--MD5=[33e7e52d18d6a4c58f3ce96efbb30cc0]
link meas to device--><path codeLine="196" d="M517.97,977.43 C556.45,937.04 519,566.66 547,528 C575.27,488.96 611.94,519.08 647,486 C681.09,453.84 650.83,393.21 688.11,385.76 " fill="none" id="meas-device" style="stroke:#A80036;stroke-width:1.0;"/><line style="stroke:#A80036;stroke-width:1.0;" x1="692.159" x2="692.873" y1="381.373" y2="389.341"/><line style="stroke:#A80036;stroke-width:1.0;" x1="689.1709" x2="689.8849" y1="381.6407" y2="389.6088"/><line style="stroke:#A80036;stroke-width:1.0;" x1="688.5319" x2="696.5" y1="385.714" y2="385"/><line style="stroke:#A80036;stroke-width:1.0;" x1="517.7171" x2="513.0887" y1="977.5484" y2="986.4128"/><line style="stroke:#A80036;stroke-width:1.0;" x1="517.7171" x2="507.9113" y1="977.5484" y2="975.5872"/><line style="stroke:#A80036;stroke-width:1.0;" x1="517.7171" x2="510.5" y1="977.5484" y2="981"/><line style="stroke:#A80036;stroke-width:1.0;" x1="521.2472" x2="517.7955" y1="980.294" y2="973.0769"/><polygon fill="#000000" points="567.3818,472.3705,562.0576,480.2511,567.7066,481.8755,567.3818,472.3705" style="stroke:#000000;stroke-width:1.0;"/><text fill="#000000" font-family="sans-serif" font-size="13" lengthAdjust="spacing" textLength="57" x="575" y="482.4951">measured</text><!--MD5=[3aef4c3917a061174ec392e07f8e054b]
link meas to exp--><path codeLine="197" d="M518.7,1033.63 C559.6,1039.37 635.45,1082.65 676.33,1088.38 " fill="none" id="meas-exp" style="stroke:#A80036;stroke-width:1.0;"/><line style="stroke:#A80036;stroke-width:1.0;" x1="680.8192" x2="680.2045" y1="1084.7045" y2="1092.6808"/><line style="stroke:#A80036;stroke-width:1.0;" x1="677.828" x2="677.2134" y1="1084.474" y2="1092.4503"/><line style="stroke:#A80036;stroke-width:1.0;" x1="676.5236" x2="684.5" y1="1088.3853" y2="1089"/><line style="stroke:#A80036;stroke-width:1.0;" x1="518.4764" x2="510.039" y1="1033.6147" y2="1038.9823"/><line style="stroke:#A80036;stroke-width:1.0;" x1="518.4764" x2="510.961" y1="1033.6147" y2="1027.0177"/><line style="stroke:#A80036;stroke-width:1.0;" x1="518.4764" x2="510.5" y1="1033.6147" y2="1033"/><line style="stroke:#A80036;stroke-width:1.0;" x1="520.1631" x2="520.7778" y1="1037.7565" y2="1029.7802"/><polygon fill="#000000" points="561.7232,1033.8163,554.1431,1028.0723,552.2146,1033.6248,561.7232,1033.8163" style="stroke:#000000;stroke-width:1.0;"/><text fill="#000000" font-family="sans-serif" font-size="13" lengthAdjust="spacing" textLength="75" x="566" y="1037.4951">performed on</text><!--MD5=[ddc9b3f9ae88fc7479545fbe6af44769]
link meas to measData--><path codeLine="198" d="M518.71,1074.36 C574.18,1094.35 510.71,1328.16 547,1384 C588.69,1448.16 619,1473.23 692.31,1474.91 " fill="none" id="meas-measData" style="stroke:#A80036;stroke-width:1.0;"/><line style="stroke:#A80036;stroke-width:1.0;" x1="692.5005" x2="700.5643" y1="1474.9143" y2="1469.0003"/><line style="stroke:#A80036;stroke-width:1.0;" x1="692.5005" x2="700.4357" y1="1474.9143" y2="1480.9997"/><line style="stroke:#A80036;stroke-width:1.0;" x1="692.5005" x2="700.5" y1="1474.9143" y2="1475"/><line style="stroke:#A80036;stroke-width:1.0;" x1="690.5434" x2="690.4577" y1="1470.8931" y2="1478.8926"/><line style="stroke:#A80036;stroke-width:1.0;" x1="513.788" x2="515.1032" y1="1077.6032" y2="1069.712"/><line style="stroke:#A80036;stroke-width:1.0;" x1="516.7472" x2="518.0624" y1="1078.0964" y2="1070.2052"/><line style="stroke:#A80036;stroke-width:1.0;" x1="518.3912" x2="510.5" y1="1074.3152" y2="1073"/><polygon fill="#000000" points="567.9883,1379.7634,567.088,1370.2956,561.6949,1372.633,567.9883,1379.7634" style="stroke:#000000;stroke-width:1.0;"/><text fill="#000000" font-family="sans-serif" font-size="13" lengthAdjust="spacing" textLength="57" x="575" y="1380.4951">measured</text><!--MD5=[958959ddfe58ac0eef772561c8ec1cf3]
link analysisResults to analysis--><path codeLine="199" d="M226.01,1172.24 C294.3,1176.4 305.14,1233.52 373.35,1237.75 " fill="none" id="analysisResults-analysis" style="stroke:#A80036;stroke-width:1.0;"/><line style="stroke:#A80036;stroke-width:1.0;" x1="377.6232" x2="377.3805" y1="1233.8805" y2="1241.8768"/><line style="stroke:#A80036;stroke-width:1.0;" x1="374.6246" x2="374.3819" y1="1233.7894" y2="1241.7858"/><line style="stroke:#A80036;stroke-width:1.0;" x1="373.5037" x2="381.5" y1="1237.7573" y2="1238"/><line style="stroke:#A80036;stroke-width:1.0;" x1="225.9963" x2="217.8179" y1="1172.2427" y2="1177.9972"/><line style="stroke:#A80036;stroke-width:1.0;" x1="225.9963" x2="218.1821" y1="1172.2427" y2="1166.0028"/><line style="stroke:#A80036;stroke-width:1.0;" x1="225.9963" x2="218" y1="1172.2427" y2="1172"/><line style="stroke:#A80036;stroke-width:1.0;" x1="227.874" x2="228.1168" y1="1176.3016" y2="1168.3053"/><polygon fill="#000000" points="269.5688,1171.2071,262.4978,1164.8469,260.1098,1170.2178,269.5688,1171.2071" style="stroke:#000000;stroke-width:1.0;"/><text fill="#000000" font-family="sans-serif" font-size="13" lengthAdjust="spacing" textLength="36" x="274" y="1174.4951">due to</text><!--MD5=[3b7ee4b53f6c81168fac1e898d66a031]
link analysisResults to meas--><path codeLine="200" d="M226.06,1157.59 C318.07,1147.97 253.44,970.13 345.37,960.41 " fill="none" id="analysisResults-meas" style="stroke:#A80036;stroke-width:1.0;"/><line style="stroke:#A80036;stroke-width:1.0;" x1="349.3049" x2="349.7051" y1="956.2051" y2="964.1951"/><line style="stroke:#A80036;stroke-width:1.0;" x1="346.3087" x2="346.7089" y1="956.3552" y2="964.3452"/><line style="stroke:#A80036;stroke-width:1.0;" x1="345.51" x2="353.5" y1="960.4002" y2="960"/><line style="stroke:#A80036;stroke-width:1.0;" x1="225.99" x2="218.3002" y1="1157.5998" y2="1163.9925"/><line style="stroke:#A80036;stroke-width:1.0;" x1="225.99" x2="217.6998" y1="1157.5998" y2="1152.0075"/><line style="stroke:#A80036;stroke-width:1.0;" x1="225.99" x2="218" y1="1157.5998" y2="1158"/><line style="stroke:#A80036;stroke-width:1.0;" x1="228.1876" x2="227.7874" y1="1161.4947" y2="1153.5047"/><polygon fill="#000000" points="267.5884,959.8979,260.3915,966.1152,265.4204,969.1581,267.5884,959.8979" style="stroke:#000000;stroke-width:1.0;"/><text fill="#000000" font-family="sans-serif" font-size="13" lengthAdjust="spacing" textLength="36" x="274" y="969.4951">due to</text><!--MD5=[319e15d6811ab07012c6bc61f9a07f76]
@startuml

left to right direction
hide circle
'skinparam linetype ortho

!define PK <size:12><&key></size><b>
!define FK <size:12><&link-intact></size><i>

entity "Wafer" as wafer {
    PK ID
    - -
    FK factory_id
    - -
    * name
    * production_date
    description
    layout
}

entity "Factory" as factory {
    PK ID
    - -
    * name

}

entity "Sample" as sample {
    PK ID
    - -
    FK wafer_id
    FK factory_id
    FK layout_id
    - -
    * name
    description
    creator
}

entity "SampleLayout" as sampleLayout {
    PK ID
    - -
    * name
    mask
}

entity "Device" as device {
    PK ID
    - -
    FK sample_id
    FK layout_id
    - -
    * name
    description
    layout_parameters
}

' Verknpfung DeviceLayout und SampleLayout?
' Wie lsst sich das verknpfen?
entity "DeviceLayout" as deviceLayout {
    PK ID
    - -
    FK gates_id []
    - -
    * name
    mask
    image
    creator
}

entity "Gate" as gate {
    PK ID
    - -
    * name
    * function
    number
}

entity "MeasurementSeries" as measSeries {
    PK ID
    - -
    FK measurements_id []
    - -
    * name
}

entity "Measurement" as meas {
    PK ID
    - -
    FK device_id
    FK measurement_type_id
    FK measurement_settings_id
    FK measurement_mapping_id
    FK experiment_setup_id
    FK script_id
    FK measurement_series_id
    FK measurement_data_id []
    - -
    * name
    * datetime
    * user
    * valid
    comments
}

entity "MeasurementData" as measData {
    PK ID
    - -
    * name
    * data_type
    * path_to_data
}

entity "ExperimentSetup" as exp {
    PK ID
    - -
    * name
    temperature of cryostat
    instruments / channels
    standard_settings
    filters
}

entity "MeasurementScript" as measScript {
    PK ID
    - -
    * name
    language
    script
}

entity "MeasurementSettings" as measSettings {
    PK ID
    - -
    * name
    settings
}

entity "MeasurementMapping" as measMapping {
    PK ID
    - -
    * name
    mapping
}

entity "MeasurementType" as measType {
    PK ID
    - -
    FK script_template
    - -
    * name
    extractable_parameters
}

entity "Analysis" as analysis {
    PK ID
    - -
    * name
    method
    results
    script
    software_filter
}

entity "AnalysisResults" as analysisResults {
    ' ID resulting from analysis method and measurement ID?
    PK analysis_results_id
    - -
    FK measurement_id
    FK analysis_id
    - -
    * name
    extracted parameters and their values
}

' Relationship symbols:

' Type	        Symbol
' Zero or One	|o- -
' Exactly One	||- -
' Zero or Many	}o- -
' One or Many	}|- -

wafer::ID ||- -|{ sample::wafer_id : made of <
wafer::factory_id }|- -|| factory::ID : is produced by >
sample::ID ||- -|{ device::sample_id : is on <
sample::factory_id }|- -|| factory::ID : is produced by >
sample::layout_id }|- -|| sampleLayout::ID : has >
deviceLayout::ID ||- -|{ device::layout_id : has <
deviceLayout::gates_id ||- -|{ gate::ID : has >
measType::script_template }|- -|{ measScript::ID : provides >
meas::measurement_series_id }|- -|| measSeries::measurements_id
meas::script_id }|- -|| measScript::ID : uses >
meas::measurement_type_id }|- -|| measType::ID : according to >
meas::measurement_settings_id }|- -|| measSettings::ID : set to >
meas::measurement_mapping_id }|- -|| measMapping::ID
meas::device_id }|- -|| device::ID : measured >
meas::experiment_setup_id }|- -|| exp::ID : performed on >
meas::measurement_data_id ||- -|{ measData::ID : measured >
analysisResults::analysis_id }|- -|| analysis::ID : due to >
analysisResults::measurement_id }|- -|| meas::ID : due to >

@enduml

@startuml

left to right direction
hide circle


entity "Wafer" as wafer {
    <size:12><&key></size><b> ID
    - -
    <size:12><&link-intact></size><i> factory_id
    - -
    * name
    * production_date
    description
    layout
}

entity "Factory" as factory {
    <size:12><&key></size><b> ID
    - -
    * name

}

entity "Sample" as sample {
    <size:12><&key></size><b> ID
    - -
    <size:12><&link-intact></size><i> wafer_id
    <size:12><&link-intact></size><i> factory_id
    <size:12><&link-intact></size><i> layout_id
    - -
    * name
    description
    creator
}

entity "SampleLayout" as sampleLayout {
    <size:12><&key></size><b> ID
    - -
    * name
    mask
}

entity "Device" as device {
    <size:12><&key></size><b> ID
    - -
    <size:12><&link-intact></size><i> sample_id
    <size:12><&link-intact></size><i> layout_id
    - -
    * name
    description
    layout_parameters
}

entity "DeviceLayout" as deviceLayout {
    <size:12><&key></size><b> ID
    - -
    <size:12><&link-intact></size><i> gates_id []
    - -
    * name
    mask
    image
    creator
}

entity "Gate" as gate {
    <size:12><&key></size><b> ID
    - -
    * name
    * function
    number
}

entity "MeasurementSeries" as measSeries {
    <size:12><&key></size><b> ID
    - -
    <size:12><&link-intact></size><i> measurements_id []
    - -
    * name
}

entity "Measurement" as meas {
    <size:12><&key></size><b> ID
    - -
    <size:12><&link-intact></size><i> device_id
    <size:12><&link-intact></size><i> measurement_type_id
    <size:12><&link-intact></size><i> measurement_settings_id
    <size:12><&link-intact></size><i> measurement_mapping_id
    <size:12><&link-intact></size><i> experiment_setup_id
    <size:12><&link-intact></size><i> script_id
    <size:12><&link-intact></size><i> measurement_series_id
    <size:12><&link-intact></size><i> measurement_data_id []
    - -
    * name
    * datetime
    * user
    * valid
    comments
}

entity "MeasurementData" as measData {
    <size:12><&key></size><b> ID
    - -
    * name
    * data_type
    * path_to_data
}

entity "ExperimentSetup" as exp {
    <size:12><&key></size><b> ID
    - -
    * name
    temperature of cryostat
    instruments / channels
    standard_settings
    filters
}

entity "MeasurementScript" as measScript {
    <size:12><&key></size><b> ID
    - -
    * name
    language
    script
}

entity "MeasurementSettings" as measSettings {
    <size:12><&key></size><b> ID
    - -
    * name
    settings
}

entity "MeasurementMapping" as measMapping {
    <size:12><&key></size><b> ID
    - -
    * name
    mapping
}

entity "MeasurementType" as measType {
    <size:12><&key></size><b> ID
    - -
    <size:12><&link-intact></size><i> script_template
    - -
    * name
    extractable_parameters
}

entity "Analysis" as analysis {
    <size:12><&key></size><b> ID
    - -
    * name
    method
    results
    script
    software_filter
}

entity "AnalysisResults" as analysisResults {
    <size:12><&key></size><b> analysis_results_id
    - -
    <size:12><&link-intact></size><i> measurement_id
    <size:12><&link-intact></size><i> analysis_id
    - -
    * name
    extracted parameters and their values
}



wafer::ID ||- -|{ sample::wafer_id : made of <
wafer::factory_id }|- -|| factory::ID : is produced by >
sample::ID ||- -|{ device::sample_id : is on <
sample::factory_id }|- -|| factory::ID : is produced by >
sample::layout_id }|- -|| sampleLayout::ID : has >
deviceLayout::ID ||- -|{ device::layout_id : has <
deviceLayout::gates_id ||- -|{ gate::ID : has >
measType::script_template }|- -|{ measScript::ID : provides >
meas::measurement_series_id }|- -|| measSeries::measurements_id
meas::script_id }|- -|| measScript::ID : uses >
meas::measurement_type_id }|- -|| measType::ID : according to >
meas::measurement_settings_id }|- -|| measSettings::ID : set to >
meas::measurement_mapping_id }|- -|| measMapping::ID
meas::device_id }|- -|| device::ID : measured >
meas::experiment_setup_id }|- -|| exp::ID : performed on >
meas::measurement_data_id ||- -|{ measData::ID : measured >
analysisResults::analysis_id }|- -|| analysis::ID : due to >
analysisResults::measurement_id }|- -|| meas::ID : due to >

@enduml

PlantUML version 1.2022.0(Tue Jan 11 17:16:42 CET 2022)
(GPL source distribution)
Java Runtime: OpenJDK Runtime Environment
JVM: OpenJDK 64-Bit Server VM
Default Encoding: Cp1252
Language: de
Country: DE
--></g></svg>
