<?xml version="1.0" encoding="UTF-8" standalone="no"?><svg xmlns="http://www.w3.org/2000/svg" xmlns:xlink="http://www.w3.org/1999/xlink" contentScriptType="application/ecmascript" contentStyleType="text/css" height="1625px" preserveAspectRatio="none" style="width:1113px;height:1625px;background:#FFFFFF;" version="1.1" viewBox="0 0 1113 1625" width="1113px" zoomAndPan="magnify"><defs><filter height="300%" id="f1gk8retjwsnny" width="300%" x="-1" y="-1"><feGaussianBlur result="blurOut" stdDeviation="2.0"/><feColorMatrix in="blurOut" result="blurOut2" type="matrix" values="0 0 0 0 0 0 0 0 0 0 0 0 0 0 0 0 0 0 .4 0"/><feOffset dx="4.0" dy="4.0" in="blurOut2" result="blurOut3"/><feBlend in="SourceGraphic" in2="blurOut3" mode="normal"/></filter></defs><g><!--MD5=[f7585ca0b1fb9716c5d2e99beede627f]
class wafer--><rect codeLine="6" fill="#FEFECE" filter="url(#f1gk8retjwsnny)" height="159.7813" id="wafer" style="stroke:#A80036;stroke-width:1.5;" width="134" x="45" y="142"/><text fill="#000000" font-family="sans-serif" font-size="12" lengthAdjust="spacing" textLength="32" x="96" y="159.457">Wafer</text><line style="stroke:#A80036;stroke-width:1.5;" x1="46" x2="178" y1="167.0938" y2="167.0938"/><path d="M57.5,173.9297 C56.12,173.9297 55,175.0497 55,176.4297 C55,176.5897 55,176.7497 55.03,176.8997 L52,179.9297 L52,181.9297 L55,181.9297 L55,179.9297 L57,179.9297 L57,178.9297 L57.03,178.8997 C57.18,178.9297 57.34,178.9297 57.5,178.9297 C58.88,178.9297 60,177.8097 60,176.4297 C60,175.0497 58.88,173.9297 57.5,173.9297 M58,174.9297 C58.55,174.9297 59,175.3797 59,175.9297 C59,176.4797 58.55,176.9297 58,176.9297 C57.45,176.9297 57,176.4797 57,175.9297 C57,175.3797 57.45,174.9297 58,174.9297 " fill="#000000" style="stroke:;stroke-width:0.0;stroke-dasharray:;"/><text fill="#000000" font-family="sans-serif" font-size="11" font-weight="bold" lengthAdjust="spacing" textLength="10" x="64" y="182.5127">ID</text><line style="stroke:#A80036;stroke-width:1.0;" x1="46" x2="178" y1="188.9297" y2="188.9297"/><path d="M57.88,195.7956 C57.7,195.8056 57.52,195.8256 57.35,195.8856 C57.08,195.9856 56.82,196.1356 56.6,196.3556 A0.5,0.5 0 1 0 57.29,197.0456 C57.4,196.9356 57.53,196.8756 57.67,196.8256 C58.02,196.7056 58.45,196.7556 58.73,197.0456 C59.12,197.4356 59.12,198.0856 58.73,198.4856 L57.23,199.9856 C56.79,200.4256 56.43,200.4656 56.17,200.4556 C55.91,200.4456 55.76,200.3256 55.76,200.3256 A0.5,0.5 0 1 0 55.26,201.2056 C55.6,201.4256 55.6,201.4256 56.1,201.4556 C56.6,201.4856 57.3,201.2956 57.91,200.6756 L59.41,199.1756 C60.19,198.3956 60.19,197.1356 59.41,196.3656 C59.13,196.0856 58.8,195.9156 58.44,195.8356 C58.26,195.7956 58.06,195.7956 57.88,195.8056 M55.88,198.1056 C55.38,198.0856 54.69,198.2556 54.1,198.8556 L52.6,200.3556 C51.82,201.1356 51.82,202.3956 52.6,203.1656 C53.16,203.7256 53.96,203.8856 54.66,203.6356 C54.93,203.5356 55.19,203.3856 55.41,203.1656 A0.5,0.5 0 1 0 54.72,202.4756 C54.61,202.5856 54.48,202.6456 54.34,202.6956 C53.99,202.8156 53.56,202.7656 53.28,202.4756 C52.89,202.0856 52.89,201.4356 53.28,201.0356 L54.78,199.5356 C55.18,199.1356 55.53,199.0856 55.81,199.0956 C56.09,199.1056 56.28,199.1856 56.28,199.1856 A0.5,0.5 0 1 0 56.72,198.3056 C56.38,198.1056 56.38,198.1056 55.88,198.0856 " fill="#000000" style="stroke:;stroke-width:0.0;stroke-dasharray:;"/><text fill="#000000" font-family="sans-serif" font-size="11" font-style="italic" lengthAdjust="spacing" textLength="48" x="64" y="204.3486">factory_id</text><line style="stroke:#A80036;stroke-width:1.0;" x1="46" x2="178" y1="210.7656" y2="210.7656"/><ellipse cx="56" cy="221.7656" fill="#000000" rx="3" ry="3" style="stroke:#000000;stroke-width:1.0;"/><text fill="#000000" font-family="sans-serif" font-size="11" lengthAdjust="spacing" textLength="48" x="65" y="226.1846">name : str</text><ellipse cx="56" cy="235.6016" fill="#000000" rx="3" ry="3" style="stroke:#000000;stroke-width:1.0;"/><text fill="#000000" font-family="sans-serif" font-size="11" lengthAdjust="spacing" textLength="108" x="65" y="240.0205">production_date : date</text><text fill="#000000" font-family="sans-serif" font-size="11" lengthAdjust="spacing" textLength="75" x="65" y="253.8564">description : str</text><text fill="#000000" font-family="sans-serif" font-size="11" lengthAdjust="spacing" textLength="99" x="65" y="267.6924">heterostructure : link</text><text fill="#000000" font-family="sans-serif" font-size="11" lengthAdjust="spacing" textLength="54" x="65" y="281.5283">recipe : link</text><text fill="#000000" font-family="sans-serif" font-size="11" lengthAdjust="spacing" textLength="51" x="65" y="295.3643">layout : str</text><!--MD5=[4ff43964c430846c98e016b63ddfc361]
class factory--><rect codeLine="19" fill="#FEFECE" filter="url(#f1gk8retjwsnny)" height="82.6016" id="factory" style="stroke:#A80036;stroke-width:1.5;" width="74" x="729.5" y="183.5"/><text fill="#000000" font-family="sans-serif" font-size="12" lengthAdjust="spacing" textLength="39" x="747" y="200.957">Factory</text><line style="stroke:#A80036;stroke-width:1.5;" x1="730.5" x2="802.5" y1="208.5938" y2="208.5938"/><path d="M742,215.4297 C740.62,215.4297 739.5,216.5497 739.5,217.9297 C739.5,218.0897 739.5,218.2497 739.53,218.3997 L736.5,221.4297 L736.5,223.4297 L739.5,223.4297 L739.5,221.4297 L741.5,221.4297 L741.5,220.4297 L741.53,220.3997 C741.68,220.4297 741.84,220.4297 742,220.4297 C743.38,220.4297 744.5,219.3097 744.5,217.9297 C744.5,216.5497 743.38,215.4297 742,215.4297 M742.5,216.4297 C743.05,216.4297 743.5,216.8797 743.5,217.4297 C743.5,217.9797 743.05,218.4297 742.5,218.4297 C741.95,218.4297 741.5,217.9797 741.5,217.4297 C741.5,216.8797 741.95,216.4297 742.5,216.4297 " fill="#000000" style="stroke:;stroke-width:0.0;stroke-dasharray:;"/><text fill="#000000" font-family="sans-serif" font-size="11" font-weight="bold" lengthAdjust="spacing" textLength="10" x="748.5" y="224.0127">ID</text><line style="stroke:#A80036;stroke-width:1.0;" x1="730.5" x2="802.5" y1="230.4297" y2="230.4297"/><ellipse cx="740.5" cy="241.4297" fill="#000000" rx="3" ry="3" style="stroke:#000000;stroke-width:1.0;"/><text fill="#000000" font-family="sans-serif" font-size="11" lengthAdjust="spacing" textLength="48" x="749.5" y="245.8486">name : str</text><text fill="#000000" font-family="sans-serif" font-size="11" lengthAdjust="spacing" textLength="0" x="752.5" y="259.6846"/><!--MD5=[feae7f6826fe1bf241773ea10c1cf353]
class sample--><rect codeLine="26" fill="#FEFECE" filter="url(#f1gk8retjwsnny)" height="187.4531" id="sample" style="stroke:#A80036;stroke-width:1.5;" width="134" x="364.5" y="7"/><text fill="#000000" font-family="sans-serif" font-size="12" lengthAdjust="spacing" textLength="43" x="410" y="24.457">Sample</text><line style="stroke:#A80036;stroke-width:1.5;" x1="365.5" x2="497.5" y1="32.0938" y2="32.0938"/><path d="M377,38.9297 C375.62,38.9297 374.5,40.0497 374.5,41.4297 C374.5,41.5897 374.5,41.7497 374.53,41.8997 L371.5,44.9297 L371.5,46.9297 L374.5,46.9297 L374.5,44.9297 L376.5,44.9297 L376.5,43.9297 L376.53,43.8997 C376.68,43.9297 376.84,43.9297 377,43.9297 C378.38,43.9297 379.5,42.8097 379.5,41.4297 C379.5,40.0497 378.38,38.9297 377,38.9297 M377.5,39.9297 C378.05,39.9297 378.5,40.3797 378.5,40.9297 C378.5,41.4797 378.05,41.9297 377.5,41.9297 C376.95,41.9297 376.5,41.4797 376.5,40.9297 C376.5,40.3797 376.95,39.9297 377.5,39.9297 " fill="#000000" style="stroke:;stroke-width:0.0;stroke-dasharray:;"/><text fill="#000000" font-family="sans-serif" font-size="11" font-weight="bold" lengthAdjust="spacing" textLength="10" x="383.5" y="47.5127">ID</text><line style="stroke:#A80036;stroke-width:1.0;" x1="365.5" x2="497.5" y1="53.9297" y2="53.9297"/><path d="M377.38,60.7956 C377.2,60.8056 377.02,60.8256 376.85,60.8856 C376.58,60.9856 376.32,61.1356 376.1,61.3556 A0.5,0.5 0 1 0 376.79,62.0456 C376.9,61.9356 377.03,61.8756 377.17,61.8256 C377.52,61.7056 377.95,61.7556 378.23,62.0456 C378.62,62.4356 378.62,63.0856 378.23,63.4856 L376.73,64.9856 C376.29,65.4256 375.93,65.4656 375.67,65.4556 C375.41,65.4456 375.26,65.3256 375.26,65.3256 A0.5,0.5 0 1 0 374.76,66.2056 C375.1,66.4256 375.1,66.4256 375.6,66.4556 C376.1,66.4856 376.8,66.2956 377.41,65.6756 L378.91,64.1756 C379.69,63.3956 379.69,62.1356 378.91,61.3656 C378.63,61.0856 378.3,60.9156 377.94,60.8356 C377.76,60.7956 377.56,60.7956 377.38,60.8056 M375.38,63.1056 C374.88,63.0856 374.19,63.2556 373.6,63.8556 L372.1,65.3556 C371.32,66.1356 371.32,67.3956 372.1,68.1656 C372.66,68.7256 373.46,68.8856 374.16,68.6356 C374.43,68.5356 374.69,68.3856 374.91,68.1656 A0.5,0.5 0 1 0 374.22,67.4756 C374.11,67.5856 373.98,67.6456 373.84,67.6956 C373.49,67.8156 373.06,67.7656 372.78,67.4756 C372.39,67.0856 372.39,66.4356 372.78,66.0356 L374.28,64.5356 C374.68,64.1356 375.03,64.0856 375.31,64.0956 C375.59,64.1056 375.78,64.1856 375.78,64.1856 A0.5,0.5 0 1 0 376.22,63.3056 C375.88,63.1056 375.88,63.1056 375.38,63.0856 " fill="#000000" style="stroke:;stroke-width:0.0;stroke-dasharray:;"/><text fill="#000000" font-family="sans-serif" font-size="11" font-style="italic" lengthAdjust="spacing" textLength="41" x="383.5" y="69.3486">wafer_id</text><path d="M377.38,74.6316 C377.2,74.6416 377.02,74.6616 376.85,74.7216 C376.58,74.8216 376.32,74.9716 376.1,75.1916 A0.5,0.5 0 1 0 376.79,75.8816 C376.9,75.7716 377.03,75.7116 377.17,75.6616 C377.52,75.5416 377.95,75.5916 378.23,75.8816 C378.62,76.2716 378.62,76.9216 378.23,77.3216 L376.73,78.8216 C376.29,79.2616 375.93,79.3016 375.67,79.2916 C375.41,79.2816 375.26,79.1616 375.26,79.1616 A0.5,0.5 0 1 0 374.76,80.0416 C375.1,80.2616 375.1,80.2616 375.6,80.2916 C376.1,80.3216 376.8,80.1316 377.41,79.5116 L378.91,78.0116 C379.69,77.2316 379.69,75.9716 378.91,75.2016 C378.63,74.9216 378.3,74.7516 377.94,74.6716 C377.76,74.6316 377.56,74.6316 377.38,74.6416 M375.38,76.9416 C374.88,76.9216 374.19,77.0916 373.6,77.6916 L372.1,79.1916 C371.32,79.9716 371.32,81.2316 372.1,82.0016 C372.66,82.5616 373.46,82.7216 374.16,82.4716 C374.43,82.3716 374.69,82.2216 374.91,82.0016 A0.5,0.5 0 1 0 374.22,81.3116 C374.11,81.4216 373.98,81.4816 373.84,81.5316 C373.49,81.6516 373.06,81.6016 372.78,81.3116 C372.39,80.9216 372.39,80.2716 372.78,79.8716 L374.28,78.3716 C374.68,77.9716 375.03,77.9216 375.31,77.9316 C375.59,77.9416 375.78,78.0216 375.78,78.0216 A0.5,0.5 0 1 0 376.22,77.1416 C375.88,76.9416 375.88,76.9416 375.38,76.9216 " fill="#000000" style="stroke:;stroke-width:0.0;stroke-dasharray:;"/><text fill="#000000" font-family="sans-serif" font-size="11" font-style="italic" lengthAdjust="spacing" textLength="48" x="383.5" y="83.1846">factory_id</text><path d="M377.38,88.4675 C377.2,88.4775 377.02,88.4975 376.85,88.5575 C376.58,88.6575 376.32,88.8075 376.1,89.0275 A0.5,0.5 0 1 0 376.79,89.7175 C376.9,89.6075 377.03,89.5475 377.17,89.4975 C377.52,89.3775 377.95,89.4275 378.23,89.7175 C378.62,90.1075 378.62,90.7575 378.23,91.1575 L376.73,92.6575 C376.29,93.0975 375.93,93.1375 375.67,93.1275 C375.41,93.1175 375.26,92.9975 375.26,92.9975 A0.5,0.5 0 1 0 374.76,93.8775 C375.1,94.0975 375.1,94.0975 375.6,94.1275 C376.1,94.1575 376.8,93.9675 377.41,93.3475 L378.91,91.8475 C379.69,91.0675 379.69,89.8075 378.91,89.0375 C378.63,88.7575 378.3,88.5875 377.94,88.5075 C377.76,88.4675 377.56,88.4675 377.38,88.4775 M375.38,90.7775 C374.88,90.7575 374.19,90.9275 373.6,91.5275 L372.1,93.0275 C371.32,93.8075 371.32,95.0675 372.1,95.8375 C372.66,96.3975 373.46,96.5575 374.16,96.3075 C374.43,96.2075 374.69,96.0575 374.91,95.8375 A0.5,0.5 0 1 0 374.22,95.1475 C374.11,95.2575 373.98,95.3175 373.84,95.3675 C373.49,95.4875 373.06,95.4375 372.78,95.1475 C372.39,94.7575 372.39,94.1075 372.78,93.7075 L374.28,92.2075 C374.68,91.8075 375.03,91.7575 375.31,91.7675 C375.59,91.7775 375.78,91.8575 375.78,91.8575 A0.5,0.5 0 1 0 376.22,90.9775 C375.88,90.7775 375.88,90.7775 375.38,90.7575 " fill="#000000" style="stroke:;stroke-width:0.0;stroke-dasharray:;"/><text fill="#000000" font-family="sans-serif" font-size="11" font-style="italic" lengthAdjust="spacing" textLength="44" x="383.5" y="97.0205">layout_id</text><line style="stroke:#A80036;stroke-width:1.0;" x1="365.5" x2="497.5" y1="103.4375" y2="103.4375"/><ellipse cx="375.5" cy="114.4375" fill="#000000" rx="3" ry="3" style="stroke:#000000;stroke-width:1.0;"/><text fill="#000000" font-family="sans-serif" font-size="11" lengthAdjust="spacing" textLength="48" x="384.5" y="118.8564">name : str</text><text fill="#000000" font-family="sans-serif" font-size="11" lengthAdjust="spacing" textLength="75" x="384.5" y="132.6924">description : str</text><text fill="#000000" font-family="sans-serif" font-size="11" lengthAdjust="spacing" textLength="108" x="384.5" y="146.5283">fabrication_date : date</text><text fill="#000000" font-family="sans-serif" font-size="11" lengthAdjust="spacing" textLength="54" x="384.5" y="160.3643">recipe : link</text><text fill="#000000" font-family="sans-serif" font-size="11" lengthAdjust="spacing" textLength="57" x="384.5" y="174.2002">creator : str</text><text fill="#000000" font-family="sans-serif" font-size="11" lengthAdjust="spacing" textLength="69" x="384.5" y="188.0361">fabricator : str</text><!--MD5=[5eefcca8879b614446c793004d144c77]
class sampleLayout--><rect codeLine="41" fill="#FEFECE" filter="url(#f1gk8retjwsnny)" height="82.6016" id="sampleLayout" style="stroke:#A80036;stroke-width:1.5;" width="101" x="716" y="59.5"/><text fill="#000000" font-family="sans-serif" font-size="12" lengthAdjust="spacing" textLength="79" x="727" y="76.957">SampleLayout</text><line style="stroke:#A80036;stroke-width:1.5;" x1="717" x2="816" y1="84.5938" y2="84.5938"/><path d="M728.5,91.4297 C727.12,91.4297 726,92.5497 726,93.9297 C726,94.0897 726,94.2497 726.03,94.3997 L723,97.4297 L723,99.4297 L726,99.4297 L726,97.4297 L728,97.4297 L728,96.4297 L728.03,96.3997 C728.18,96.4297 728.34,96.4297 728.5,96.4297 C729.88,96.4297 731,95.3097 731,93.9297 C731,92.5497 729.88,91.4297 728.5,91.4297 M729,92.4297 C729.55,92.4297 730,92.8797 730,93.4297 C730,93.9797 729.55,94.4297 729,94.4297 C728.45,94.4297 728,93.9797 728,93.4297 C728,92.8797 728.45,92.4297 729,92.4297 " fill="#000000" style="stroke:;stroke-width:0.0;stroke-dasharray:;"/><text fill="#000000" font-family="sans-serif" font-size="11" font-weight="bold" lengthAdjust="spacing" textLength="10" x="735" y="100.0127">ID</text><line style="stroke:#A80036;stroke-width:1.0;" x1="717" x2="816" y1="106.4297" y2="106.4297"/><ellipse cx="727" cy="117.4297" fill="#000000" rx="3" ry="3" style="stroke:#000000;stroke-width:1.0;"/><text fill="#000000" font-family="sans-serif" font-size="11" lengthAdjust="spacing" textLength="48" x="736" y="121.8486">name : str</text><text fill="#000000" font-family="sans-serif" font-size="11" lengthAdjust="spacing" textLength="75" x="736" y="135.6846">description : str</text><!--MD5=[83a79df82c2dbbe82307647156e04bb1]
class device--><rect codeLine="48" fill="#FEFECE" filter="url(#f1gk8retjwsnny)" height="228.9609" id="device" style="stroke:#A80036;stroke-width:1.5;" width="144" x="694.5" y="308"/><text fill="#000000" font-family="sans-serif" font-size="12" lengthAdjust="spacing" textLength="37" x="748" y="325.457">Device</text><line style="stroke:#A80036;stroke-width:1.5;" x1="695.5" x2="837.5" y1="333.0938" y2="333.0938"/><path d="M707,339.9297 C705.62,339.9297 704.5,341.0497 704.5,342.4297 C704.5,342.5897 704.5,342.7497 704.53,342.8997 L701.5,345.9297 L701.5,347.9297 L704.5,347.9297 L704.5,345.9297 L706.5,345.9297 L706.5,344.9297 L706.53,344.8997 C706.68,344.9297 706.84,344.9297 707,344.9297 C708.38,344.9297 709.5,343.8097 709.5,342.4297 C709.5,341.0497 708.38,339.9297 707,339.9297 M707.5,340.9297 C708.05,340.9297 708.5,341.3797 708.5,341.9297 C708.5,342.4797 708.05,342.9297 707.5,342.9297 C706.95,342.9297 706.5,342.4797 706.5,341.9297 C706.5,341.3797 706.95,340.9297 707.5,340.9297 " fill="#000000" style="stroke:;stroke-width:0.0;stroke-dasharray:;"/><text fill="#000000" font-family="sans-serif" font-size="11" font-weight="bold" lengthAdjust="spacing" textLength="10" x="713.5" y="348.5127">ID</text><line style="stroke:#A80036;stroke-width:1.0;" x1="695.5" x2="837.5" y1="354.9297" y2="354.9297"/><path d="M707.38,361.7956 C707.2,361.8056 707.02,361.8256 706.85,361.8856 C706.58,361.9856 706.32,362.1356 706.1,362.3556 A0.5,0.5 0 1 0 706.79,363.0456 C706.9,362.9356 707.03,362.8756 707.17,362.8256 C707.52,362.7056 707.95,362.7556 708.23,363.0456 C708.62,363.4356 708.62,364.0856 708.23,364.4856 L706.73,365.9856 C706.29,366.4256 705.93,366.4656 705.67,366.4556 C705.41,366.4456 705.26,366.3256 705.26,366.3256 A0.5,0.5 0 1 0 704.76,367.2056 C705.1,367.4256 705.1,367.4256 705.6,367.4556 C706.1,367.4856 706.8,367.2956 707.41,366.6756 L708.91,365.1756 C709.69,364.3956 709.69,363.1356 708.91,362.3656 C708.63,362.0856 708.3,361.9156 707.94,361.8356 C707.76,361.7956 707.56,361.7956 707.38,361.8056 M705.38,364.1056 C704.88,364.0856 704.19,364.2556 703.6,364.8556 L702.1,366.3556 C701.32,367.1356 701.32,368.3956 702.1,369.1656 C702.66,369.7256 703.46,369.8856 704.16,369.6356 C704.43,369.5356 704.69,369.3856 704.91,369.1656 A0.5,0.5 0 1 0 704.22,368.4756 C704.11,368.5856 703.98,368.6456 703.84,368.6956 C703.49,368.8156 703.06,368.7656 702.78,368.4756 C702.39,368.0856 702.39,367.4356 702.78,367.0356 L704.28,365.5356 C704.68,365.1356 705.03,365.0856 705.31,365.0956 C705.59,365.1056 705.78,365.1856 705.78,365.1856 A0.5,0.5 0 1 0 706.22,364.3056 C705.88,364.1056 705.88,364.1056 705.38,364.0856 " fill="#000000" style="stroke:;stroke-width:0.0;stroke-dasharray:;"/><text fill="#000000" font-family="sans-serif" font-size="11" font-style="italic" lengthAdjust="spacing" textLength="51" x="713.5" y="370.3486">sample_id</text><path d="M707.38,375.6316 C707.2,375.6416 707.02,375.6616 706.85,375.7216 C706.58,375.8216 706.32,375.9716 706.1,376.1916 A0.5,0.5 0 1 0 706.79,376.8816 C706.9,376.7716 707.03,376.7116 707.17,376.6616 C707.52,376.5416 707.95,376.5916 708.23,376.8816 C708.62,377.2716 708.62,377.9216 708.23,378.3216 L706.73,379.8216 C706.29,380.2616 705.93,380.3016 705.67,380.2916 C705.41,380.2816 705.26,380.1616 705.26,380.1616 A0.5,0.5 0 1 0 704.76,381.0416 C705.1,381.2616 705.1,381.2616 705.6,381.2916 C706.1,381.3216 706.8,381.1316 707.41,380.5116 L708.91,379.0116 C709.69,378.2316 709.69,376.9716 708.91,376.2016 C708.63,375.9216 708.3,375.7516 707.94,375.6716 C707.76,375.6316 707.56,375.6316 707.38,375.6416 M705.38,377.9416 C704.88,377.9216 704.19,378.0916 703.6,378.6916 L702.1,380.1916 C701.32,380.9716 701.32,382.2316 702.1,383.0016 C702.66,383.5616 703.46,383.7216 704.16,383.4716 C704.43,383.3716 704.69,383.2216 704.91,383.0016 A0.5,0.5 0 1 0 704.22,382.3116 C704.11,382.4216 703.98,382.4816 703.84,382.5316 C703.49,382.6516 703.06,382.6016 702.78,382.3116 C702.39,381.9216 702.39,381.2716 702.78,380.8716 L704.28,379.3716 C704.68,378.9716 705.03,378.9216 705.31,378.9316 C705.59,378.9416 705.78,379.0216 705.78,379.0216 A0.5,0.5 0 1 0 706.22,378.1416 C705.88,377.9416 705.88,377.9416 705.38,377.9216 " fill="#000000" style="stroke:;stroke-width:0.0;stroke-dasharray:;"/><text fill="#000000" font-family="sans-serif" font-size="11" font-style="italic" lengthAdjust="spacing" textLength="44" x="713.5" y="384.1846">layout_id</text><line style="stroke:#A80036;stroke-width:1.0;" x1="695.5" x2="837.5" y1="390.6016" y2="390.6016"/><ellipse cx="705.5" cy="401.6016" fill="#000000" rx="3" ry="3" style="stroke:#000000;stroke-width:1.0;"/><text fill="#000000" font-family="sans-serif" font-size="11" lengthAdjust="spacing" textLength="48" x="714.5" y="406.0205">name : str</text><text fill="#000000" font-family="sans-serif" font-size="11" lengthAdjust="spacing" textLength="75" x="714.5" y="419.8564">description : str</text><text fill="#000000" font-family="sans-serif" font-size="11" lengthAdjust="spacing" textLength="65" x="714.5" y="433.6924">comment : str</text><text fill="#000000" font-family="sans-serif" font-size="11" lengthAdjust="spacing" textLength="112" x="714.5" y="447.5283">layout_parameters : str</text><text fill="#000000" font-family="sans-serif" font-size="11" lengthAdjust="spacing" textLength="52" x="714.5" y="461.3643">status : str</text><text fill="#000000" font-family="sans-serif" font-size="11" lengthAdjust="spacing" textLength="78" x="714.5" y="475.2002">microscope : str</text><text fill="#000000" font-family="sans-serif" font-size="11" lengthAdjust="spacing" textLength="68" x="714.5" y="489.0361">annealing : str</text><text fill="#000000" font-family="sans-serif" font-size="11" lengthAdjust="spacing" textLength="118" x="714.5" y="502.8721">responsible_person : str</text><text fill="#000000" font-family="sans-serif" font-size="11" lengthAdjust="spacing" textLength="89" x="714.5" y="516.708">deliver_date : date</text><text fill="#000000" font-family="sans-serif" font-size="11" lengthAdjust="spacing" textLength="100" x="714.5" y="530.5439">current_location : str</text><!--MD5=[96da207b98d527e8b4c96f6a2328d41d]
class deviceLayout--><rect codeLine="68" fill="#FEFECE" filter="url(#f1gk8retjwsnny)" height="159.7813" id="deviceLayout" style="stroke:#A80036;stroke-width:1.5;" width="101" x="381" y="509"/><text fill="#000000" font-family="sans-serif" font-size="12" lengthAdjust="spacing" textLength="73" x="395" y="526.457">DeviceLayout</text><line style="stroke:#A80036;stroke-width:1.5;" x1="382" x2="481" y1="534.0938" y2="534.0938"/><path d="M393.5,540.9297 C392.12,540.9297 391,542.0497 391,543.4297 C391,543.5897 391,543.7497 391.03,543.8997 L388,546.9297 L388,548.9297 L391,548.9297 L391,546.9297 L393,546.9297 L393,545.9297 L393.03,545.8997 C393.18,545.9297 393.34,545.9297 393.5,545.9297 C394.88,545.9297 396,544.8097 396,543.4297 C396,542.0497 394.88,540.9297 393.5,540.9297 M394,541.9297 C394.55,541.9297 395,542.3797 395,542.9297 C395,543.4797 394.55,543.9297 394,543.9297 C393.45,543.9297 393,543.4797 393,542.9297 C393,542.3797 393.45,541.9297 394,541.9297 " fill="#000000" style="stroke:;stroke-width:0.0;stroke-dasharray:;"/><text fill="#000000" font-family="sans-serif" font-size="11" font-weight="bold" lengthAdjust="spacing" textLength="10" x="400" y="549.5127">ID</text><line style="stroke:#A80036;stroke-width:1.0;" x1="382" x2="481" y1="555.9297" y2="555.9297"/><path d="M393.88,562.7956 C393.7,562.8056 393.52,562.8256 393.35,562.8856 C393.08,562.9856 392.82,563.1356 392.6,563.3556 A0.5,0.5 0 1 0 393.29,564.0456 C393.4,563.9356 393.53,563.8756 393.67,563.8256 C394.02,563.7056 394.45,563.7556 394.73,564.0456 C395.12,564.4356 395.12,565.0856 394.73,565.4856 L393.23,566.9856 C392.79,567.4256 392.43,567.4656 392.17,567.4556 C391.91,567.4456 391.76,567.3256 391.76,567.3256 A0.5,0.5 0 1 0 391.26,568.2056 C391.6,568.4256 391.6,568.4256 392.1,568.4556 C392.6,568.4856 393.3,568.2956 393.91,567.6756 L395.41,566.1756 C396.19,565.3956 396.19,564.1356 395.41,563.3656 C395.13,563.0856 394.8,562.9156 394.44,562.8356 C394.26,562.7956 394.06,562.7956 393.88,562.8056 M391.88,565.1056 C391.38,565.0856 390.69,565.2556 390.1,565.8556 L388.6,567.3556 C387.82,568.1356 387.82,569.3956 388.6,570.1656 C389.16,570.7256 389.96,570.8856 390.66,570.6356 C390.93,570.5356 391.19,570.3856 391.41,570.1656 A0.5,0.5 0 1 0 390.72,569.4756 C390.61,569.5856 390.48,569.6456 390.34,569.6956 C389.99,569.8156 389.56,569.7656 389.28,569.4756 C388.89,569.0856 388.89,568.4356 389.28,568.0356 L390.78,566.5356 C391.18,566.1356 391.53,566.0856 391.81,566.0956 C392.09,566.1056 392.28,566.1856 392.28,566.1856 A0.5,0.5 0 1 0 392.72,565.3056 C392.38,565.1056 392.38,565.1056 391.88,565.0856 " fill="#000000" style="stroke:;stroke-width:0.0;stroke-dasharray:;"/><text fill="#000000" font-family="sans-serif" font-size="11" font-style="italic" lengthAdjust="spacing" textLength="70" x="400" y="571.3486">terminals_id []</text><line style="stroke:#A80036;stroke-width:1.0;" x1="382" x2="481" y1="577.7656" y2="577.7656"/><ellipse cx="392" cy="588.7656" fill="#000000" rx="3" ry="3" style="stroke:#000000;stroke-width:1.0;"/><text fill="#000000" font-family="sans-serif" font-size="11" lengthAdjust="spacing" textLength="48" x="401" y="593.1846">name : str</text><text fill="#000000" font-family="sans-serif" font-size="11" lengthAdjust="spacing" textLength="75" x="401" y="607.0205">description : str</text><text fill="#000000" font-family="sans-serif" font-size="11" lengthAdjust="spacing" textLength="64" x="401" y="620.8564">image : bytea</text><text fill="#000000" font-family="sans-serif" font-size="11" lengthAdjust="spacing" textLength="57" x="401" y="634.6924">creator : str</text><text fill="#000000" font-family="sans-serif" font-size="11" lengthAdjust="spacing" textLength="73" x="401" y="648.5283">layout_file : link</text><text fill="#000000" font-family="sans-serif" font-size="11" lengthAdjust="spacing" textLength="73" x="401" y="662.3643">layout_cell : str</text><!--MD5=[8aabf11e8043fa0dee4c5b12e2ed7122]
class terminal--><rect codeLine="81" fill="#FEFECE" filter="url(#f1gk8retjwsnny)" height="118.2734" id="terminal" style="stroke:#A80036;stroke-width:1.5;" width="87" x="723" y="577"/><text fill="#000000" font-family="sans-serif" font-size="12" lengthAdjust="spacing" textLength="49" x="742" y="594.457">Terminal</text><line style="stroke:#A80036;stroke-width:1.5;" x1="724" x2="809" y1="602.0938" y2="602.0938"/><path d="M735.5,608.9297 C734.12,608.9297 733,610.0497 733,611.4297 C733,611.5897 733,611.7497 733.03,611.8997 L730,614.9297 L730,616.9297 L733,616.9297 L733,614.9297 L735,614.9297 L735,613.9297 L735.03,613.8997 C735.18,613.9297 735.34,613.9297 735.5,613.9297 C736.88,613.9297 738,612.8097 738,611.4297 C738,610.0497 736.88,608.9297 735.5,608.9297 M736,609.9297 C736.55,609.9297 737,610.3797 737,610.9297 C737,611.4797 736.55,611.9297 736,611.9297 C735.45,611.9297 735,611.4797 735,610.9297 C735,610.3797 735.45,609.9297 736,609.9297 " fill="#000000" style="stroke:;stroke-width:0.0;stroke-dasharray:;"/><text fill="#000000" font-family="sans-serif" font-size="11" font-weight="bold" lengthAdjust="spacing" textLength="10" x="742" y="617.5127">ID</text><line style="stroke:#A80036;stroke-width:1.0;" x1="724" x2="809" y1="623.9297" y2="623.9297"/><path d="M735.88,630.7956 C735.7,630.8056 735.52,630.8256 735.35,630.8856 C735.08,630.9856 734.82,631.1356 734.6,631.3556 A0.5,0.5 0 1 0 735.29,632.0456 C735.4,631.9356 735.53,631.8756 735.67,631.8256 C736.02,631.7056 736.45,631.7556 736.73,632.0456 C737.12,632.4356 737.12,633.0856 736.73,633.4856 L735.23,634.9856 C734.79,635.4256 734.43,635.4656 734.17,635.4556 C733.91,635.4456 733.76,635.3256 733.76,635.3256 A0.5,0.5 0 1 0 733.26,636.2056 C733.6,636.4256 733.6,636.4256 734.1,636.4556 C734.6,636.4856 735.3,636.2956 735.91,635.6756 L737.41,634.1756 C738.19,633.3956 738.19,632.1356 737.41,631.3656 C737.13,631.0856 736.8,630.9156 736.44,630.8356 C736.26,630.7956 736.06,630.7956 735.88,630.8056 M733.88,633.1056 C733.38,633.0856 732.69,633.2556 732.1,633.8556 L730.6,635.3556 C729.82,636.1356 729.82,637.3956 730.6,638.1656 C731.16,638.7256 731.96,638.8856 732.66,638.6356 C732.93,638.5356 733.19,638.3856 733.41,638.1656 A0.5,0.5 0 1 0 732.72,637.4756 C732.61,637.5856 732.48,637.6456 732.34,637.6956 C731.99,637.8156 731.56,637.7656 731.28,637.4756 C730.89,637.0856 730.89,636.4356 731.28,636.0356 L732.78,634.5356 C733.18,634.1356 733.53,634.0856 733.81,634.0956 C734.09,634.1056 734.28,634.1856 734.28,634.1856 A0.5,0.5 0 1 0 734.72,633.3056 C734.38,633.1056 734.38,633.1056 733.88,633.0856 " fill="#000000" style="stroke:;stroke-width:0.0;stroke-dasharray:;"/><text fill="#000000" font-family="sans-serif" font-size="11" font-style="italic" lengthAdjust="spacing" textLength="44" x="742" y="639.3486">layout_id</text><line style="stroke:#A80036;stroke-width:1.0;" x1="724" x2="809" y1="645.7656" y2="645.7656"/><ellipse cx="734" cy="656.7656" fill="#000000" rx="3" ry="3" style="stroke:#000000;stroke-width:1.0;"/><text fill="#000000" font-family="sans-serif" font-size="11" lengthAdjust="spacing" textLength="48" x="743" y="661.1846">name : str</text><ellipse cx="734" cy="670.6016" fill="#000000" rx="3" ry="3" style="stroke:#000000;stroke-width:1.0;"/><text fill="#000000" font-family="sans-serif" font-size="11" lengthAdjust="spacing" textLength="61" x="743" y="675.0205">function : str</text><text fill="#000000" font-family="sans-serif" font-size="11" lengthAdjust="spacing" textLength="56" x="743" y="688.8564">number : int</text><!--MD5=[ad64a082a5719e7ab7338a9645b9e7b2]
class measSeries--><rect codeLine="7" fill="#FEFECE" filter="url(#f1gk8retjwsnny)" height="90.6016" id="measSeries" style="stroke:#A80036;stroke-width:1.5;" width="122" x="705.5" y="1384"/><text fill="#000000" font-family="sans-serif" font-size="12" lengthAdjust="spacing" textLength="112" x="710.5" y="1401.457">MeasurementSeries</text><line style="stroke:#A80036;stroke-width:1.5;" x1="706.5" x2="826.5" y1="1409.0938" y2="1409.0938"/><path d="M718,1415.9297 C716.62,1415.9297 715.5,1417.0497 715.5,1418.4297 C715.5,1418.5897 715.5,1418.7497 715.53,1418.8997 L712.5,1421.9297 L712.5,1423.9297 L715.5,1423.9297 L715.5,1421.9297 L717.5,1421.9297 L717.5,1420.9297 L717.53,1420.8997 C717.68,1420.9297 717.84,1420.9297 718,1420.9297 C719.38,1420.9297 720.5,1419.8097 720.5,1418.4297 C720.5,1417.0497 719.38,1415.9297 718,1415.9297 M718.5,1416.9297 C719.05,1416.9297 719.5,1417.3797 719.5,1417.9297 C719.5,1418.4797 719.05,1418.9297 718.5,1418.9297 C717.95,1418.9297 717.5,1418.4797 717.5,1417.9297 C717.5,1417.3797 717.95,1416.9297 718.5,1416.9297 " fill="#000000" style="stroke:;stroke-width:0.0;stroke-dasharray:;"/><text fill="#000000" font-family="sans-serif" font-size="11" font-weight="bold" lengthAdjust="spacing" textLength="10" x="724.5" y="1424.5127">ID</text><line style="stroke:#A80036;stroke-width:1.0;" x1="706.5" x2="826.5" y1="1430.9297" y2="1430.9297"/><path d="M718.38,1437.7956 C718.2,1437.8056 718.02,1437.8256 717.85,1437.8856 C717.58,1437.9856 717.32,1438.1356 717.1,1438.3556 A0.5,0.5 0 1 0 717.79,1439.0456 C717.9,1438.9356 718.03,1438.8756 718.17,1438.8256 C718.52,1438.7056 718.95,1438.7556 719.23,1439.0456 C719.62,1439.4356 719.62,1440.0856 719.23,1440.4856 L717.73,1441.9856 C717.29,1442.4256 716.93,1442.4656 716.67,1442.4556 C716.41,1442.4456 716.26,1442.3256 716.26,1442.3256 A0.5,0.5 0 1 0 715.76,1443.2056 C716.1,1443.4256 716.1,1443.4256 716.6,1443.4556 C717.1,1443.4856 717.8,1443.2956 718.41,1442.6756 L719.91,1441.1756 C720.69,1440.3956 720.69,1439.1356 719.91,1438.3656 C719.63,1438.0856 719.3,1437.9156 718.94,1437.8356 C718.76,1437.7956 718.56,1437.7956 718.38,1437.8056 M716.38,1440.1056 C715.88,1440.0856 715.19,1440.2556 714.6,1440.8556 L713.1,1442.3556 C712.32,1443.1356 712.32,1444.3956 713.1,1445.1656 C713.66,1445.7256 714.46,1445.8856 715.16,1445.6356 C715.43,1445.5356 715.69,1445.3856 715.91,1445.1656 A0.5,0.5 0 1 0 715.22,1444.4756 C715.11,1444.5856 714.98,1444.6456 714.84,1444.6956 C714.49,1444.8156 714.06,1444.7656 713.78,1444.4756 C713.39,1444.0856 713.39,1443.4356 713.78,1443.0356 L715.28,1441.5356 C715.68,1441.1356 716.03,1441.0856 716.31,1441.0956 C716.59,1441.1056 716.78,1441.1856 716.78,1441.1856 A0.5,0.5 0 1 0 717.22,1440.3056 C716.88,1440.1056 716.88,1440.1056 716.38,1440.0856 " fill="#000000" style="stroke:;stroke-width:0.0;stroke-dasharray:;"/><text fill="#000000" font-family="sans-serif" font-size="11" font-style="italic" lengthAdjust="spacing" textLength="97" x="724.5" y="1446.3486">measurements_id []</text><line style="stroke:#A80036;stroke-width:1.0;" x1="706.5" x2="826.5" y1="1452.7656" y2="1452.7656"/><ellipse cx="716.5" cy="1463.7656" fill="#000000" rx="3" ry="3" style="stroke:#000000;stroke-width:1.0;"/><text fill="#000000" font-family="sans-serif" font-size="11" lengthAdjust="spacing" textLength="48" x="725.5" y="1468.1846">name : str</text><!--MD5=[0cd9019e0ce44bea294eb214f5a5ddce]
class meas--><rect codeLine="15" fill="#FEFECE" filter="url(#f1gk8retjwsnny)" height="242.7969" id="meas" style="stroke:#A80036;stroke-width:1.5;" width="155" x="354" y="1000.5"/><text fill="#000000" font-family="sans-serif" font-size="12" lengthAdjust="spacing" textLength="76" x="393.5" y="1017.957">Measurement</text><line style="stroke:#A80036;stroke-width:1.5;" x1="355" x2="508" y1="1025.5938" y2="1025.5938"/><path d="M366.5,1032.4297 C365.12,1032.4297 364,1033.5497 364,1034.9297 C364,1035.0897 364,1035.2497 364.03,1035.3997 L361,1038.4297 L361,1040.4297 L364,1040.4297 L364,1038.4297 L366,1038.4297 L366,1037.4297 L366.03,1037.3997 C366.18,1037.4297 366.34,1037.4297 366.5,1037.4297 C367.88,1037.4297 369,1036.3097 369,1034.9297 C369,1033.5497 367.88,1032.4297 366.5,1032.4297 M367,1033.4297 C367.55,1033.4297 368,1033.8797 368,1034.4297 C368,1034.9797 367.55,1035.4297 367,1035.4297 C366.45,1035.4297 366,1034.9797 366,1034.4297 C366,1033.8797 366.45,1033.4297 367,1033.4297 " fill="#000000" style="stroke:;stroke-width:0.0;stroke-dasharray:;"/><text fill="#000000" font-family="sans-serif" font-size="11" font-weight="bold" lengthAdjust="spacing" textLength="10" x="373" y="1041.0127">ID</text><line style="stroke:#A80036;stroke-width:1.0;" x1="355" x2="508" y1="1047.4297" y2="1047.4297"/><path d="M366.88,1054.2956 C366.7,1054.3056 366.52,1054.3256 366.35,1054.3856 C366.08,1054.4856 365.82,1054.6356 365.6,1054.8556 A0.5,0.5 0 1 0 366.29,1055.5456 C366.4,1055.4356 366.53,1055.3756 366.67,1055.3256 C367.02,1055.2056 367.45,1055.2556 367.73,1055.5456 C368.12,1055.9356 368.12,1056.5856 367.73,1056.9856 L366.23,1058.4856 C365.79,1058.9256 365.43,1058.9656 365.17,1058.9556 C364.91,1058.9456 364.76,1058.8256 364.76,1058.8256 A0.5,0.5 0 1 0 364.26,1059.7056 C364.6,1059.9256 364.6,1059.9256 365.1,1059.9556 C365.6,1059.9856 366.3,1059.7956 366.91,1059.1756 L368.41,1057.6756 C369.19,1056.8956 369.19,1055.6356 368.41,1054.8656 C368.13,1054.5856 367.8,1054.4156 367.44,1054.3356 C367.26,1054.2956 367.06,1054.2956 366.88,1054.3056 M364.88,1056.6056 C364.38,1056.5856 363.69,1056.7556 363.1,1057.3556 L361.6,1058.8556 C360.82,1059.6356 360.82,1060.8956 361.6,1061.6656 C362.16,1062.2256 362.96,1062.3856 363.66,1062.1356 C363.93,1062.0356 364.19,1061.8856 364.41,1061.6656 A0.5,0.5 0 1 0 363.72,1060.9756 C363.61,1061.0856 363.48,1061.1456 363.34,1061.1956 C362.99,1061.3156 362.56,1061.2656 362.28,1060.9756 C361.89,1060.5856 361.89,1059.9356 362.28,1059.5356 L363.78,1058.0356 C364.18,1057.6356 364.53,1057.5856 364.81,1057.5956 C365.09,1057.6056 365.28,1057.6856 365.28,1057.6856 A0.5,0.5 0 1 0 365.72,1056.8056 C365.38,1056.6056 365.38,1056.6056 364.88,1056.5856 " fill="#000000" style="stroke:;stroke-width:0.0;stroke-dasharray:;"/><text fill="#000000" font-family="sans-serif" font-size="11" font-style="italic" lengthAdjust="spacing" textLength="47" x="373" y="1062.8486">device_id</text><path d="M366.88,1068.1316 C366.7,1068.1416 366.52,1068.1616 366.35,1068.2216 C366.08,1068.3216 365.82,1068.4716 365.6,1068.6916 A0.5,0.5 0 1 0 366.29,1069.3816 C366.4,1069.2716 366.53,1069.2116 366.67,1069.1616 C367.02,1069.0416 367.45,1069.0916 367.73,1069.3816 C368.12,1069.7716 368.12,1070.4216 367.73,1070.8216 L366.23,1072.3216 C365.79,1072.7616 365.43,1072.8016 365.17,1072.7916 C364.91,1072.7816 364.76,1072.6616 364.76,1072.6616 A0.5,0.5 0 1 0 364.26,1073.5416 C364.6,1073.7616 364.6,1073.7616 365.1,1073.7916 C365.6,1073.8216 366.3,1073.6316 366.91,1073.0116 L368.41,1071.5116 C369.19,1070.7316 369.19,1069.4716 368.41,1068.7016 C368.13,1068.4216 367.8,1068.2516 367.44,1068.1716 C367.26,1068.1316 367.06,1068.1316 366.88,1068.1416 M364.88,1070.4416 C364.38,1070.4216 363.69,1070.5916 363.1,1071.1916 L361.6,1072.6916 C360.82,1073.4716 360.82,1074.7316 361.6,1075.5016 C362.16,1076.0616 362.96,1076.2216 363.66,1075.9716 C363.93,1075.8716 364.19,1075.7216 364.41,1075.5016 A0.5,0.5 0 1 0 363.72,1074.8116 C363.61,1074.9216 363.48,1074.9816 363.34,1075.0316 C362.99,1075.1516 362.56,1075.1016 362.28,1074.8116 C361.89,1074.4216 361.89,1073.7716 362.28,1073.3716 L363.78,1071.8716 C364.18,1071.4716 364.53,1071.4216 364.81,1071.4316 C365.09,1071.4416 365.28,1071.5216 365.28,1071.5216 A0.5,0.5 0 1 0 365.72,1070.6416 C365.38,1070.4416 365.38,1070.4416 364.88,1070.4216 " fill="#000000" style="stroke:;stroke-width:0.0;stroke-dasharray:;"/><text fill="#000000" font-family="sans-serif" font-size="11" font-style="italic" lengthAdjust="spacing" textLength="108" x="373" y="1076.6846">measurement_type_id</text><path d="M366.88,1081.9675 C366.7,1081.9775 366.52,1081.9975 366.35,1082.0575 C366.08,1082.1575 365.82,1082.3075 365.6,1082.5275 A0.5,0.5 0 1 0 366.29,1083.2175 C366.4,1083.1075 366.53,1083.0475 366.67,1082.9975 C367.02,1082.8775 367.45,1082.9275 367.73,1083.2175 C368.12,1083.6075 368.12,1084.2575 367.73,1084.6575 L366.23,1086.1575 C365.79,1086.5975 365.43,1086.6375 365.17,1086.6275 C364.91,1086.6175 364.76,1086.4975 364.76,1086.4975 A0.5,0.5 0 1 0 364.26,1087.3775 C364.6,1087.5975 364.6,1087.5975 365.1,1087.6275 C365.6,1087.6575 366.3,1087.4675 366.91,1086.8475 L368.41,1085.3475 C369.19,1084.5675 369.19,1083.3075 368.41,1082.5375 C368.13,1082.2575 367.8,1082.0875 367.44,1082.0075 C367.26,1081.9675 367.06,1081.9675 366.88,1081.9775 M364.88,1084.2775 C364.38,1084.2575 363.69,1084.4275 363.1,1085.0275 L361.6,1086.5275 C360.82,1087.3075 360.82,1088.5675 361.6,1089.3375 C362.16,1089.8975 362.96,1090.0575 363.66,1089.8075 C363.93,1089.7075 364.19,1089.5575 364.41,1089.3375 A0.5,0.5 0 1 0 363.72,1088.6475 C363.61,1088.7575 363.48,1088.8175 363.34,1088.8675 C362.99,1088.9875 362.56,1088.9375 362.28,1088.6475 C361.89,1088.2575 361.89,1087.6075 362.28,1087.2075 L363.78,1085.7075 C364.18,1085.3075 364.53,1085.2575 364.81,1085.2675 C365.09,1085.2775 365.28,1085.3575 365.28,1085.3575 A0.5,0.5 0 1 0 365.72,1084.4775 C365.38,1084.2775 365.38,1084.2775 364.88,1084.2575 " fill="#000000" style="stroke:;stroke-width:0.0;stroke-dasharray:;"/><text fill="#000000" font-family="sans-serif" font-size="11" font-style="italic" lengthAdjust="spacing" textLength="127" x="373" y="1090.5205">measurement_settings_id</text><path d="M366.88,1095.8034 C366.7,1095.8134 366.52,1095.8334 366.35,1095.8934 C366.08,1095.9934 365.82,1096.1434 365.6,1096.3634 A0.5,0.5 0 1 0 366.29,1097.0534 C366.4,1096.9434 366.53,1096.8834 366.67,1096.8334 C367.02,1096.7134 367.45,1096.7634 367.73,1097.0534 C368.12,1097.4434 368.12,1098.0934 367.73,1098.4934 L366.23,1099.9934 C365.79,1100.4334 365.43,1100.4734 365.17,1100.4634 C364.91,1100.4534 364.76,1100.3334 364.76,1100.3334 A0.5,0.5 0 1 0 364.26,1101.2134 C364.6,1101.4334 364.6,1101.4334 365.1,1101.4634 C365.6,1101.4934 366.3,1101.3034 366.91,1100.6834 L368.41,1099.1834 C369.19,1098.4034 369.19,1097.1434 368.41,1096.3734 C368.13,1096.0934 367.8,1095.9234 367.44,1095.8434 C367.26,1095.8034 367.06,1095.8034 366.88,1095.8134 M364.88,1098.1134 C364.38,1098.0934 363.69,1098.2634 363.1,1098.8634 L361.6,1100.3634 C360.82,1101.1434 360.82,1102.4034 361.6,1103.1734 C362.16,1103.7334 362.96,1103.8934 363.66,1103.6434 C363.93,1103.5434 364.19,1103.3934 364.41,1103.1734 A0.5,0.5 0 1 0 363.72,1102.4834 C363.61,1102.5934 363.48,1102.6534 363.34,1102.7034 C362.99,1102.8234 362.56,1102.7734 362.28,1102.4834 C361.89,1102.0934 361.89,1101.4434 362.28,1101.0434 L363.78,1099.5434 C364.18,1099.1434 364.53,1099.0934 364.81,1099.1034 C365.09,1099.1134 365.28,1099.1934 365.28,1099.1934 A0.5,0.5 0 1 0 365.72,1098.3134 C365.38,1098.1134 365.38,1098.1134 364.88,1098.0934 " fill="#000000" style="stroke:;stroke-width:0.0;stroke-dasharray:;"/><text fill="#000000" font-family="sans-serif" font-size="11" font-style="italic" lengthAdjust="spacing" textLength="130" x="373" y="1104.3564">measurement_mapping_id</text><path d="M366.88,1109.6394 C366.7,1109.6494 366.52,1109.6694 366.35,1109.7294 C366.08,1109.8294 365.82,1109.9794 365.6,1110.1994 A0.5,0.5 0 1 0 366.29,1110.8894 C366.4,1110.7794 366.53,1110.7194 366.67,1110.6694 C367.02,1110.5494 367.45,1110.5994 367.73,1110.8894 C368.12,1111.2794 368.12,1111.9294 367.73,1112.3294 L366.23,1113.8294 C365.79,1114.2694 365.43,1114.3094 365.17,1114.2994 C364.91,1114.2894 364.76,1114.1694 364.76,1114.1694 A0.5,0.5 0 1 0 364.26,1115.0494 C364.6,1115.2694 364.6,1115.2694 365.1,1115.2994 C365.6,1115.3294 366.3,1115.1394 366.91,1114.5194 L368.41,1113.0194 C369.19,1112.2394 369.19,1110.9794 368.41,1110.2094 C368.13,1109.9294 367.8,1109.7594 367.44,1109.6794 C367.26,1109.6394 367.06,1109.6394 366.88,1109.6494 M364.88,1111.9494 C364.38,1111.9294 363.69,1112.0994 363.1,1112.6994 L361.6,1114.1994 C360.82,1114.9794 360.82,1116.2394 361.6,1117.0094 C362.16,1117.5694 362.96,1117.7294 363.66,1117.4794 C363.93,1117.3794 364.19,1117.2294 364.41,1117.0094 A0.5,0.5 0 1 0 363.72,1116.3194 C363.61,1116.4294 363.48,1116.4894 363.34,1116.5394 C362.99,1116.6594 362.56,1116.6094 362.28,1116.3194 C361.89,1115.9294 361.89,1115.2794 362.28,1114.8794 L363.78,1113.3794 C364.18,1112.9794 364.53,1112.9294 364.81,1112.9394 C365.09,1112.9494 365.28,1113.0294 365.28,1113.0294 A0.5,0.5 0 1 0 365.72,1112.1494 C365.38,1111.9494 365.38,1111.9494 364.88,1111.9294 " fill="#000000" style="stroke:;stroke-width:0.0;stroke-dasharray:;"/><text fill="#000000" font-family="sans-serif" font-size="11" font-style="italic" lengthAdjust="spacing" textLength="103" x="373" y="1118.1924">experiment_setup_id</text><path d="M366.88,1123.4753 C366.7,1123.4853 366.52,1123.5053 366.35,1123.5653 C366.08,1123.6653 365.82,1123.8153 365.6,1124.0353 A0.5,0.5 0 1 0 366.29,1124.7253 C366.4,1124.6153 366.53,1124.5553 366.67,1124.5053 C367.02,1124.3853 367.45,1124.4353 367.73,1124.7253 C368.12,1125.1153 368.12,1125.7653 367.73,1126.1653 L366.23,1127.6653 C365.79,1128.1053 365.43,1128.1453 365.17,1128.1353 C364.91,1128.1253 364.76,1128.0053 364.76,1128.0053 A0.5,0.5 0 1 0 364.26,1128.8853 C364.6,1129.1053 364.6,1129.1053 365.1,1129.1353 C365.6,1129.1653 366.3,1128.9753 366.91,1128.3553 L368.41,1126.8553 C369.19,1126.0753 369.19,1124.8153 368.41,1124.0453 C368.13,1123.7653 367.8,1123.5953 367.44,1123.5153 C367.26,1123.4753 367.06,1123.4753 366.88,1123.4853 M364.88,1125.7853 C364.38,1125.7653 363.69,1125.9353 363.1,1126.5353 L361.6,1128.0353 C360.82,1128.8153 360.82,1130.0753 361.6,1130.8453 C362.16,1131.4053 362.96,1131.5653 363.66,1131.3153 C363.93,1131.2153 364.19,1131.0653 364.41,1130.8453 A0.5,0.5 0 1 0 363.72,1130.1553 C363.61,1130.2653 363.48,1130.3253 363.34,1130.3753 C362.99,1130.4953 362.56,1130.4453 362.28,1130.1553 C361.89,1129.7653 361.89,1129.1153 362.28,1128.7153 L363.78,1127.2153 C364.18,1126.8153 364.53,1126.7653 364.81,1126.7753 C365.09,1126.7853 365.28,1126.8653 365.28,1126.8653 A0.5,0.5 0 1 0 365.72,1125.9853 C365.38,1125.7853 365.38,1125.7853 364.88,1125.7653 " fill="#000000" style="stroke:;stroke-width:0.0;stroke-dasharray:;"/><text fill="#000000" font-family="sans-serif" font-size="11" font-style="italic" lengthAdjust="spacing" textLength="116" x="373" y="1132.0283">measurement_script_id</text><path d="M366.88,1137.3113 C366.7,1137.3213 366.52,1137.3413 366.35,1137.4013 C366.08,1137.5013 365.82,1137.6513 365.6,1137.8713 A0.5,0.5 0 1 0 366.29,1138.5613 C366.4,1138.4513 366.53,1138.3913 366.67,1138.3413 C367.02,1138.2213 367.45,1138.2713 367.73,1138.5613 C368.12,1138.9513 368.12,1139.6013 367.73,1140.0013 L366.23,1141.5013 C365.79,1141.9413 365.43,1141.9813 365.17,1141.9713 C364.91,1141.9613 364.76,1141.8413 364.76,1141.8413 A0.5,0.5 0 1 0 364.26,1142.7213 C364.6,1142.9413 364.6,1142.9413 365.1,1142.9713 C365.6,1143.0013 366.3,1142.8113 366.91,1142.1913 L368.41,1140.6913 C369.19,1139.9113 369.19,1138.6513 368.41,1137.8813 C368.13,1137.6013 367.8,1137.4313 367.44,1137.3513 C367.26,1137.3113 367.06,1137.3113 366.88,1137.3213 M364.88,1139.6213 C364.38,1139.6013 363.69,1139.7713 363.1,1140.3713 L361.6,1141.8713 C360.82,1142.6513 360.82,1143.9113 361.6,1144.6813 C362.16,1145.2413 362.96,1145.4013 363.66,1145.1513 C363.93,1145.0513 364.19,1144.9013 364.41,1144.6813 A0.5,0.5 0 1 0 363.72,1143.9913 C363.61,1144.1013 363.48,1144.1613 363.34,1144.2113 C362.99,1144.3313 362.56,1144.2813 362.28,1143.9913 C361.89,1143.6013 361.89,1142.9513 362.28,1142.5513 L363.78,1141.0513 C364.18,1140.6513 364.53,1140.6013 364.81,1140.6113 C365.09,1140.6213 365.28,1140.7013 365.28,1140.7013 A0.5,0.5 0 1 0 365.72,1139.8213 C365.38,1139.6213 365.38,1139.6213 364.88,1139.6013 " fill="#000000" style="stroke:;stroke-width:0.0;stroke-dasharray:;"/><text fill="#000000" font-family="sans-serif" font-size="11" font-style="italic" lengthAdjust="spacing" textLength="119" x="373" y="1145.8643">measurement_series_id</text><path d="M366.88,1151.1472 C366.7,1151.1572 366.52,1151.1772 366.35,1151.2372 C366.08,1151.3372 365.82,1151.4872 365.6,1151.7072 A0.5,0.5 0 1 0 366.29,1152.3972 C366.4,1152.2872 366.53,1152.2272 366.67,1152.1772 C367.02,1152.0572 367.45,1152.1072 367.73,1152.3972 C368.12,1152.7872 368.12,1153.4372 367.73,1153.8372 L366.23,1155.3372 C365.79,1155.7772 365.43,1155.8172 365.17,1155.8072 C364.91,1155.7972 364.76,1155.6772 364.76,1155.6772 A0.5,0.5 0 1 0 364.26,1156.5572 C364.6,1156.7772 364.6,1156.7772 365.1,1156.8072 C365.6,1156.8372 366.3,1156.6472 366.91,1156.0272 L368.41,1154.5272 C369.19,1153.7472 369.19,1152.4872 368.41,1151.7172 C368.13,1151.4372 367.8,1151.2672 367.44,1151.1872 C367.26,1151.1472 367.06,1151.1472 366.88,1151.1572 M364.88,1153.4572 C364.38,1153.4372 363.69,1153.6072 363.1,1154.2072 L361.6,1155.7072 C360.82,1156.4872 360.82,1157.7472 361.6,1158.5172 C362.16,1159.0772 362.96,1159.2372 363.66,1158.9872 C363.93,1158.8872 364.19,1158.7372 364.41,1158.5172 A0.5,0.5 0 1 0 363.72,1157.8272 C363.61,1157.9372 363.48,1157.9972 363.34,1158.0472 C362.99,1158.1672 362.56,1158.1172 362.28,1157.8272 C361.89,1157.4372 361.89,1156.7872 362.28,1156.3872 L363.78,1154.8872 C364.18,1154.4872 364.53,1154.4372 364.81,1154.4472 C365.09,1154.4572 365.28,1154.5372 365.28,1154.5372 A0.5,0.5 0 1 0 365.72,1153.6572 C365.38,1153.4572 365.38,1153.4572 364.88,1153.4372 " fill="#000000" style="stroke:;stroke-width:0.0;stroke-dasharray:;"/><text fill="#000000" font-family="sans-serif" font-size="11" font-style="italic" lengthAdjust="spacing" textLength="118" x="373" y="1159.7002">measurement_data_id []</text><line style="stroke:#A80036;stroke-width:1.0;" x1="355" x2="508" y1="1166.1172" y2="1166.1172"/><ellipse cx="365" cy="1177.1172" fill="#000000" rx="3" ry="3" style="stroke:#000000;stroke-width:1.0;"/><text fill="#000000" font-family="sans-serif" font-size="11" lengthAdjust="spacing" textLength="48" x="374" y="1181.5361">name : str</text><ellipse cx="365" cy="1190.9531" fill="#000000" rx="3" ry="3" style="stroke:#000000;stroke-width:1.0;"/><text fill="#000000" font-family="sans-serif" font-size="11" lengthAdjust="spacing" textLength="70" x="374" y="1195.3721">datetime : date</text><ellipse cx="365" cy="1204.7891" fill="#000000" rx="3" ry="3" style="stroke:#000000;stroke-width:1.0;"/><text fill="#000000" font-family="sans-serif" font-size="11" lengthAdjust="spacing" textLength="44" x="374" y="1209.208">user : str</text><ellipse cx="365" cy="1218.625" fill="#000000" rx="3" ry="3" style="stroke:#000000;stroke-width:1.0;"/><text fill="#000000" font-family="sans-serif" font-size="11" lengthAdjust="spacing" textLength="51" x="374" y="1223.0439">valid : bool</text><text fill="#000000" font-family="sans-serif" font-size="11" lengthAdjust="spacing" textLength="71" x="374" y="1236.8799">comments : str</text><!--MD5=[c6c9b16a60a47eaa2e3e6090ea53670c]
class measData--><rect codeLine="34" fill="#FEFECE" filter="url(#f1gk8retjwsnny)" height="96.4375" id="measData" style="stroke:#A80036;stroke-width:1.5;" width="113" x="710" y="1515.5"/><text fill="#000000" font-family="sans-serif" font-size="12" lengthAdjust="spacing" textLength="102" x="715.5" y="1532.957">MeasurementData</text><line style="stroke:#A80036;stroke-width:1.5;" x1="711" x2="822" y1="1540.5938" y2="1540.5938"/><path d="M722.5,1547.4297 C721.12,1547.4297 720,1548.5497 720,1549.9297 C720,1550.0897 720,1550.2497 720.03,1550.3997 L717,1553.4297 L717,1555.4297 L720,1555.4297 L720,1553.4297 L722,1553.4297 L722,1552.4297 L722.03,1552.3997 C722.18,1552.4297 722.34,1552.4297 722.5,1552.4297 C723.88,1552.4297 725,1551.3097 725,1549.9297 C725,1548.5497 723.88,1547.4297 722.5,1547.4297 M723,1548.4297 C723.55,1548.4297 724,1548.8797 724,1549.4297 C724,1549.9797 723.55,1550.4297 723,1550.4297 C722.45,1550.4297 722,1549.9797 722,1549.4297 C722,1548.8797 722.45,1548.4297 723,1548.4297 " fill="#000000" style="stroke:;stroke-width:0.0;stroke-dasharray:;"/><text fill="#000000" font-family="sans-serif" font-size="11" font-weight="bold" lengthAdjust="spacing" textLength="10" x="729" y="1556.0127">ID</text><line style="stroke:#A80036;stroke-width:1.0;" x1="711" x2="822" y1="1562.4297" y2="1562.4297"/><ellipse cx="721" cy="1573.4297" fill="#000000" rx="3" ry="3" style="stroke:#000000;stroke-width:1.0;"/><text fill="#000000" font-family="sans-serif" font-size="11" lengthAdjust="spacing" textLength="48" x="730" y="1577.8486">name : str</text><ellipse cx="721" cy="1587.2656" fill="#000000" rx="3" ry="3" style="stroke:#000000;stroke-width:1.0;"/><text fill="#000000" font-family="sans-serif" font-size="11" lengthAdjust="spacing" textLength="70" x="730" y="1591.6846">data_type : str</text><ellipse cx="721" cy="1601.1016" fill="#000000" rx="3" ry="3" style="stroke:#000000;stroke-width:1.0;"/><text fill="#000000" font-family="sans-serif" font-size="11" lengthAdjust="spacing" textLength="87" x="730" y="1605.5205">path_to_data : link</text><!--MD5=[9948edb7036b751a68bc7bbe2554e6ae]
class exp--><rect codeLine="42" fill="#FEFECE" filter="url(#f1gk8retjwsnny)" height="124.1094" id="exp" style="stroke:#A80036;stroke-width:1.5;" width="140" x="696.5" y="1129.5"/><text fill="#000000" font-family="sans-serif" font-size="12" lengthAdjust="spacing" textLength="94" x="719.5" y="1146.957">ExperimentSetup</text><line style="stroke:#A80036;stroke-width:1.5;" x1="697.5" x2="835.5" y1="1154.5938" y2="1154.5938"/><path d="M709,1161.4297 C707.62,1161.4297 706.5,1162.5497 706.5,1163.9297 C706.5,1164.0897 706.5,1164.2497 706.53,1164.3997 L703.5,1167.4297 L703.5,1169.4297 L706.5,1169.4297 L706.5,1167.4297 L708.5,1167.4297 L708.5,1166.4297 L708.53,1166.3997 C708.68,1166.4297 708.84,1166.4297 709,1166.4297 C710.38,1166.4297 711.5,1165.3097 711.5,1163.9297 C711.5,1162.5497 710.38,1161.4297 709,1161.4297 M709.5,1162.4297 C710.05,1162.4297 710.5,1162.8797 710.5,1163.4297 C710.5,1163.9797 710.05,1164.4297 709.5,1164.4297 C708.95,1164.4297 708.5,1163.9797 708.5,1163.4297 C708.5,1162.8797 708.95,1162.4297 709.5,1162.4297 " fill="#000000" style="stroke:;stroke-width:0.0;stroke-dasharray:;"/><text fill="#000000" font-family="sans-serif" font-size="11" font-weight="bold" lengthAdjust="spacing" textLength="10" x="715.5" y="1170.0127">ID</text><line style="stroke:#A80036;stroke-width:1.0;" x1="697.5" x2="835.5" y1="1176.4297" y2="1176.4297"/><ellipse cx="707.5" cy="1187.4297" fill="#000000" rx="3" ry="3" style="stroke:#000000;stroke-width:1.0;"/><text fill="#000000" font-family="sans-serif" font-size="11" lengthAdjust="spacing" textLength="48" x="716.5" y="1191.8486">name : str</text><text fill="#000000" font-family="sans-serif" font-size="11" lengthAdjust="spacing" textLength="114" x="716.5" y="1205.6846">temperature of cryostat</text><text fill="#000000" font-family="sans-serif" font-size="11" lengthAdjust="spacing" textLength="109" x="716.5" y="1219.5205">instruments / channels</text><text fill="#000000" font-family="sans-serif" font-size="11" lengthAdjust="spacing" textLength="87" x="716.5" y="1233.3564">standard_settings</text><text fill="#000000" font-family="sans-serif" font-size="11" lengthAdjust="spacing" textLength="27" x="716.5" y="1247.1924">filters</text><!--MD5=[ce2dbb44b864ce744af2bc77dc8a129f]
class measScript--><rect codeLine="52" fill="#FEFECE" filter="url(#f1gk8retjwsnny)" height="96.4375" id="measScript" style="stroke:#A80036;stroke-width:1.5;" width="113" x="986" y="1245.5"/><text fill="#000000" font-family="sans-serif" font-size="12" lengthAdjust="spacing" textLength="107" x="989" y="1262.957">MeasurementScript</text><line style="stroke:#A80036;stroke-width:1.5;" x1="987" x2="1098" y1="1270.5938" y2="1270.5938"/><path d="M998.5,1277.4297 C997.12,1277.4297 996,1278.5497 996,1279.9297 C996,1280.0897 996,1280.2497 996.03,1280.3997 L993,1283.4297 L993,1285.4297 L996,1285.4297 L996,1283.4297 L998,1283.4297 L998,1282.4297 L998.03,1282.3997 C998.18,1282.4297 998.34,1282.4297 998.5,1282.4297 C999.88,1282.4297 1001,1281.3097 1001,1279.9297 C1001,1278.5497 999.88,1277.4297 998.5,1277.4297 M999,1278.4297 C999.55,1278.4297 1000,1278.8797 1000,1279.4297 C1000,1279.9797 999.55,1280.4297 999,1280.4297 C998.45,1280.4297 998,1279.9797 998,1279.4297 C998,1278.8797 998.45,1278.4297 999,1278.4297 " fill="#000000" style="stroke:;stroke-width:0.0;stroke-dasharray:;"/><text fill="#000000" font-family="sans-serif" font-size="11" font-weight="bold" lengthAdjust="spacing" textLength="10" x="1005" y="1286.0127">ID</text><line style="stroke:#A80036;stroke-width:1.0;" x1="987" x2="1098" y1="1292.4297" y2="1292.4297"/><ellipse cx="997" cy="1303.4297" fill="#000000" rx="3" ry="3" style="stroke:#000000;stroke-width:1.0;"/><text fill="#000000" font-family="sans-serif" font-size="11" lengthAdjust="spacing" textLength="48" x="1006" y="1307.8486">name : str</text><text fill="#000000" font-family="sans-serif" font-size="11" lengthAdjust="spacing" textLength="66" x="1006" y="1321.6846">language : str</text><text fill="#000000" font-family="sans-serif" font-size="11" lengthAdjust="spacing" textLength="49" x="1006" y="1335.5205">script : str</text><!--MD5=[24d3c90cae9fb7f3a483f3d3fb7c994c]
class measSettings--><rect codeLine="60" fill="#FEFECE" filter="url(#f1gk8retjwsnny)" height="82.6016" id="measSettings" style="stroke:#A80036;stroke-width:1.5;" width="127" x="703" y="881.5"/><text fill="#000000" font-family="sans-serif" font-size="12" lengthAdjust="spacing" textLength="121" x="706" y="898.957">MeasurementSettings</text><line style="stroke:#A80036;stroke-width:1.5;" x1="704" x2="829" y1="906.5938" y2="906.5938"/><path d="M715.5,913.4297 C714.12,913.4297 713,914.5497 713,915.9297 C713,916.0897 713,916.2497 713.03,916.3997 L710,919.4297 L710,921.4297 L713,921.4297 L713,919.4297 L715,919.4297 L715,918.4297 L715.03,918.3997 C715.18,918.4297 715.34,918.4297 715.5,918.4297 C716.88,918.4297 718,917.3097 718,915.9297 C718,914.5497 716.88,913.4297 715.5,913.4297 M716,914.4297 C716.55,914.4297 717,914.8797 717,915.4297 C717,915.9797 716.55,916.4297 716,916.4297 C715.45,916.4297 715,915.9797 715,915.4297 C715,914.8797 715.45,914.4297 716,914.4297 " fill="#000000" style="stroke:;stroke-width:0.0;stroke-dasharray:;"/><text fill="#000000" font-family="sans-serif" font-size="11" font-weight="bold" lengthAdjust="spacing" textLength="10" x="722" y="922.0127">ID</text><line style="stroke:#A80036;stroke-width:1.0;" x1="704" x2="829" y1="928.4297" y2="928.4297"/><ellipse cx="714" cy="939.4297" fill="#000000" rx="3" ry="3" style="stroke:#000000;stroke-width:1.0;"/><text fill="#000000" font-family="sans-serif" font-size="11" lengthAdjust="spacing" textLength="48" x="723" y="943.8486">name : str</text><text fill="#000000" font-family="sans-serif" font-size="11" lengthAdjust="spacing" textLength="60" x="723" y="957.6846">settings : str</text><!--MD5=[d6a71860e4937011f1c5e0bbdf2e72b9]
class measMapping--><rect codeLine="67" fill="#FEFECE" filter="url(#f1gk8retjwsnny)" height="82.6016" id="measMapping" style="stroke:#A80036;stroke-width:1.5;" width="129" x="702" y="1005.5"/><text fill="#000000" font-family="sans-serif" font-size="12" lengthAdjust="spacing" textLength="123" x="705" y="1022.957">MeasurementMapping</text><line style="stroke:#A80036;stroke-width:1.5;" x1="703" x2="830" y1="1030.5938" y2="1030.5938"/><path d="M714.5,1037.4297 C713.12,1037.4297 712,1038.5497 712,1039.9297 C712,1040.0897 712,1040.2497 712.03,1040.3997 L709,1043.4297 L709,1045.4297 L712,1045.4297 L712,1043.4297 L714,1043.4297 L714,1042.4297 L714.03,1042.3997 C714.18,1042.4297 714.34,1042.4297 714.5,1042.4297 C715.88,1042.4297 717,1041.3097 717,1039.9297 C717,1038.5497 715.88,1037.4297 714.5,1037.4297 M715,1038.4297 C715.55,1038.4297 716,1038.8797 716,1039.4297 C716,1039.9797 715.55,1040.4297 715,1040.4297 C714.45,1040.4297 714,1039.9797 714,1039.4297 C714,1038.8797 714.45,1038.4297 715,1038.4297 " fill="#000000" style="stroke:;stroke-width:0.0;stroke-dasharray:;"/><text fill="#000000" font-family="sans-serif" font-size="11" font-weight="bold" lengthAdjust="spacing" textLength="10" x="721" y="1046.0127">ID</text><line style="stroke:#A80036;stroke-width:1.0;" x1="703" x2="830" y1="1052.4297" y2="1052.4297"/><ellipse cx="713" cy="1063.4297" fill="#000000" rx="3" ry="3" style="stroke:#000000;stroke-width:1.0;"/><text fill="#000000" font-family="sans-serif" font-size="11" lengthAdjust="spacing" textLength="48" x="722" y="1067.8486">name : str</text><text fill="#000000" font-family="sans-serif" font-size="11" lengthAdjust="spacing" textLength="62" x="722" y="1081.6846">mapping : str</text><!--MD5=[ea480f5b18a3fc6ed6268dcacbfb016a]
class measType--><rect codeLine="74" fill="#FEFECE" filter="url(#f1gk8retjwsnny)" height="104.4375" id="measType" style="stroke:#A80036;stroke-width:1.5;" width="163" x="685" y="736"/><text fill="#000000" font-family="sans-serif" font-size="12" lengthAdjust="spacing" textLength="102" x="715.5" y="753.457">MeasurementType</text><line style="stroke:#A80036;stroke-width:1.5;" x1="686" x2="847" y1="761.0938" y2="761.0938"/><path d="M697.5,767.9297 C696.12,767.9297 695,769.0497 695,770.4297 C695,770.5897 695,770.7497 695.03,770.8997 L692,773.9297 L692,775.9297 L695,775.9297 L695,773.9297 L697,773.9297 L697,772.9297 L697.03,772.8997 C697.18,772.9297 697.34,772.9297 697.5,772.9297 C698.88,772.9297 700,771.8097 700,770.4297 C700,769.0497 698.88,767.9297 697.5,767.9297 M698,768.9297 C698.55,768.9297 699,769.3797 699,769.9297 C699,770.4797 698.55,770.9297 698,770.9297 C697.45,770.9297 697,770.4797 697,769.9297 C697,769.3797 697.45,768.9297 698,768.9297 " fill="#000000" style="stroke:;stroke-width:0.0;stroke-dasharray:;"/><text fill="#000000" font-family="sans-serif" font-size="11" font-weight="bold" lengthAdjust="spacing" textLength="10" x="704" y="776.5127">ID</text><line style="stroke:#A80036;stroke-width:1.0;" x1="686" x2="847" y1="782.9297" y2="782.9297"/><path d="M697.88,789.7956 C697.7,789.8056 697.52,789.8256 697.35,789.8856 C697.08,789.9856 696.82,790.1356 696.6,790.3556 A0.5,0.5 0 1 0 697.29,791.0456 C697.4,790.9356 697.53,790.8756 697.67,790.8256 C698.02,790.7056 698.45,790.7556 698.73,791.0456 C699.12,791.4356 699.12,792.0856 698.73,792.4856 L697.23,793.9856 C696.79,794.4256 696.43,794.4656 696.17,794.4556 C695.91,794.4456 695.76,794.3256 695.76,794.3256 A0.5,0.5 0 1 0 695.26,795.2056 C695.6,795.4256 695.6,795.4256 696.1,795.4556 C696.6,795.4856 697.3,795.2956 697.91,794.6756 L699.41,793.1756 C700.19,792.3956 700.19,791.1356 699.41,790.3656 C699.13,790.0856 698.8,789.9156 698.44,789.8356 C698.26,789.7956 698.06,789.7956 697.88,789.8056 M695.88,792.1056 C695.38,792.0856 694.69,792.2556 694.1,792.8556 L692.6,794.3556 C691.82,795.1356 691.82,796.3956 692.6,797.1656 C693.16,797.7256 693.96,797.8856 694.66,797.6356 C694.93,797.5356 695.19,797.3856 695.41,797.1656 A0.5,0.5 0 1 0 694.72,796.4756 C694.61,796.5856 694.48,796.6456 694.34,796.6956 C693.99,796.8156 693.56,796.7656 693.28,796.4756 C692.89,796.0856 692.89,795.4356 693.28,795.0356 L694.78,793.5356 C695.18,793.1356 695.53,793.0856 695.81,793.0956 C696.09,793.1056 696.28,793.1856 696.28,793.1856 A0.5,0.5 0 1 0 696.72,792.3056 C696.38,792.1056 696.38,792.1056 695.88,792.0856 " fill="#000000" style="stroke:;stroke-width:0.0;stroke-dasharray:;"/><text fill="#000000" font-family="sans-serif" font-size="11" font-style="italic" lengthAdjust="spacing" textLength="106" x="704" y="798.3486">script_templates_id []</text><line style="stroke:#A80036;stroke-width:1.0;" x1="686" x2="847" y1="804.7656" y2="804.7656"/><ellipse cx="696" cy="815.7656" fill="#000000" rx="3" ry="3" style="stroke:#000000;stroke-width:1.0;"/><text fill="#000000" font-family="sans-serif" font-size="11" lengthAdjust="spacing" textLength="48" x="705" y="820.1846">name : str</text><text fill="#000000" font-family="sans-serif" font-size="11" lengthAdjust="spacing" textLength="137" x="705" y="834.0205">extractable_parameters : str</text><!--MD5=[9b73542b8fc41fff718487f4af8b17c6]
class analysis--><rect codeLine="97" fill="#FEFECE" filter="url(#f1gk8retjwsnny)" height="124.1094" id="analysis" style="stroke:#A80036;stroke-width:1.5;" width="98" x="382.5" y="1278.5"/><text fill="#000000" font-family="sans-serif" font-size="12" lengthAdjust="spacing" textLength="46" x="408.5" y="1295.957">Analysis</text><line style="stroke:#A80036;stroke-width:1.5;" x1="383.5" x2="479.5" y1="1303.5938" y2="1303.5938"/><path d="M395,1310.4297 C393.62,1310.4297 392.5,1311.5497 392.5,1312.9297 C392.5,1313.0897 392.5,1313.2497 392.53,1313.3997 L389.5,1316.4297 L389.5,1318.4297 L392.5,1318.4297 L392.5,1316.4297 L394.5,1316.4297 L394.5,1315.4297 L394.53,1315.3997 C394.68,1315.4297 394.84,1315.4297 395,1315.4297 C396.38,1315.4297 397.5,1314.3097 397.5,1312.9297 C397.5,1311.5497 396.38,1310.4297 395,1310.4297 M395.5,1311.4297 C396.05,1311.4297 396.5,1311.8797 396.5,1312.4297 C396.5,1312.9797 396.05,1313.4297 395.5,1313.4297 C394.95,1313.4297 394.5,1312.9797 394.5,1312.4297 C394.5,1311.8797 394.95,1311.4297 395.5,1311.4297 " fill="#000000" style="stroke:;stroke-width:0.0;stroke-dasharray:;"/><text fill="#000000" font-family="sans-serif" font-size="11" font-weight="bold" lengthAdjust="spacing" textLength="10" x="401.5" y="1319.0127">ID</text><line style="stroke:#A80036;stroke-width:1.0;" x1="383.5" x2="479.5" y1="1325.4297" y2="1325.4297"/><ellipse cx="393.5" cy="1336.4297" fill="#000000" rx="3" ry="3" style="stroke:#000000;stroke-width:1.0;"/><text fill="#000000" font-family="sans-serif" font-size="11" lengthAdjust="spacing" textLength="48" x="402.5" y="1340.8486">name : str</text><text fill="#000000" font-family="sans-serif" font-size="11" lengthAdjust="spacing" textLength="35" x="402.5" y="1354.6846">method</text><text fill="#000000" font-family="sans-serif" font-size="11" lengthAdjust="spacing" textLength="33" x="402.5" y="1368.5205">results</text><text fill="#000000" font-family="sans-serif" font-size="11" lengthAdjust="spacing" textLength="27" x="402.5" y="1382.3564">script</text><text fill="#000000" font-family="sans-serif" font-size="11" lengthAdjust="spacing" textLength="72" x="402.5" y="1396.1924">software_filter</text><!--MD5=[95bc43d0acf383e27c96f5243c70d663]
class analysisResults--><rect codeLine="107" fill="#FEFECE" filter="url(#f1gk8retjwsnny)" height="118.2734" id="analysisResults" style="stroke:#A80036;stroke-width:1.5;" width="210" x="7" y="1177.5"/><text fill="#000000" font-family="sans-serif" font-size="12" lengthAdjust="spacing" textLength="82" x="71" y="1194.957">AnalysisResult</text><line style="stroke:#A80036;stroke-width:1.5;" x1="8" x2="216" y1="1202.5938" y2="1202.5938"/><path d="M19.5,1209.4297 C18.12,1209.4297 17,1210.5497 17,1211.9297 C17,1212.0897 17,1212.2497 17.03,1212.3997 L14,1215.4297 L14,1217.4297 L17,1217.4297 L17,1215.4297 L19,1215.4297 L19,1214.4297 L19.03,1214.3997 C19.18,1214.4297 19.34,1214.4297 19.5,1214.4297 C20.88,1214.4297 22,1213.3097 22,1211.9297 C22,1210.5497 20.88,1209.4297 19.5,1209.4297 M20,1210.4297 C20.55,1210.4297 21,1210.8797 21,1211.4297 C21,1211.9797 20.55,1212.4297 20,1212.4297 C19.45,1212.4297 19,1211.9797 19,1211.4297 C19,1210.8797 19.45,1210.4297 20,1210.4297 " fill="#000000" style="stroke:;stroke-width:0.0;stroke-dasharray:;"/><text fill="#000000" font-family="sans-serif" font-size="11" font-weight="bold" lengthAdjust="spacing" textLength="10" x="26" y="1218.0127">ID</text><line style="stroke:#A80036;stroke-width:1.0;" x1="8" x2="216" y1="1224.4297" y2="1224.4297"/><path d="M19.88,1231.2956 C19.7,1231.3056 19.52,1231.3256 19.35,1231.3856 C19.08,1231.4856 18.82,1231.6356 18.6,1231.8556 A0.5,0.5 0 1 0 19.29,1232.5456 C19.4,1232.4356 19.53,1232.3756 19.67,1232.3256 C20.02,1232.2056 20.45,1232.2556 20.73,1232.5456 C21.12,1232.9356 21.12,1233.5856 20.73,1233.9856 L19.23,1235.4856 C18.79,1235.9256 18.43,1235.9656 18.17,1235.9556 C17.91,1235.9456 17.76,1235.8256 17.76,1235.8256 A0.5,0.5 0 1 0 17.26,1236.7056 C17.6,1236.9256 17.6,1236.9256 18.1,1236.9556 C18.6,1236.9856 19.3,1236.7956 19.91,1236.1756 L21.41,1234.6756 C22.19,1233.8956 22.19,1232.6356 21.41,1231.8656 C21.13,1231.5856 20.8,1231.4156 20.44,1231.3356 C20.26,1231.2956 20.06,1231.2956 19.88,1231.3056 M17.88,1233.6056 C17.38,1233.5856 16.69,1233.7556 16.1,1234.3556 L14.6,1235.8556 C13.82,1236.6356 13.82,1237.8956 14.6,1238.6656 C15.16,1239.2256 15.96,1239.3856 16.66,1239.1356 C16.93,1239.0356 17.19,1238.8856 17.41,1238.6656 A0.5,0.5 0 1 0 16.72,1237.9756 C16.61,1238.0856 16.48,1238.1456 16.34,1238.1956 C15.99,1238.3156 15.56,1238.2656 15.28,1237.9756 C14.89,1237.5856 14.89,1236.9356 15.28,1236.5356 L16.78,1235.0356 C17.18,1234.6356 17.53,1234.5856 17.81,1234.5956 C18.09,1234.6056 18.28,1234.6856 18.28,1234.6856 A0.5,0.5 0 1 0 18.72,1233.8056 C18.38,1233.6056 18.38,1233.6056 17.88,1233.5856 " fill="#000000" style="stroke:;stroke-width:0.0;stroke-dasharray:;"/><text fill="#000000" font-family="sans-serif" font-size="11" font-style="italic" lengthAdjust="spacing" textLength="82" x="26" y="1239.8486">measurement_id</text><path d="M19.88,1245.1316 C19.7,1245.1416 19.52,1245.1616 19.35,1245.2216 C19.08,1245.3216 18.82,1245.4716 18.6,1245.6916 A0.5,0.5 0 1 0 19.29,1246.3816 C19.4,1246.2716 19.53,1246.2116 19.67,1246.1616 C20.02,1246.0416 20.45,1246.0916 20.73,1246.3816 C21.12,1246.7716 21.12,1247.4216 20.73,1247.8216 L19.23,1249.3216 C18.79,1249.7616 18.43,1249.8016 18.17,1249.7916 C17.91,1249.7816 17.76,1249.6616 17.76,1249.6616 A0.5,0.5 0 1 0 17.26,1250.5416 C17.6,1250.7616 17.6,1250.7616 18.1,1250.7916 C18.6,1250.8216 19.3,1250.6316 19.91,1250.0116 L21.41,1248.5116 C22.19,1247.7316 22.19,1246.4716 21.41,1245.7016 C21.13,1245.4216 20.8,1245.2516 20.44,1245.1716 C20.26,1245.1316 20.06,1245.1316 19.88,1245.1416 M17.88,1247.4416 C17.38,1247.4216 16.69,1247.5916 16.1,1248.1916 L14.6,1249.6916 C13.82,1250.4716 13.82,1251.7316 14.6,1252.5016 C15.16,1253.0616 15.96,1253.2216 16.66,1252.9716 C16.93,1252.8716 17.19,1252.7216 17.41,1252.5016 A0.5,0.5 0 1 0 16.72,1251.8116 C16.61,1251.9216 16.48,1251.9816 16.34,1252.0316 C15.99,1252.1516 15.56,1252.1016 15.28,1251.8116 C14.89,1251.4216 14.89,1250.7716 15.28,1250.3716 L16.78,1248.8716 C17.18,1248.4716 17.53,1248.4216 17.81,1248.4316 C18.09,1248.4416 18.28,1248.5216 18.28,1248.5216 A0.5,0.5 0 1 0 18.72,1247.6416 C18.38,1247.4416 18.38,1247.4416 17.88,1247.4216 " fill="#000000" style="stroke:;stroke-width:0.0;stroke-dasharray:;"/><text fill="#000000" font-family="sans-serif" font-size="11" font-style="italic" lengthAdjust="spacing" textLength="56" x="26" y="1253.6846">analysis_id</text><line style="stroke:#A80036;stroke-width:1.0;" x1="8" x2="216" y1="1260.1016" y2="1260.1016"/><ellipse cx="18" cy="1271.1016" fill="#000000" rx="3" ry="3" style="stroke:#000000;stroke-width:1.0;"/><text fill="#000000" font-family="sans-serif" font-size="11" lengthAdjust="spacing" textLength="48" x="27" y="1275.5205">name : str</text><text fill="#000000" font-family="sans-serif" font-size="11" lengthAdjust="spacing" textLength="184" x="27" y="1289.3564">extracted parameters and their values</text><!--MD5=[15f713d0342201cfcc3c40616b1d12e2]
link wafer to sample--><path codeLine="91" d="M188.17,176.71 C272.96,170.61 270.54,69.41 355.3,63.29 " fill="none" id="wafer-sample" style="stroke:#A80036;stroke-width:1.0;"/><line style="stroke:#A80036;stroke-width:1.0;" x1="355.5046" x2="363.2965" y1="63.2713" y2="57.0035"/><line style="stroke:#A80036;stroke-width:1.0;" x1="355.5046" x2="363.7035" y1="63.2713" y2="68.9965"/><line style="stroke:#A80036;stroke-width:1.0;" x1="355.5046" x2="363.5" y1="63.2713" y2="63"/><line style="stroke:#A80036;stroke-width:1.0;" x1="353.3701" x2="353.6414" y1="59.3414" y2="67.3368"/><line style="stroke:#A80036;stroke-width:1.0;" x1="184.1333" x2="183.8621" y1="180.8621" y2="172.8667"/><line style="stroke:#A80036;stroke-width:1.0;" x1="187.1316" x2="186.8603" y1="180.7603" y2="172.7649"/><line style="stroke:#A80036;stroke-width:1.0;" x1="187.9954" x2="180" y1="176.7287" y2="177"/><polygon fill="#000000" points="255.8627,71.9835,264.9974,69.3361,261.6968,64.4725,255.8627,71.9835" style="stroke:#000000;stroke-width:1.0;"/><text fill="#000000" font-family="sans-serif" font-size="13" lengthAdjust="spacing" textLength="46" x="269" y="74.4951">made of</text><!--MD5=[0e59b744b182324f2bffe1c5120d6abc]
link wafer to factory--><path codeLine="92" d="M188.13,198.1 C256.41,199.82 273.98,223.12 346,230 C512.49,245.9 556.96,219.89 720.13,219.02 " fill="none" id="wafer-factory" style="stroke:#A80036;stroke-width:1.0;"/><line style="stroke:#A80036;stroke-width:1.0;" x1="724.4857" x2="724.5143" y1="215.0143" y2="223.0143"/><line style="stroke:#A80036;stroke-width:1.0;" x1="721.4858" x2="721.5143" y1="215.025" y2="223.025"/><line style="stroke:#A80036;stroke-width:1.0;" x1="720.5001" x2="728.5" y1="219.0286" y2="219"/><line style="stroke:#A80036;stroke-width:1.0;" x1="187.9994" x2="179.925" y1="198.1" y2="203.9995"/><line style="stroke:#A80036;stroke-width:1.0;" x1="187.9994" x2="180.075" y1="198.1" y2="192.0005"/><line style="stroke:#A80036;stroke-width:1.0;" x1="187.9994" x2="180" y1="198.1" y2="198"/><line style="stroke:#A80036;stroke-width:1.0;" x1="189.9492" x2="190.0492" y1="202.1247" y2="194.1253"/><polygon fill="#000000" points="391.4961,221.3722,382.5735,218.0802,382.3426,223.9535,391.4961,221.3722" style="stroke:#000000;stroke-width:1.0;"/><text fill="#000000" font-family="sans-serif" font-size="13" lengthAdjust="spacing" textLength="85" x="395.5" y="226.4951">is produced by</text><!--MD5=[e2a2ea025c9cbe5e47e743e99f54ab8a]
link sample to device--><path codeLine="93" d="M507.62,41.93 C569.64,40.83 603.35,28.49 647,76 C688.89,121.6 634.04,342.8 685.51,362.58 " fill="none" id="sample-device" style="stroke:#A80036;stroke-width:1.0;"/><line style="stroke:#A80036;stroke-width:1.0;" x1="685.6236" x2="694.5507" y1="362.5991" y2="358.0927"/><line style="stroke:#A80036;stroke-width:1.0;" x1="685.6236" x2="692.4493" y1="362.5991" y2="369.9073"/><line style="stroke:#A80036;stroke-width:1.0;" x1="685.6236" x2="693.5" y1="362.5991" y2="364"/><line style="stroke:#A80036;stroke-width:1.0;" x1="684.355" x2="682.9541" y1="358.3107" y2="366.1871"/><line style="stroke:#A80036;stroke-width:1.0;" x1="503.5356" x2="503.4641" y1="45.9641" y2="37.9644"/><line style="stroke:#A80036;stroke-width:1.0;" x1="506.5354" x2="506.464" y1="45.9373" y2="37.9377"/><line style="stroke:#A80036;stroke-width:1.0;" x1="507.4997" x2="499.5" y1="41.9286" y2="42"/><polygon fill="#000000" points="578.0744,26.8036,579.8924,36.1387,585.0323,33.2872,578.0744,26.8036" style="stroke:#000000;stroke-width:1.0;"/><text fill="#000000" font-family="sans-serif" font-size="13" lengthAdjust="spacing" textLength="28" x="589.5" y="36.4951">is on</text><!--MD5=[20dfa17e4404b9aee9917eb8ca6ebe97]
link sample to factory--><path codeLine="94" d="M507.52,76.88 C529.18,82.19 524.67,110.2 547,127 C617.08,179.73 636.88,216.71 720.48,218.9 " fill="none" id="sample-factory" style="stroke:#A80036;stroke-width:1.0;"/><line style="stroke:#A80036;stroke-width:1.0;" x1="724.5575" x2="724.4433" y1="214.9433" y2="222.9425"/><line style="stroke:#A80036;stroke-width:1.0;" x1="721.5579" x2="721.4436" y1="214.9004" y2="222.8996"/><line style="stroke:#A80036;stroke-width:1.0;" x1="720.5008" x2="728.5" y1="218.8857" y2="219"/><line style="stroke:#A80036;stroke-width:1.0;" x1="507.4525" x2="498.8468" y1="76.8709" y2="81.9643"/><line style="stroke:#A80036;stroke-width:1.0;" x1="507.4525" x2="500.1532" y1="76.8709" y2="70.0357"/><line style="stroke:#A80036;stroke-width:1.0;" x1="507.4525" x2="499.5" y1="76.8709" y2="76"/><line style="stroke:#A80036;stroke-width:1.0;" x1="509.0051" x2="509.876" y1="81.0649" y2="73.1124"/><polygon fill="#000000" points="556.1598,120.9499,550.2652,113.4864,547.004,118.3765,556.1598,120.9499" style="stroke:#000000;stroke-width:1.0;"/><text fill="#000000" font-family="sans-serif" font-size="13" lengthAdjust="spacing" textLength="85" x="561" y="123.4951">is produced by</text><!--MD5=[bfee60eb236904afb5027cfddcbcec64]
link sample to sampleLayout--><path codeLine="95" d="M507.66,89.38 C522.62,90.87 528.62,96.27 547,98 C591.25,102.16 602.57,98.97 647,98 C674.61,97.4 683.41,95.42 707.5,95.06 " fill="none" id="sample-sampleLayout" style="stroke:#A80036;stroke-width:1.0;"/><line style="stroke:#A80036;stroke-width:1.0;" x1="711.4715" x2="711.5287" y1="91.0287" y2="99.0285"/><line style="stroke:#A80036;stroke-width:1.0;" x1="708.4716" x2="708.5287" y1="91.0501" y2="99.0499"/><line style="stroke:#A80036;stroke-width:1.0;" x1="707.5002" x2="715.5" y1="95.0571" y2="95"/><line style="stroke:#A80036;stroke-width:1.0;" x1="507.4914" x2="499.2212" y1="89.3717" y2="94.9935"/><line style="stroke:#A80036;stroke-width:1.0;" x1="507.4914" x2="499.7788" y1="89.3717" y2="83.0065"/><line style="stroke:#A80036;stroke-width:1.0;" x1="507.4914" x2="499.5" y1="89.3717" y2="89"/><line style="stroke:#A80036;stroke-width:1.0;" x1="509.3034" x2="509.675" y1="93.4603" y2="85.4689"/><polygon fill="#000000" points="588.998,89.3178,580.04,86.1231,579.873,91.9986,588.998,89.3178" style="stroke:#000000;stroke-width:1.0;"/><text fill="#000000" font-family="sans-serif" font-size="13" lengthAdjust="spacing" textLength="21" x="593" y="94.4951">has</text><!--MD5=[b43127a3444c671885073759722b91aa]
link deviceLayout to device--><path codeLine="96" d="M491.64,543.73 C598.81,536.45 578.16,384.69 685.22,377.28 " fill="none" id="deviceLayout-device" style="stroke:#A80036;stroke-width:1.0;"/><line style="stroke:#A80036;stroke-width:1.0;" x1="685.5046" x2="693.2965" y1="377.2713" y2="371.0035"/><line style="stroke:#A80036;stroke-width:1.0;" x1="685.5046" x2="693.7035" y1="377.2713" y2="382.9965"/><line style="stroke:#A80036;stroke-width:1.0;" x1="685.5046" x2="693.5" y1="377.2713" y2="377"/><line style="stroke:#A80036;stroke-width:1.0;" x1="683.3701" x2="683.6414" y1="373.3414" y2="381.3368"/><line style="stroke:#A80036;stroke-width:1.0;" x1="487.6336" x2="487.3618" y1="547.8618" y2="539.8664"/><line style="stroke:#A80036;stroke-width:1.0;" x1="490.6318" x2="490.3601" y1="547.7599" y2="539.7645"/><line style="stroke:#A80036;stroke-width:1.0;" x1="491.4954" x2="483.5" y1="543.7282" y2="544"/><polygon fill="#000000" points="580.2088,382.4357,588.9833,378.7669,585.151,374.3101,580.2088,382.4357" style="stroke:#000000;stroke-width:1.0;"/><text fill="#000000" font-family="sans-serif" font-size="13" lengthAdjust="spacing" textLength="21" x="593" y="384.4951">has</text><!--MD5=[90ece39ed29b4c2993c6886ebbb09010]
link deviceLayout to terminal--><path codeLine="97" d="M491.74,565.13 C592.3,568.33 613.8,629.76 714.47,632.88 " fill="none" id="deviceLayout-terminal" style="stroke:#A80036;stroke-width:1.0;"/><line style="stroke:#A80036;stroke-width:1.0;" x1="714.5008" x2="722.5857" y1="632.8857" y2="627.0006"/><line style="stroke:#A80036;stroke-width:1.0;" x1="714.5008" x2="722.4143" y1="632.8857" y2="638.9994"/><line style="stroke:#A80036;stroke-width:1.0;" x1="714.5008" x2="722.5" y1="632.8857" y2="633"/><line style="stroke:#A80036;stroke-width:1.0;" x1="712.5582" x2="712.4439" y1="628.8576" y2="636.8567"/><line style="stroke:#A80036;stroke-width:1.0;" x1="487.4425" x2="487.5567" y1="569.0567" y2="561.0575"/><line style="stroke:#A80036;stroke-width:1.0;" x1="490.4421" x2="490.5564" y1="569.0996" y2="561.1004"/><line style="stroke:#A80036;stroke-width:1.0;" x1="491.4992" x2="483.5" y1="565.1143" y2="565"/><polygon fill="#000000" points="588.7836,566.6309,580.9853,561.1869,579.2747,566.8103,588.7836,566.6309" style="stroke:#000000;stroke-width:1.0;"/><text fill="#000000" font-family="sans-serif" font-size="13" lengthAdjust="spacing" textLength="21" x="593" y="570.4951">has</text><!--MD5=[3b0bd8827ac148edd5c60e292573e3d7]
link measType to measScript--><path codeLine="83" d="M857.51,793.22 C1064.4,804.69 770.73,1268.98 977.28,1280.77 " fill="none" id="measType-measScript" style="stroke:#A80036;stroke-width:1.0;"/><line style="stroke:#A80036;stroke-width:1.0;" x1="977.5029" x2="985.6607" y1="1280.7858" y2="1275.0022"/><line style="stroke:#A80036;stroke-width:1.0;" x1="977.5029" x2="985.3393" y1="1280.7858" y2="1286.9978"/><line style="stroke:#A80036;stroke-width:1.0;" x1="977.5029" x2="985.5" y1="1280.7858" y2="1281"/><line style="stroke:#A80036;stroke-width:1.0;" x1="975.6107" x2="975.3965" y1="1276.7337" y2="1284.7308"/><line style="stroke:#A80036;stroke-width:1.0;" x1="857.4971" x2="849.3393" y1="793.2142" y2="798.9978"/><line style="stroke:#A80036;stroke-width:1.0;" x1="857.4971" x2="849.6607" y1="793.2142" y2="787.0022"/><line style="stroke:#A80036;stroke-width:1.0;" x1="857.4971" x2="849.5" y1="793.2142" y2="793"/><line style="stroke:#A80036;stroke-width:1.0;" x1="859.3893" x2="859.6035" y1="797.2663" y2="789.2692"/><polygon fill="#000000" points="892.1928,797.0314,892.8891,787.5464,887.1809,788.9486,892.1928,797.0314" style="stroke:#000000;stroke-width:1.0;"/><text fill="#000000" font-family="sans-serif" font-size="13" lengthAdjust="spacing" textLength="47" x="900" y="797.4951">provides</text><!--MD5=[c976b3d6580f64cbe8e4b7470a373fd0]
link meas to measSeries--><path codeLine="84" d="M518.5,1138.06 C551.49,1157 523.83,1300.76 547,1336 C591.69,1403.96 618.55,1438.66 696.31,1440.89 " fill="none" id="meas-measSeries" style="stroke:#A80036;stroke-width:1.0;"/><line style="stroke:#A80036;stroke-width:1.0;" x1="700.5575" x2="700.4433" y1="1436.9433" y2="1444.9425"/><line style="stroke:#A80036;stroke-width:1.0;" x1="697.5579" x2="697.4436" y1="1436.9004" y2="1444.8996"/><line style="stroke:#A80036;stroke-width:1.0;" x1="696.5008" x2="704.5" y1="1440.8857" y2="1441"/><line style="stroke:#A80036;stroke-width:1.0;" x1="518.2458" x2="508.9994" y1="1138.0008" y2="1141.8093"/><line style="stroke:#A80036;stroke-width:1.0;" x1="518.2458" x2="512.0006" y1="1138.0008" y2="1130.1907"/><line style="stroke:#A80036;stroke-width:1.0;" x1="518.2458" x2="510.5" y1="1138.0008" y2="1136"/><line style="stroke:#A80036;stroke-width:1.0;" x1="519.1818" x2="521.1826" y1="1142.3738" y2="1134.6281"/><!--MD5=[96141276677249c7ff3a54b75091e807]
link meas to measScript--><path codeLine="85" d="M516.42,1128.6 C545.94,1157.82 675.65,1291.43 677,1292 C800.96,1343.89 846.43,1283.57 977.17,1281.08 " fill="none" id="meas-measScript" style="stroke:#A80036;stroke-width:1.0;"/><line style="stroke:#A80036;stroke-width:1.0;" x1="981.4574" x2="981.5431" y1="1277.0431" y2="1285.0426"/><line style="stroke:#A80036;stroke-width:1.0;" x1="978.4575" x2="978.5433" y1="1277.0752" y2="1285.0748"/><line style="stroke:#A80036;stroke-width:1.0;" x1="977.5005" x2="985.5" y1="1281.0857" y2="1281"/><line style="stroke:#A80036;stroke-width:1.0;" x1="516.305" x2="506.3715" y1="1128.5047" y2="1127.3537"/><line style="stroke:#A80036;stroke-width:1.0;" x1="516.305" x2="514.6285" y1="1128.5047" y2="1118.6463"/><line style="stroke:#A80036;stroke-width:1.0;" x1="516.305" x2="510.5" y1="1128.5047" y2="1123"/><line style="stroke:#A80036;stroke-width:1.0;" x1="515.0039" x2="520.5086" y1="1132.7834" y2="1126.9784"/><polygon fill="#000000" points="754.7468,1284.7467,747.0831,1279.1148,745.2364,1284.695,754.7468,1284.7467" style="stroke:#000000;stroke-width:1.0;"/><text fill="#000000" font-family="sans-serif" font-size="13" lengthAdjust="spacing" textLength="28" x="759" y="1288.4951">uses</text><!--MD5=[55a2656e195254e10fab619bebf7af2e]
link meas to measType--><path codeLine="86" d="M518.63,1069.55 C579.91,1062.29 511.89,968.06 547,905 C566.5,869.98 633.06,782.49 676.42,772.03 " fill="none" id="meas-measType" style="stroke:#A80036;stroke-width:1.0;"/><line style="stroke:#A80036;stroke-width:1.0;" x1="680.0255" x2="681.0389" y1="767.5389" y2="775.4745"/><line style="stroke:#A80036;stroke-width:1.0;" x1="677.0497" x2="678.0631" y1="767.9189" y2="775.8545"/><line style="stroke:#A80036;stroke-width:1.0;" x1="676.5644" x2="684.5" y1="772.0134" y2="771"/><line style="stroke:#A80036;stroke-width:1.0;" x1="518.4878" x2="510.8316" y1="1069.5578" y2="1075.9908"/><line style="stroke:#A80036;stroke-width:1.0;" x1="518.4878" x2="510.1684" y1="1069.5578" y2="1064.0092"/><line style="stroke:#A80036;stroke-width:1.0;" x1="518.4878" x2="510.5" y1="1069.5578" y2="1070"/><line style="stroke:#A80036;stroke-width:1.0;" x1="520.7058" x2="520.2636" y1="1073.4412" y2="1065.4534"/><polygon fill="#000000" points="561.3427,773.7586,554.5084,780.3724,559.7011,783.1264,561.3427,773.7586" style="stroke:#000000;stroke-width:1.0;"/><text fill="#000000" font-family="sans-serif" font-size="13" lengthAdjust="spacing" textLength="71" x="568" y="783.4951">according to</text><!--MD5=[cf4b2ba40924ee4ced4564d77d019192]
link meas to measSettings--><path codeLine="87" d="M518.49,1081.9 C533.2,1077.24 532.1,1058.8 547,1045 C610.62,986.07 612.9,921.19 694.36,917.19 " fill="none" id="meas-measSettings" style="stroke:#A80036;stroke-width:1.0;"/><line style="stroke:#A80036;stroke-width:1.0;" x1="698.4082" x2="698.5939" y1="913.0939" y2="921.0918"/><line style="stroke:#A80036;stroke-width:1.0;" x1="695.4091" x2="695.5947" y1="913.1635" y2="921.1614"/><line style="stroke:#A80036;stroke-width:1.0;" x1="694.5022" x2="702.5" y1="917.1857" y2="917"/><line style="stroke:#A80036;stroke-width:1.0;" x1="518.4241" x2="511.3245" y1="1081.9006" y2="1088.9431"/><line style="stroke:#A80036;stroke-width:1.0;" x1="518.4241" x2="509.6755" y1="1081.9006" y2="1077.0569"/><line style="stroke:#A80036;stroke-width:1.0;" x1="518.4241" x2="510.5" y1="1081.9006" y2="1083"/><line style="stroke:#A80036;stroke-width:1.0;" x1="520.9548" x2="519.8554" y1="1085.5878" y2="1077.6637"/><polygon fill="#000000" points="581.6494,918.7579,573.0386,922.7958,577.0565,927.086,581.6494,918.7579" style="stroke:#000000;stroke-width:1.0;"/><text fill="#000000" font-family="sans-serif" font-size="13" lengthAdjust="spacing" textLength="33" x="587" y="927.4951">set to</text><!--MD5=[addf345781939c9daca8188cc0df2d38]
link meas to measMapping--><path codeLine="88" d="M518.57,1095.84 C597.11,1092.72 614.78,1044.37 693.2,1041.17 " fill="none" id="meas-measMapping" style="stroke:#A80036;stroke-width:1.0;"/><line style="stroke:#A80036;stroke-width:1.0;" x1="697.4222" x2="697.5793" y1="1037.0793" y2="1045.0778"/><line style="stroke:#A80036;stroke-width:1.0;" x1="694.4228" x2="694.5799" y1="1037.1382" y2="1045.1367"/><line style="stroke:#A80036;stroke-width:1.0;" x1="693.5015" x2="701.5" y1="1041.1571" y2="1041"/><line style="stroke:#A80036;stroke-width:1.0;" x1="518.4985" x2="510.6178" y1="1095.8429" y2="1101.9988"/><line style="stroke:#A80036;stroke-width:1.0;" x1="518.4985" x2="510.3822" y1="1095.8429" y2="1090.0012"/><line style="stroke:#A80036;stroke-width:1.0;" x1="518.4985" x2="510.5" y1="1095.8429" y2="1096"/><line style="stroke:#A80036;stroke-width:1.0;" x1="520.5766" x2="520.4195" y1="1099.8028" y2="1091.8044"/><!--MD5=[3aef4c3917a061174ec392e07f8e054b]
link meas to exp--><path codeLine="89" d="M518.56,1110.17 C552.04,1117.46 654.03,1156.57 687.47,1163.84 " fill="none" id="meas-exp" style="stroke:#A80036;stroke-width:1.0;"/><line style="stroke:#A80036;stroke-width:1.0;" x1="692.1128" x2="690.9694" y1="1160.4694" y2="1168.3872"/><line style="stroke:#A80036;stroke-width:1.0;" x1="689.1435" x2="688.0002" y1="1160.0406" y2="1167.9585"/><line style="stroke:#A80036;stroke-width:1.0;" x1="687.5821" x2="695.5" y1="1163.8566" y2="1165"/><line style="stroke:#A80036;stroke-width:1.0;" x1="518.4158" x2="509.632" y1="1110.1574" y2="1114.9369"/><line style="stroke:#A80036;stroke-width:1.0;" x1="518.4158" x2="511.368" y1="1110.1574" y2="1103.0631"/><line style="stroke:#A80036;stroke-width:1.0;" x1="518.4158" x2="510.5" y1="1110.1574" y2="1109"/><line style="stroke:#A80036;stroke-width:1.0;" x1="519.8161" x2="520.9735" y1="1114.4046" y2="1106.4888"/><polygon fill="#000000" points="561.7652,1110.6899,554.0348,1105.1499,552.2549,1110.7518,561.7652,1110.6899" style="stroke:#000000;stroke-width:1.0;"/><text fill="#000000" font-family="sans-serif" font-size="13" lengthAdjust="spacing" textLength="75" x="566" y="1114.4951">performed on</text><!--MD5=[ddc9b3f9ae88fc7479545fbe6af44769]
link meas to measData--><path codeLine="90" d="M518.66,1150.36 C573.76,1170.24 510.5,1402.8 547,1458 C591.38,1525.1 624.06,1549.38 701.37,1550.92 " fill="none" id="meas-measData" style="stroke:#A80036;stroke-width:1.0;"/><line style="stroke:#A80036;stroke-width:1.0;" x1="701.5005" x2="709.5643" y1="1550.9143" y2="1545.0003"/><line style="stroke:#A80036;stroke-width:1.0;" x1="701.5005" x2="709.4357" y1="1550.9143" y2="1556.9997"/><line style="stroke:#A80036;stroke-width:1.0;" x1="701.5005" x2="709.5" y1="1550.9143" y2="1551"/><line style="stroke:#A80036;stroke-width:1.0;" x1="699.5434" x2="699.4577" y1="1546.8931" y2="1554.8926"/><line style="stroke:#A80036;stroke-width:1.0;" x1="513.788" x2="515.1032" y1="1153.6032" y2="1145.712"/><line style="stroke:#A80036;stroke-width:1.0;" x1="516.7472" x2="518.0624" y1="1154.0964" y2="1146.2052"/><line style="stroke:#A80036;stroke-width:1.0;" x1="518.3912" x2="510.5" y1="1150.3152" y2="1149"/><polygon fill="#000000" points="568.075,1453.7249,566.9952,1444.2758,561.6474,1446.7151,568.075,1453.7249" style="stroke:#000000;stroke-width:1.0;"/><text fill="#000000" font-family="sans-serif" font-size="13" lengthAdjust="spacing" textLength="57" x="575" y="1454.4951">measured</text><!--MD5=[958959ddfe58ac0eef772561c8ec1cf3]
link analysisResults to analysis--><path codeLine="118" d="M226.01,1248.24 C294.3,1252.4 305.14,1309.52 373.35,1313.75 " fill="none" id="analysisResults-analysis" style="stroke:#A80036;stroke-width:1.0;"/><line style="stroke:#A80036;stroke-width:1.0;" x1="377.6232" x2="377.3805" y1="1309.8805" y2="1317.8768"/><line style="stroke:#A80036;stroke-width:1.0;" x1="374.6246" x2="374.3819" y1="1309.7894" y2="1317.7858"/><line style="stroke:#A80036;stroke-width:1.0;" x1="373.5037" x2="381.5" y1="1313.7573" y2="1314"/><line style="stroke:#A80036;stroke-width:1.0;" x1="225.9963" x2="217.8179" y1="1248.2427" y2="1253.9972"/><line style="stroke:#A80036;stroke-width:1.0;" x1="225.9963" x2="218.1821" y1="1248.2427" y2="1242.0028"/><line style="stroke:#A80036;stroke-width:1.0;" x1="225.9963" x2="218" y1="1248.2427" y2="1248"/><line style="stroke:#A80036;stroke-width:1.0;" x1="227.874" x2="228.1168" y1="1252.3016" y2="1244.3053"/><polygon fill="#000000" points="269.5688,1247.2071,262.4978,1240.8469,260.1098,1246.2178,269.5688,1247.2071" style="stroke:#000000;stroke-width:1.0;"/><text fill="#000000" font-family="sans-serif" font-size="13" lengthAdjust="spacing" textLength="36" x="274" y="1250.4951">due to</text><!--MD5=[3b7ee4b53f6c81168fac1e898d66a031]
link analysisResults to meas--><path codeLine="119" d="M226.06,1233.59 C318.07,1223.97 253.44,1046.13 345.37,1036.41 " fill="none" id="analysisResults-meas" style="stroke:#A80036;stroke-width:1.0;"/><line style="stroke:#A80036;stroke-width:1.0;" x1="349.3049" x2="349.7051" y1="1032.2051" y2="1040.1951"/><line style="stroke:#A80036;stroke-width:1.0;" x1="346.3087" x2="346.7089" y1="1032.3552" y2="1040.3452"/><line style="stroke:#A80036;stroke-width:1.0;" x1="345.51" x2="353.5" y1="1036.4002" y2="1036"/><line style="stroke:#A80036;stroke-width:1.0;" x1="225.99" x2="218.3002" y1="1233.5998" y2="1239.9925"/><line style="stroke:#A80036;stroke-width:1.0;" x1="225.99" x2="217.6998" y1="1233.5998" y2="1228.0075"/><line style="stroke:#A80036;stroke-width:1.0;" x1="225.99" x2="218" y1="1233.5998" y2="1234"/><line style="stroke:#A80036;stroke-width:1.0;" x1="228.1876" x2="227.7874" y1="1237.4947" y2="1229.5047"/><polygon fill="#000000" points="267.5884,1035.8979,260.3915,1042.1152,265.4204,1045.1581,267.5884,1035.8979" style="stroke:#000000;stroke-width:1.0;"/><text fill="#000000" font-family="sans-serif" font-size="13" lengthAdjust="spacing" textLength="36" x="274" y="1045.4951">due to</text><!--MD5=[33e7e52d18d6a4c58f3ce96efbb30cc0]
link meas to device--><path codeLine="20" d="M518.66,1055.62 C571.5,1036.36 521.87,820.64 547,763 C574.61,699.67 618.45,706.91 647,644 C673.77,585.02 629.9,363.24 685.41,344.29 " fill="none" id="meas-device" style="stroke:#A80036;stroke-width:1.0;"/><line style="stroke:#A80036;stroke-width:1.0;" x1="688.9211" x2="690.1783" y1="339.6783" y2="347.5789"/><line style="stroke:#A80036;stroke-width:1.0;" x1="685.9584" x2="687.2156" y1="340.1498" y2="348.0504"/><line style="stroke:#A80036;stroke-width:1.0;" x1="685.5994" x2="693.5" y1="344.2572" y2="343"/><line style="stroke:#A80036;stroke-width:1.0;" x1="518.3888" x2="511.4968" y1="1055.6709" y2="1062.9166"/><line style="stroke:#A80036;stroke-width:1.0;" x1="518.3888" x2="509.5032" y1="1055.6709" y2="1051.0834"/><line style="stroke:#A80036;stroke-width:1.0;" x1="518.3888" x2="510.5" y1="1055.6709" y2="1057"/><line style="stroke:#A80036;stroke-width:1.0;" x1="521.0256" x2="519.6965" y1="1059.283" y2="1051.3942"/><polygon fill="#000000" points="567.1412,630.3077,562.2154,638.4433,567.9381,639.7849,567.1412,630.3077" style="stroke:#000000;stroke-width:1.0;"/><text fill="#000000" font-family="sans-serif" font-size="13" lengthAdjust="spacing" textLength="57" x="575" y="640.4951">measured</text><!--MD5=[a789fa5083c613caf1001ac97913d81d]
@startuml

!includesub ERD_head.puml!HEAD
!includesub ERD_head.puml!KEYS

!includesub ERD_fab.puml!FAB

!includesub ERD_measurement.puml!MEASUREMENT
!includesub ERD_measurement.puml!ANALYSIS



' Relationship symbols:

' Type	        Symbol
' Zero or One	|o- -
' Exactly One	||- -
' Zero or Many	}o- -
' One or Many	}|- -

meas::device_id }|- -|| device::ID : measured >

@enduml

@startuml


left to right direction
hide circle




entity "Wafer" as wafer {
    <size:12><&key></size><b> ID
    - -
    <size:12><&link-intact></size><i> factory_id
    - -
    * name : str
    * production_date : date
    description : str
    heterostructure : link
    recipe : link
    layout : str
}

entity "Factory" as factory {
    <size:12><&key></size><b> ID
    - -
    * name : str

}

entity "Sample" as sample {
    <size:12><&key></size><b> ID
    - -
    <size:12><&link-intact></size><i> wafer_id
    <size:12><&link-intact></size><i> factory_id
    <size:12><&link-intact></size><i> layout_id
    - -
    * name : str
    description : str
    fabrication_date : date
    recipe : link
    creator : str
    fabricator : str
}

entity "SampleLayout" as sampleLayout {
    <size:12><&key></size><b> ID
    - -
    * name : str
    description : str
}

entity "Device" as device {
    <size:12><&key></size><b> ID
    - -
    <size:12><&link-intact></size><i> sample_id
    <size:12><&link-intact></size><i> layout_id
    - -
    * name : str
    description : str
    comment : str
    layout_parameters : str
    status : str
    microscope : str
    annealing : str
    responsible_person : str
    deliver_date : date
    current_location : str
}

entity "DeviceLayout" as deviceLayout {
    <size:12><&key></size><b> ID
    - -
    <size:12><&link-intact></size><i> terminals_id []
    - -
    * name : str
    description : str
    image : bytea
    creator : str
    layout_file : link
    layout_cell : str
}

entity "Terminal" as terminal {
    <size:12><&key></size><b> ID
    - -
    <size:12><&link-intact></size><i> layout_id
    - -
    * name : str
    * function : str
    number : int
}

wafer::ID ||- -|{ sample::wafer_id : made of <
wafer::factory_id }|- -|| factory::ID : is produced by >
sample::ID ||- -|{ device::sample_id : is on <
sample::factory_id }|- -|| factory::ID : is produced by >
sample::layout_id }|- -|| sampleLayout::ID : has >
deviceLayout::ID ||- -|{ device::layout_id : has <
deviceLayout::terminals_id ||- -|{ terminal::layout_id : has >



entity "MeasurementSeries" as measSeries {
    <size:12><&key></size><b> ID
    - -
    <size:12><&link-intact></size><i> measurements_id []
    - -
    * name : str
}

entity "Measurement" as meas {
    <size:12><&key></size><b> ID
    - -
    <size:12><&link-intact></size><i> device_id
    <size:12><&link-intact></size><i> measurement_type_id
    <size:12><&link-intact></size><i> measurement_settings_id
    <size:12><&link-intact></size><i> measurement_mapping_id
    <size:12><&link-intact></size><i> experiment_setup_id
    <size:12><&link-intact></size><i> measurement_script_id
    <size:12><&link-intact></size><i> measurement_series_id
    <size:12><&link-intact></size><i> measurement_data_id []
    - -
    * name : str
    * datetime : date
    * user : str
    * valid : bool
    comments : str
}

entity "MeasurementData" as measData {
    <size:12><&key></size><b> ID
    - -
    * name : str
    * data_type : str
    * path_to_data : link
}

entity "ExperimentSetup" as exp {
    <size:12><&key></size><b> ID
    - -
    * name : str
    temperature of cryostat
    instruments / channels
    standard_settings
    filters
}

entity "MeasurementScript" as measScript {
    <size:12><&key></size><b> ID
    - -
    * name : str
    language : str
    script : str
}

entity "MeasurementSettings" as measSettings {
    <size:12><&key></size><b> ID
    - -
    * name : str
    settings : str
}

entity "MeasurementMapping" as measMapping {
    <size:12><&key></size><b> ID
    - -
    * name : str
    mapping : str
}

entity "MeasurementType" as measType {
    <size:12><&key></size><b> ID
    - -
    <size:12><&link-intact></size><i> script_templates_id []
    - -
    * name : str
    extractable_parameters : str
}

measType::script_template }|- -|{ measScript::ID : provides >
meas::measurement_series_id }|- -|| measSeries::measurements_id
meas::script_id }|- -|| measScript::ID : uses >
meas::measurement_type_id }|- -|| measType::ID : according to >
meas::measurement_settings_id }|- -|| measSettings::ID : set to >
meas::measurement_mapping_id }|- -|| measMapping::ID
meas::experiment_setup_id }|- -|| exp::ID : performed on >
meas::measurement_data_id ||- -|{ measData::ID : measured >


entity "Analysis" as analysis {
    <size:12><&key></size><b> ID
    - -
    * name : str
    method
    results
    script
    software_filter
}

entity "AnalysisResult" as analysisResults {
    <size:12><&key></size><b> ID
    - -
    <size:12><&link-intact></size><i> measurement_id
    <size:12><&link-intact></size><i> analysis_id
    - -
    * name : str
    extracted parameters and their values
}

analysisResults::analysis_id }|- -|| analysis::ID : due to >
analysisResults::measurement_id }|- -|| meas::ID : due to >






meas::device_id }|- -|| device::ID : measured >

@enduml

PlantUML version 1.2022.0(Tue Jan 11 17:16:42 CET 2022)
(GPL source distribution)
Java Runtime: OpenJDK Runtime Environment
JVM: OpenJDK 64-Bit Server VM
Default Encoding: Cp1252
Language: de
Country: DE
--></g></svg>
